<svg width="54" height="56" viewBox="0 0 54 56" fill="none" xmlns="http://www.w3.org/2000/svg">
<path d="M47.5116 19.4407C46.4067 19.1794 45.3839 18.6792 44.3537 18.2238C40.4939 16.5142 36.5371 15.0882 32.4011 14.2148C30.7512 13.8639 29.0714 13.6847 27.3991 13.4757C26.981 13.4309 26.9139 13.2592 26.981 12.9157C27.108 12.2886 27.3693 11.7138 27.638 11.1464C28.6832 8.92907 30.1764 7.13731 32.3713 6.00999C33.6554 5.35301 35.0514 5.13651 36.3206 5.14397C38.5902 5.08425 40.3222 6.05479 41.9497 7.24183C43.622 8.45873 44.7941 10.1236 45.802 11.9153C46.8845 13.8415 47.3922 15.9468 47.7804 18.0894C47.8476 18.4478 47.8252 18.8285 47.8551 19.1944C47.87 19.4706 47.758 19.5005 47.5116 19.4407Z" fill="#F3B62C"/>
<path d="M47.1085 42.8977C46.9218 43.3083 46.6979 43.6965 46.4739 44.0847C46.3171 44.346 46.1603 44.6148 45.9961 44.8761C46.2798 44.2938 46.6083 43.7264 46.9069 43.1515C46.9666 43.0396 47.0264 42.9425 47.1085 42.8977Z" fill="#352313"/>
<path d="M47.153 25.4953C46.8618 25.2713 46.5109 25.234 46.1675 25.1743C46.0182 25.1519 45.8465 25.1967 45.7271 25.0474C46.3392 25.0847 46.9514 25.0922 47.4442 25.5998C47.7353 25.8985 47.7652 26.1523 47.5412 26.4733C47.4367 26.6226 47.377 26.8167 47.2053 26.9138C47.2351 26.7869 47.2948 26.6749 47.362 26.5554C47.6681 26.0328 47.6308 25.8686 47.153 25.4953Z" fill="#905A20"/>
<path d="M47.444 25.5999C46.9513 25.0922 46.3391 25.0848 45.7269 25.0474C45.3462 24.7339 45.3462 24.3979 45.7195 24.1142C46.0181 23.8903 46.3764 23.8529 46.7199 23.8977C47.4963 24.0022 48.2205 24.271 48.5639 25.0474C48.9073 25.8239 48.6311 26.8168 48.004 27.3917C47.9592 27.4365 47.9144 27.4738 47.8696 27.5036C47.6381 27.6455 47.3992 27.8172 47.1529 27.5858C46.899 27.3618 47.0857 27.1304 47.2051 26.9139C47.3768 26.8168 47.4366 26.6227 47.5411 26.4734C47.7651 26.1524 47.7352 25.8985 47.444 25.5999Z" fill="#201C17"/>
<path d="M46.1676 25.1743C46.5111 25.234 46.8619 25.2713 47.1531 25.4953C47.6309 25.8686 47.6682 26.0328 47.3621 26.5554C47.295 26.6749 47.2352 26.7869 47.2054 26.9138C46.8246 26.7943 46.414 26.8018 46.1154 26.4136C45.7869 25.9955 45.6301 25.57 45.7272 25.0474C45.8466 25.1967 46.0183 25.1519 46.1676 25.1743Z" fill="#905A20"/>
<path d="M37.6491 51.4236L37.3804 51.3639C38.5525 50.9831 39.6947 50.5053 40.7847 49.908C42.2629 49.1017 43.6441 48.064 44.7117 46.7575C45.1895 46.1752 45.6001 45.5406 45.9883 44.8911C45.9136 45.0404 45.839 45.1897 45.7718 45.3391C45.1969 46.6381 44.2787 47.631 43.1961 48.5045C41.9494 49.5124 40.501 50.1096 39.09 50.8114C38.6197 51.0503 38.1344 51.2519 37.6491 51.4236Z" fill="#F7F3E7"/>
<path d="M37.2983 35.7233C37.6492 35.6113 37.9852 35.462 38.3361 35.3276C40.3817 34.5138 42.3526 34.7378 44.2414 35.8651C45.6599 36.7087 46.6603 37.8958 47.2053 39.486C47.5188 40.4117 47.81 41.33 47.713 42.3304C47.698 42.5021 47.6682 42.6738 47.6458 42.853C47.6234 42.9724 47.586 43.0546 47.4517 42.95C47.3023 42.8455 47.1978 42.8381 47.1082 42.8903C47.3322 42.4125 47.4964 41.9198 47.5263 41.3897C47.5786 40.6357 47.3546 39.8891 47.0336 39.2023C45.5479 36.0219 41.494 34.0734 38.2913 35.4993C37.9852 35.6337 37.6567 35.7979 37.3282 35.7307C37.3207 35.7307 37.3058 35.7233 37.2983 35.7233Z" fill="#F7F3E7"/>
<path d="M25.8534 48.9376L37.3804 51.3639C34.2448 52.3942 30.8703 52.7301 27.5556 52.8272C23.0612 52.9616 18.4848 52.6853 14.2592 51.1549C10.7578 49.8782 7.50278 47.6609 5.39746 44.6299L17.8502 47.2578C18.4997 48.3403 19.3881 49.2138 20.6648 49.6991C22.4715 50.3859 24.4051 50.0425 25.8534 48.9376Z" fill="#F7F3E7"/>
<path d="M37.2984 35.7233C37.2461 35.7382 37.2013 35.7532 37.1491 35.7681C37.1491 35.7308 37.1491 35.6934 37.1416 35.6636C37.1939 35.686 37.2461 35.7084 37.2984 35.7233Z" fill="#352313"/>
<path d="M35.5516 31.535C34.9245 31.5425 34.4318 31.0647 34.4168 30.445C34.4019 29.803 34.9021 29.2878 35.5367 29.2878C36.1563 29.2953 36.6416 29.7806 36.6416 30.4077C36.6491 31.0348 36.1638 31.5275 35.5516 31.535Z" fill="#F7F3E7"/>
<path d="M30.1015 42.0244C32.4681 41.024 34.3569 39.4935 35.4469 37.0821C35.5365 36.888 35.6709 36.7984 35.8575 36.7163C36.3577 36.5073 36.8057 36.2086 37.1491 35.7682C37.2013 35.7532 37.2461 35.7383 37.2984 35.7234C37.3059 35.7234 37.3208 35.7308 37.3283 35.7308C37.6567 35.798 37.9852 35.6338 38.2913 35.4994C41.4941 34.0734 45.548 36.022 47.0336 39.2024C47.3547 39.8892 47.5786 40.6358 47.5264 41.3898C47.4965 41.9199 47.3323 42.4126 47.1083 42.8904C47.0262 42.9427 46.9664 43.0397 46.9067 43.1517C46.6081 43.7266 46.2796 44.2939 45.9959 44.8763C45.9884 44.8763 45.9884 44.8837 45.9884 44.8912C45.6002 45.5407 45.1896 46.1753 44.7118 46.7576C43.6442 48.0641 42.2631 49.1018 40.7849 49.9081C39.6949 50.5054 38.5526 50.9832 37.3805 51.3639L25.8535 48.9376C26.5553 48.415 27.1451 47.7058 27.5557 46.8547C27.6901 46.5784 27.817 46.2947 27.9812 46.0335C28.6755 44.936 29.2205 43.7714 29.6311 42.5321C29.6535 42.4649 29.6759 42.4126 29.7058 42.3603C29.7805 42.2633 29.8626 42.1812 29.9522 42.099C29.997 42.0766 30.0418 42.0468 30.1015 42.0244Z" fill="#F7F3E7"/>
<path d="M34.4165 30.445C34.4315 31.0647 34.9242 31.5425 35.5513 31.535C36.1635 31.5275 36.6488 31.0348 36.6413 30.4077C36.6413 29.7806 36.156 29.2953 35.5364 29.2878C34.9018 29.2878 34.4016 29.803 34.4165 30.445ZM31.699 26.4882C33.0802 25.5774 34.4986 25.5475 35.9395 26.309C37.47 27.1228 38.3061 28.6906 38.1046 30.3181C37.8881 32.0352 36.5368 33.5806 34.9466 33.924C33.7147 34.1032 32.6472 33.6478 31.6916 32.9609C30.7509 32.2816 30.3627 31.2364 30.2357 30.1091C30.064 28.6458 30.609 27.4438 31.699 26.4882Z" fill="#352313"/>
<path d="M35.9397 26.309C34.4988 25.5475 33.0804 25.5773 31.6992 26.4882C31.6992 26.294 31.8635 26.2567 31.9755 26.1895C33.3342 25.3683 35.1932 25.54 36.537 26.5479C39.2993 28.6159 38.4258 32.3188 35.8651 33.7373C35.5814 33.9016 35.2753 33.9762 34.9468 33.924C36.537 33.5805 37.8883 32.0352 38.1048 30.318C38.3063 28.6905 37.4702 27.1227 35.9397 26.309Z" fill="#F6F3E7"/>
<path d="M31.8784 25.9506C32.6399 25.4206 33.4761 25.1294 34.3794 25.0398C34.8572 24.9876 35.3425 24.9801 35.8203 25.0622C37.6121 25.3683 38.9484 26.7196 39.3889 28.6756C39.6203 29.7133 39.5905 30.7511 39.4337 31.7963C39.4262 31.8709 39.3963 31.9381 39.3441 31.9978C39.3217 31.2662 39.4785 30.542 39.4262 29.8029C39.3366 28.6906 39.0305 27.6678 38.381 26.7569C37.6344 25.7117 36.6117 25.2265 35.3649 25.1444C34.4018 25.0772 33.4835 25.2489 32.6101 25.6744C32.3712 25.7864 32.1173 25.8611 31.8784 25.9506Z" fill="#352313"/>
<path d="M31.8783 25.9508C32.1172 25.8612 32.371 25.7866 32.6099 25.6746C33.4834 25.249 34.4017 25.0773 35.3648 25.1445C36.6115 25.2266 37.6343 25.7119 38.3809 26.7571C39.0304 27.6679 39.3365 28.6907 39.4261 29.8031C39.4784 30.5422 39.3216 31.2664 39.344 31.998C38.6721 32.976 37.7836 33.6404 36.6041 33.8495C36.0516 33.9391 35.5141 34.2228 34.9467 33.9241C35.2752 33.9764 35.5813 33.9017 35.865 33.7375C38.4257 32.319 39.2992 28.616 36.5369 26.5481C35.1931 25.5402 33.3341 25.3685 31.9754 26.1897C31.8634 26.2569 31.6917 26.2942 31.6991 26.4883C31.5498 26.2345 31.8036 26.1225 31.8708 25.9508H31.8783Z" fill="#F6F3E7"/>
<path d="M35.4469 37.082C34.3569 39.4934 32.4681 41.0239 30.1015 42.0243C30.0417 42.0467 29.9969 42.0766 29.9521 42.099C30.1761 41.8974 30.4523 41.7257 30.7808 41.5764C32.5726 40.7626 33.9985 39.471 35.0064 37.7465C35.0811 37.6196 35.1632 37.4926 35.208 37.3508C35.3424 36.9551 35.5738 36.6639 35.9919 36.5296C36.4398 36.3803 36.7235 35.9547 37.1491 35.7681C36.8056 36.2085 36.3577 36.5072 35.8575 36.7162C35.6709 36.7983 35.5365 36.8879 35.4469 37.082Z" fill="#352313"/>
<path d="M34.3794 25.0399C33.476 25.1294 32.6399 25.4206 31.8784 25.9507H31.8709C31.6395 25.9059 31.3259 26.1 31.199 25.8088C31.0571 25.4803 31.4304 25.3758 31.6021 25.2116C33.6851 23.2556 38.269 23.0839 39.7621 27.3617C40.225 28.6906 40.3668 30.0493 40.0234 31.4305C39.9786 31.6022 39.9263 31.7739 39.8517 31.9307C39.7248 32.1845 39.5456 32.2293 39.344 31.9979C39.3963 31.9381 39.4261 31.8709 39.4336 31.7963C39.5904 30.7511 39.6203 29.7134 39.3888 28.6756C38.9483 26.7196 37.612 25.3683 35.8202 25.0623C35.3424 24.9801 34.8572 24.9876 34.3794 25.0399Z" fill="#352313"/>
<path d="M29.7056 42.3602C29.7578 42.2557 29.8399 42.1735 29.9519 42.0989C29.8623 42.181 29.7802 42.2631 29.7056 42.3602Z" fill="#352313"/>
<path d="M14.3562 12.6394C14.9759 10.4968 15.7075 8.3765 17.1409 6.6594C19.5673 3.75525 22.4938 1.6798 26.4058 1.42596C27.2121 1.36624 28.0035 1.40357 28.8023 1.50809C28.9441 1.53048 29.0935 1.53048 29.2204 1.67233C27.451 2.06055 25.8608 2.84444 24.4199 3.92696C23.8675 4.33758 23.3747 4.81538 22.9268 5.34544C22.7775 5.51715 22.5834 5.74859 22.8148 5.95016C23.0239 6.1368 23.2105 5.92776 23.3598 5.76352C25.0247 3.8971 27.2046 3.02362 29.5563 2.50102C30.8927 2.20239 32.2589 2.11281 33.6251 2.22479C35.5886 2.3965 37.3206 3.12067 38.8212 4.42716C38.1568 4.30771 37.4998 4.20319 36.8354 4.136C34.4015 3.91203 32.2813 4.69593 30.3925 6.19653C28.2946 7.86884 27.0703 10.1533 26.0997 12.6095C25.816 13.3337 26.0251 13.2964 25.1665 13.2292C22.5386 13.0351 19.9107 12.7962 17.2753 12.8634C16.3869 12.8932 15.4985 12.8932 14.6101 12.9231C14.3786 12.9306 14.289 12.8932 14.3562 12.6394Z" fill="#F3B62C"/>
<path d="M29.0487 54.8428C29.0487 54.8428 29.0113 54.8726 28.9889 54.8876C28.974 54.8726 28.9516 54.8577 28.9292 54.8577C28.9665 54.8502 29.0113 54.8502 29.0487 54.8428Z" fill="#CA8C48"/>
<path d="M27.0706 47.4818C27.8097 46.1007 28.728 44.7942 29.2132 43.2936C29.3402 42.9203 29.4969 42.6142 29.706 42.3604C29.6761 42.4126 29.6537 42.4649 29.6313 42.5321C29.2207 43.7714 28.6757 44.936 27.9814 46.0335C27.8172 46.2948 27.6902 46.5785 27.5559 46.8547C27.1452 47.7058 26.5555 48.415 25.8537 48.9376L25.7417 48.9152C25.8835 48.8182 26.0179 48.7136 26.1523 48.5942C26.5181 48.2732 26.8392 47.8999 27.0706 47.4818Z" fill="#352313"/>
<path d="M24.0544 48.5568C23.3228 48.8554 22.524 48.9973 21.6654 48.96C20.9413 48.9376 20.3739 48.4 20.1499 47.7356L24.0544 48.5568Z" fill="#F4ADAF"/>
<path d="M20.6127 46.0334C21.7699 45.9363 22.718 45.4063 23.487 44.5477C23.6363 44.3835 23.7781 44.2715 24.017 44.376C23.8976 44.6298 23.6811 44.7941 23.5094 44.9807C23.3153 45.1823 23.1436 45.3988 23.0092 45.6452C22.8748 45.8766 22.8001 46.1379 23.0764 46.3096C23.3601 46.4888 23.5392 46.2872 23.6662 46.0558C24.0469 45.3689 24.6666 45.0031 25.3683 44.7642C25.8163 44.6149 26.2567 44.5925 26.6226 44.9807C26.9958 45.3764 26.9212 45.8169 26.7644 46.2648C26.6524 46.5709 26.4956 46.8621 26.2642 47.086C25.5923 47.7355 24.8607 48.2357 24.0544 48.5568L20.1498 47.7355C19.9706 47.2353 19.993 46.6754 20.2767 46.1976C20.3589 46.0558 20.4783 46.0483 20.6127 46.0334Z" fill="#F4ADAF"/>
<path d="M19.7393 40.882C19.8289 40.658 19.9334 40.5983 20.1648 40.6804C21.2697 41.0537 22.3746 41.4195 23.487 41.7555C23.8006 41.8525 23.6886 42.0167 23.6363 42.1885C23.0764 43.9877 21.8894 45.1299 19.7094 45.0851C19.6198 45.0851 19.5377 45.0851 19.4556 45.0777L19.478 44.5551C19.7243 44.5252 19.7094 44.3311 19.6945 44.1519C19.6347 43.5771 19.575 43.0097 19.5153 42.4348C19.4556 41.8973 19.5377 41.3822 19.7393 40.882Z" fill="#F7F3E7"/>
<path d="M19.4553 45.0777C17.5142 45.003 16.2674 43.6816 15.9315 41.6658C15.9016 41.5165 15.9763 41.4867 16.0733 41.4493C16.8423 41.1358 17.6187 40.8372 18.3802 40.5161C18.7162 40.3818 18.761 40.5161 18.7834 40.8222C18.8655 41.8674 18.858 42.9126 19.0521 43.9503C19.0745 44.0474 19.0894 44.1519 19.1118 44.249C19.1566 44.4431 19.2686 44.5775 19.4777 44.5551L19.4553 45.0777Z" fill="#F7F3E7"/>
<path d="M19.3735 48.8181C18.8509 48.3552 18.3806 47.855 18.0073 47.2876L20.15 47.7355C20.3739 48.4 20.9413 48.9375 21.6655 48.9599C22.5241 48.9972 23.3229 48.8554 24.0545 48.5568L25.7418 48.9151C24.9952 49.4526 24.1441 49.7662 23.2258 49.8633C21.8148 50.0126 20.4859 49.7961 19.3735 48.8181Z" fill="#352313"/>
<path d="M19.7613 30.7288C19.1939 30.8258 18.634 30.8258 18.074 30.6989C17.8799 30.6541 17.5813 30.6168 17.5962 30.348C17.6112 30.0643 17.8575 29.9449 18.1338 29.9374C18.3652 29.9299 18.5966 29.9374 18.8281 29.9374C19.1715 29.9225 19.5224 29.8852 19.8583 30.0345C20.0599 30.1241 20.2167 30.2659 20.1719 30.5048C20.1346 30.7213 19.933 30.6989 19.7613 30.7288Z" fill="#F4F0E5"/>
<path d="M18.0069 47.2877C18.3802 47.8551 18.8505 48.3553 19.3731 48.8181C20.4855 49.7961 21.8144 50.0126 23.2254 49.8633C24.1437 49.7663 24.9947 49.4527 25.7413 48.9152L25.8533 48.9376C24.405 50.0425 22.4713 50.3859 20.6647 49.6991C19.388 49.2138 18.4996 48.3403 17.8501 47.2578L17.9994 47.2877H18.0069Z" fill="#352313"/>
<path d="M18.1338 29.9373C17.8576 29.9447 17.6112 30.0642 17.5963 30.3479C17.5813 30.6166 17.8799 30.654 18.0741 30.6988C18.634 30.8257 19.1939 30.8257 19.7613 30.7286C19.933 30.6988 20.1346 30.7212 20.1719 30.5047C20.2167 30.2658 20.0599 30.1239 19.8584 30.0343C19.5224 29.885 19.1715 29.9223 18.8281 29.9373C18.5967 29.9373 18.3652 29.9298 18.1338 29.9373ZM15.797 30.1911C17.9695 29.0563 20.1346 29.2504 22.2922 30.221C22.7625 30.5196 22.8819 30.9377 22.7476 31.4752C22.5236 32.3785 22.2623 33.2669 21.7994 34.0732C21.2171 35.0886 20.3809 35.7456 19.1566 35.6858C18.4175 35.641 17.8277 35.2528 17.32 34.7601C16.4316 33.9015 15.8045 32.8638 15.3715 31.7066C15.1027 30.9825 15.2147 30.639 15.797 30.1911Z" fill="#352313"/>
<path d="M15.7974 30.1912C15.9691 29.9672 16.2229 29.8851 16.4618 29.7806C18.3432 28.9444 20.1797 29.2729 22.0088 29.9672C22.1283 30.0195 22.2477 30.0867 22.2925 30.2211C20.1349 29.2505 17.9699 29.0564 15.7974 30.1912Z" fill="#F4F0E4"/>
<path d="M16.4618 29.7806C16.2229 29.8851 15.9691 29.9673 15.7974 30.1912C15.8422 29.9598 16.0064 29.8403 16.1856 29.7433C17.828 28.8175 19.5302 28.6234 21.307 29.2879C21.6206 29.4073 21.9192 29.5716 22.1581 29.8179C22.2552 29.9225 22.4269 30.027 22.2925 30.2211C22.2477 30.0867 22.1283 30.0195 22.0088 29.9673C20.1797 29.273 18.3432 28.9445 16.4618 29.7806Z" fill="#F4F0E4"/>
<path d="M11.721 29.7357C11.1088 29.7357 10.6235 29.2355 10.6235 28.6084C10.6235 27.9738 11.0939 27.4811 11.7135 27.4736C12.3257 27.4736 12.8334 27.9664 12.8334 28.5786C12.8408 29.2281 12.3481 29.7432 11.721 29.7357Z" fill="#F7F3E7"/>
<path d="M9.58579 31.7889C9.58579 31.7889 9.54846 31.8412 9.52606 31.8636C9.52606 31.8561 9.54099 31.8412 9.54099 31.8337C9.4738 31.7591 9.41408 31.6844 9.36182 31.6023C9.42901 31.6695 9.50366 31.7367 9.58579 31.7889Z" fill="#352313"/>
<path d="M8.92866 30.2361C8.93613 29.5642 8.90626 28.8848 9.02571 28.2129C9.27208 26.8616 9.88427 25.7567 11.0862 25.0325C11.3475 24.8683 11.6163 24.7563 11.9224 24.943C11.8627 25.152 11.691 25.152 11.5715 25.2117C10.922 25.5701 10.3397 25.9807 10.0261 26.7049C9.49605 27.9367 9.4214 29.2133 9.72002 30.5049C9.82454 30.9678 9.90666 31.3933 9.58564 31.789C9.50352 31.7367 9.42886 31.6695 9.36167 31.6023C9.3542 31.6023 9.34674 31.5949 9.34674 31.5874C9.15263 31.3336 8.98839 31.0573 8.854 30.7662C8.95852 30.6019 8.9212 30.4153 8.92866 30.2361Z" fill="#F6F2E6"/>
<path d="M9.51853 20.3589C9.45881 20.3962 9.39908 20.4335 9.33936 20.4858C9.40655 20.4335 9.45881 20.3887 9.51853 20.3589Z" fill="#905B20"/>
<path d="M9.42163 12.9828C9.39923 12.5722 9.60081 12.2362 9.80985 11.9227C11.2657 9.71282 12.8484 7.6075 15.0283 6.03971C15.6181 5.61416 16.2154 5.20355 16.947 5.03931C15.3568 6.46525 14.5879 8.33913 14.0429 10.3474C13.8488 11.0865 13.5949 11.8107 13.3934 12.5498C13.3038 12.8932 13.1321 13.0724 12.7663 13.0873C11.7659 13.1172 10.7655 13.1844 9.77252 13.3113C9.51122 13.3411 9.43656 13.2068 9.42163 12.9828Z" fill="#F3B62C"/>
<path d="M9.33963 20.4858C9.25004 20.5381 9.17538 20.5978 9.09326 20.6575C9.17538 20.5904 9.25751 20.5306 9.33963 20.4858Z" fill="#905B20"/>
<path d="M9.09297 20.6575C8.92126 20.7844 8.74955 20.9188 8.59277 21.0606C8.72716 20.9337 8.87647 20.8217 9.01832 20.7097C9.04071 20.6873 9.07058 20.6724 9.09297 20.6575Z" fill="#905B20"/>
<path d="M9.02607 28.2127C8.90662 28.8846 8.93649 29.564 8.92902 30.2359C8.92156 30.4151 8.95888 30.6017 8.85436 30.7585C8.83197 30.7287 8.81704 30.7063 8.80957 30.6764C8.83943 29.8626 8.77971 29.0339 8.90662 28.2277C9.15299 26.7345 9.86223 25.5624 11.2061 24.8308C11.5943 24.6143 11.9302 24.6665 12.2139 25.0025C12.1617 25.1145 12.0571 25.1443 11.9601 25.1742C10.4595 25.7043 9.86223 26.8988 9.69052 28.377C9.60093 29.1758 9.6084 29.9746 9.89956 30.7361C10.0638 31.1841 10.0041 31.5349 9.586 31.7888C9.90702 31.3931 9.8249 30.9676 9.72038 30.5047C9.42176 29.2131 9.49641 27.9365 10.0265 26.7047C10.34 25.9805 10.9224 25.5699 11.5719 25.2115C11.6913 25.1518 11.863 25.1518 11.9228 24.9428C11.6167 24.7561 11.3479 24.8681 11.0866 25.0323C9.88463 25.7565 9.27244 26.8614 9.02607 28.2127Z" fill="#F6F2E6"/>
<path d="M8.85436 30.7661C8.98875 31.0573 9.15299 31.3335 9.3471 31.5873C9.12313 31.3708 8.97382 31.0946 8.80957 30.8258C8.8245 30.8034 8.83943 30.7885 8.85436 30.7661Z" fill="#F6F2E6"/>
<path d="M8.80957 30.8258C8.80957 30.7736 8.81704 30.7288 8.80957 30.6765C8.81704 30.7064 8.83197 30.7288 8.85436 30.7586C8.85436 30.7586 8.8245 30.8034 8.80957 30.8258Z" fill="#F6F2E6"/>
<path d="M15.9315 41.666C16.2674 43.6818 17.5142 45.0032 19.4553 45.0779C19.5374 45.0853 19.6195 45.0853 19.7091 45.0853C21.8891 45.1301 23.0761 43.9879 23.6361 42.1886C23.6883 42.0169 23.8003 41.8527 23.4867 41.7556C22.3744 41.4197 21.2694 41.0539 20.1645 40.6806C19.9331 40.5985 19.8286 40.6582 19.739 40.8822C19.5374 41.3824 19.4553 41.8975 19.515 42.435C19.5747 43.0099 19.6345 43.5773 19.6942 44.1521C19.7091 44.3313 19.724 44.5254 19.4777 44.5553C19.2686 44.5777 19.1566 44.4433 19.1119 44.2492C19.0895 44.1521 19.0745 44.0476 19.0521 43.9505C18.858 42.9128 18.8655 41.8676 18.7834 40.8224C18.761 40.5163 18.7162 40.382 18.3802 40.5163C17.6187 40.8374 16.8423 41.136 16.0733 41.4495C15.9763 41.4869 15.9016 41.5167 15.9315 41.666ZM11.7134 27.4738C11.0937 27.4813 10.6159 27.974 10.6234 28.6086C10.6234 29.2357 11.1087 29.7359 11.7208 29.7359C12.348 29.7434 12.8407 29.2282 12.8332 28.5787C12.8332 27.9665 12.3256 27.4738 11.7134 27.4738ZM10.5263 40.7328C8.23437 39.0829 7.42808 36.0817 8.52553 33.4613C8.57779 33.3418 8.65992 33.2298 8.59273 33.088L8.65992 32.9984L8.67485 32.9835C9.07053 32.7147 9.36169 32.319 9.52593 31.8636C9.54833 31.8412 9.56326 31.8114 9.58566 31.789C10.0037 31.5351 10.0635 31.1842 9.89922 30.7363C9.60806 29.9748 9.60059 29.176 9.69018 28.3772C9.86189 26.899 10.4591 25.7044 11.9597 25.1744C12.0568 25.1445 12.1613 25.1147 12.2136 25.0027C11.9299 24.6667 11.5939 24.6145 11.2057 24.831C9.86189 25.5626 9.15265 26.7347 8.90628 28.2278C8.77937 29.0341 8.83909 29.8628 8.80923 30.6766C7.73417 28.3174 8.42101 25.1669 10.5637 23.6439C10.8698 23.42 11.2132 23.2333 11.5939 23.1885C12.5943 23.0915 13.3708 24.0769 13.6843 25.04C14.3936 27.2424 13.6544 29.833 11.8926 31.3336C11.1087 32.0055 10.1307 32.4907 9.58566 33.3642C9.23477 33.9316 9.10039 34.611 9.09292 35.2754C9.07799 36.9552 9.88429 38.6425 11.2356 39.6429C12.5869 40.6507 14.4607 40.9344 16.0285 40.3297C16.9244 39.9788 17.7456 39.3592 18.7087 39.3069C19.5299 39.2696 20.3064 39.6652 21.0679 39.9788C23.9421 41.1658 27.2345 41.3226 30.2058 40.4044C31.8408 39.9042 33.4683 39.0008 34.2672 37.4927C34.3493 37.3434 34.4239 37.1643 34.3792 37C34.2373 36.4923 33.1548 36.4475 33.3564 35.9548C34.2522 35.8055 35.1556 35.6562 36.0589 35.5069C36.2904 35.4695 36.5293 35.4322 36.7607 35.4994C36.8951 35.5367 37.0145 35.6039 37.1414 35.6636C37.1489 35.6935 37.1489 35.7308 37.1489 35.7682C36.7234 35.9548 36.4397 36.3804 35.9917 36.5297C35.5737 36.664 35.3422 36.9552 35.2078 37.3509C35.163 37.4927 35.0809 37.6197 35.0063 37.7466C33.9984 39.4711 32.5725 40.7627 30.7807 41.5765C30.4522 41.7258 30.176 41.8975 29.952 42.0991C29.84 42.1737 29.7579 42.2558 29.7056 42.3604C29.4966 42.6142 29.3398 42.9203 29.2129 43.2936C28.7276 44.7942 27.8094 46.1007 27.0703 47.4818C26.8388 47.8999 26.5178 48.2732 26.152 48.5942C26.0176 48.7136 25.8832 48.8182 25.7414 48.9152L24.0541 48.5569C24.8604 48.2358 25.5921 47.7356 26.264 47.0861C26.4954 46.8622 26.6522 46.571 26.7642 46.2649C26.9209 45.817 26.9956 45.3765 26.6223 44.9808C26.2565 44.5926 25.816 44.615 25.3681 44.7643C24.6663 45.0032 24.0467 45.369 23.6659 46.0559C23.539 46.2873 23.3598 46.4889 23.0761 46.3097C22.7999 46.138 22.8746 45.8767 23.0089 45.6453C23.1433 45.3989 23.315 45.1824 23.5091 44.9808C23.6808 44.7942 23.8973 44.6299 24.0168 44.3761C23.7779 44.2716 23.6361 44.3836 23.4867 44.5478C22.7178 45.4063 21.7696 45.9364 20.6125 46.0335C20.4781 46.0484 20.3586 46.0559 20.2765 46.1977C19.9928 46.6755 19.9704 47.2354 20.1496 47.7356L18.0069 47.2877H17.9995C17.6635 46.8024 17.3948 46.2649 17.2006 45.6751C17.0961 45.369 16.9543 45.1152 16.7004 44.9136C16.1181 44.4657 15.7224 43.8759 15.4686 43.1816C15.3566 42.8904 15.2745 42.5918 15.1774 42.3006C15.1028 42.0543 14.9535 41.9348 14.6996 41.9348C14.4981 41.9348 14.289 41.9497 14.0875 41.9273C12.8034 41.8303 11.579 41.4943 10.5263 40.7328Z" fill="#352313"/>
<path d="M8.6748 32.9834L9.52589 31.8635C9.36165 32.3189 9.07049 32.7146 8.6748 32.9834Z" fill="#352313"/>
<path d="M8.66004 32.9983L8.59285 33.0879C8.59285 33.0879 8.57792 33.0729 8.56299 33.0655C8.60032 33.0431 8.63018 33.0207 8.66004 32.9983Z" fill="#352313"/>
<path d="M10.5638 23.6439C8.42112 25.1669 7.73428 28.3174 8.80934 30.6765C8.8168 30.7288 8.80934 30.7736 8.80934 30.8258C8.51818 30.9901 8.45098 30.7586 8.38379 30.5645C8.08517 29.6985 8.07024 28.8026 8.1225 27.9068C8.22702 26.0777 9.09303 24.6592 10.4742 23.5393C11.6015 22.6211 12.572 22.8002 13.3709 24.1217C14.11 25.346 14.2219 26.6898 13.9607 28.0859C13.6695 29.6537 12.7811 30.8184 11.5642 31.759C11.273 31.983 10.9818 32.2144 10.6683 32.3936C9.66042 32.9759 9.32447 33.9017 9.26474 35.0215C9.1005 38.0078 10.8923 39.9638 13.5874 40.4939C14.6176 40.6954 15.6106 40.4491 16.5512 39.9862C17.0514 39.7398 17.5442 39.4935 18.0593 39.277C18.5446 39.0754 19.0074 39.1277 19.53 39.3068C21.7697 40.0907 23.987 41.0015 26.4209 40.9045C28.571 40.8149 30.639 40.3968 32.4979 39.2247C33.2594 38.7469 33.8417 38.1049 34.2374 37.2911C34.3643 37.0298 34.3942 36.8656 34.0358 36.8058C33.7074 36.761 33.4461 36.5595 33.237 36.3056C33.125 36.1638 33.0802 36.0145 33.1698 35.8502C33.2519 35.6934 33.4087 35.5889 33.5655 35.6337C34.5883 35.9324 35.514 35.5367 36.4473 35.2156C36.9027 35.0663 37.1117 35.2082 37.1416 35.6636C37.0146 35.6039 36.8952 35.5367 36.7608 35.4993C36.5294 35.4321 36.2905 35.4695 36.059 35.5068C35.1557 35.6561 34.2523 35.8054 33.3565 35.9547C33.1549 36.4475 34.2374 36.4923 34.3793 36.9999C34.4241 37.1642 34.3494 37.3434 34.2673 37.4927C33.4685 39.0007 31.8409 39.9041 30.206 40.4043C27.2346 41.3226 23.9423 41.1658 21.068 39.9787C20.3065 39.6652 19.53 39.2695 18.7088 39.3068C17.7457 39.3591 16.9245 39.9787 16.0286 40.3296C14.4608 40.9344 12.587 40.6507 11.2357 39.6428C9.88439 38.6424 9.0781 36.9551 9.09303 35.2754C9.09303 34.6109 9.23488 33.9316 9.58577 33.3642C10.1308 32.4907 11.1088 32.0054 11.8927 31.3335C13.6546 29.8329 14.3937 27.2423 13.6844 25.0399C13.3709 24.0769 12.5944 23.0914 11.594 23.1884C11.2133 23.2332 10.8699 23.4199 10.5638 23.6439Z" fill="#352313"/>
<path d="M8.04053 21.5982C8.09279 21.5385 8.14505 21.4862 8.19731 21.4414L8.04053 21.5982Z" fill="#905B20"/>
<path d="M8.00325 37.0074C7.61504 35.6411 7.89873 34.3197 8.59304 33.0879C8.66023 33.2297 8.57811 33.3417 8.52585 33.4612C7.42839 36.0816 8.23469 39.0828 10.5266 40.7327C11.5793 41.4942 12.8037 41.8302 14.0878 41.9272C14.2893 41.9496 14.4984 41.9347 14.7 41.9347C14.9538 41.9347 15.1031 42.0542 15.1778 42.3005C15.2748 42.5917 15.3569 42.8903 15.4689 43.1815C15.7228 43.8758 16.1184 44.4656 16.7008 44.9135C16.9546 45.1151 17.0964 45.3689 17.201 45.675C17.3951 46.2648 17.6638 46.8023 17.9998 47.2876L17.8505 47.2577C17.5369 46.765 17.2831 46.2275 17.0666 45.6601C16.9695 45.3988 16.8575 45.1897 16.641 45.0255C15.7974 44.376 15.3495 43.4726 15.118 42.4648C15.0434 42.1139 14.9015 42.0616 14.573 42.0542C11.0268 41.9795 8.93646 40.2549 8.00325 37.0074Z" fill="#352313"/>
<path d="M7.89857 21.7624C7.94337 21.7026 7.98816 21.6504 8.04042 21.5981L8.1972 21.4413C8.30172 21.3294 8.4137 21.2174 8.53316 21.1129C8.55555 21.0905 8.57048 21.0755 8.59288 21.0606C8.74966 20.9188 8.92137 20.7844 9.09308 20.6575C9.1752 20.5977 9.24986 20.538 9.33945 20.4857C9.39917 20.4335 9.4589 20.3962 9.51862 20.3588C9.57835 20.3066 9.64554 20.2692 9.71273 20.2319C9.80979 20.1647 9.89937 20.1125 9.99643 20.0602C10.3025 19.8736 10.6235 19.7018 10.9446 19.5525C13.8487 18.1938 17.1336 17.9176 20.3364 17.9474C27.7946 18.0146 35.208 19.6197 42.1585 22.3372C42.1511 22.3596 42.1436 22.382 42.1436 22.4044C41.6583 22.3671 41.2477 22.1058 40.8073 21.9415C38.045 20.8964 35.2005 20.1199 32.3262 19.4779C30.4225 19.0598 28.5113 18.7537 26.5851 18.4999C24.114 18.1639 21.6429 17.9698 19.1568 18.0818C16.9992 18.1714 14.8416 18.3058 12.7513 18.9329C10.967 19.4704 9.4365 20.4111 8.12254 21.7325C7.87618 21.9789 7.62234 22.2103 7.37598 22.4492C7.4805 22.2924 7.59248 22.1357 7.71193 21.9863C7.77166 21.9042 7.83138 21.8296 7.89857 21.7624Z" fill="#905B20"/>
<path d="M7.71191 21.9864C7.76417 21.9118 7.8239 21.8371 7.89856 21.7625C7.83136 21.8296 7.77164 21.9043 7.71191 21.9864Z" fill="#905B20"/>
<path d="M7.33105 22.4941C7.7566 21.4564 8.35385 20.5306 9.02576 19.6422C9.54836 18.9479 10.1531 18.4253 10.9519 18.1342C11.6387 17.8803 12.3331 17.6937 13.0572 17.619C14.5877 17.4548 16.1256 17.3279 17.6635 17.3652C19.5822 17.4175 21.5009 17.5145 23.4196 17.5668C24.6365 17.6041 25.8609 17.6116 27.0703 17.7907C28.3469 17.9923 29.6161 18.2014 30.9002 18.3581C33.3265 18.6493 35.6707 19.3287 38.0374 19.9259C39.3289 20.2544 40.5981 20.6725 41.8449 21.1727C42.5541 21.4639 42.6138 21.7102 42.2107 22.412C42.1883 22.412 42.1659 22.412 42.1435 22.4045C42.1435 22.3821 42.1435 22.3597 42.1584 22.3373C35.2079 19.6198 27.7945 18.0147 20.3363 17.9475C17.1335 17.9177 13.8486 18.1939 10.9444 19.5526C10.6234 19.702 10.3024 19.8737 9.9963 20.0603C9.89925 20.1126 9.80966 20.1648 9.7126 20.232C9.64541 20.2694 9.57822 20.3067 9.5185 20.3589C9.45877 20.3888 9.40651 20.4336 9.33932 20.4859C9.2572 20.5306 9.17508 20.5904 9.09295 20.6576C9.07056 20.6725 9.04069 20.6874 9.0183 20.7098C8.87645 20.8218 8.72714 20.9338 8.59275 21.0607C8.57036 21.0756 8.55543 21.0906 8.53303 21.113C8.41358 21.2175 8.30159 21.3295 8.19707 21.4415C8.14481 21.4863 8.09255 21.5385 8.04029 21.5982C7.98803 21.6505 7.94324 21.7028 7.89845 21.7625C7.82379 21.8371 7.76406 21.9118 7.7118 21.9865C7.58489 22.1432 7.46544 22.3 7.35345 22.4717L7.33105 22.4941Z" fill="#905B20"/>
<path d="M7.37591 22.4492L7.35352 22.4716C7.4655 22.2999 7.58495 22.1431 7.71187 21.9863C7.59242 22.1356 7.48043 22.2924 7.37591 22.4492Z" fill="#905B20"/>
<path d="M7.37584 22.4568C7.27879 22.6061 7.18173 22.7554 7.09961 22.9122C7.17427 22.7629 7.26385 22.6136 7.35344 22.4717C7.35344 22.4643 7.36837 22.4568 7.37584 22.4568Z" fill="#CA8C48"/>
<path d="M5.39739 44.6299C7.50271 47.661 10.7577 49.8783 14.2591 51.1549C18.4847 52.6854 23.0612 52.9616 27.5555 52.8272C30.8703 52.7302 34.2447 52.3942 37.3803 51.3639L37.6491 51.4237C35.7453 52.103 33.7595 52.3793 31.7587 52.6555C29.5862 52.9616 27.4137 53.1034 25.2262 53.0064C23.3075 52.9168 21.3963 52.7973 19.4926 52.5211C17.6635 52.2598 15.8792 51.9089 14.1546 51.2594C10.5039 49.9007 7.50271 47.661 5.14355 44.5776L5.39739 44.6299Z" fill="#F7F3E7"/>
<path d="M4.10596 33.3269C4.2926 33.1701 4.48671 33.0208 4.68081 32.8864C5.74094 32.1473 7.65215 32.2593 8.56296 33.0656C8.5555 33.0656 8.54803 33.0656 8.54057 33.0805C7.18181 32.3116 5.38259 32.4459 4.10596 33.3269Z" fill="#F7F3E7"/>
<path d="M7.08494 48.5045C5.82324 47.2951 4.76312 45.8691 3.94189 44.3237L5.1364 44.5776H5.14387C7.50302 47.6609 10.5042 49.9006 14.1549 51.2593C15.8795 51.9089 17.6638 52.2597 19.4929 52.521C21.3966 52.7973 23.3078 52.9167 25.2265 53.0063C27.414 53.1034 29.5865 52.9615 31.759 52.6554C33.7598 52.3792 35.7457 52.103 37.6494 51.4236L39.5681 51.8267C38.8514 52.1104 38.1197 52.3717 37.3806 52.5957C35.4321 53.2079 33.4313 53.6484 31.4081 53.9097C30.1016 54.0814 28.7876 54.1784 27.4737 54.2755C26.2941 54.3576 25.1145 54.4472 23.9275 54.4397C20.7844 54.4322 17.6713 53.7827 14.7149 52.7375C11.9526 51.7521 9.22759 50.5576 7.08494 48.5045Z" fill="#CA8C48"/>
<path d="M3.99416 33.4163C3.88217 33.5058 3.77019 33.6029 3.6582 33.6925C3.76272 33.5805 3.87471 33.4909 3.99416 33.4163Z" fill="#352313"/>
<path d="M4.93467 44.3089C4.33741 43.51 4.00146 42.5843 3.65804 41.6585C3.59831 41.4868 3.54605 41.3151 3.48633 41.1509C3.78495 41.6138 4.00146 42.1363 4.2329 42.6365C4.56138 43.3383 4.9496 44.0028 5.39754 44.6299L5.14371 44.5776H5.13624L4.93467 44.3089Z" fill="#F7F3E7"/>
<path d="M3.39697 33.9091L3.64334 33.7075C3.57615 33.7598 3.50896 33.827 3.44923 33.8942C3.4343 33.9016 3.4119 33.9091 3.39697 33.9091Z" fill="#F7F3E7"/>
<path d="M45.7273 25.0473C45.6302 25.5699 45.787 25.9955 46.1155 26.4136C46.4141 26.8018 46.8247 26.7943 47.2055 26.9138C47.086 27.1303 46.8994 27.3617 47.1532 27.5857C47.3996 27.8171 47.6385 27.6454 47.8699 27.5035C47.9147 27.4737 47.9595 27.4363 48.0043 27.3916C48.6314 26.8167 48.9076 25.8238 48.5642 25.0473C48.2208 24.2709 47.4966 24.0021 46.7202 23.8976C46.3768 23.8528 46.0184 23.8902 45.7198 24.1141C45.3465 24.3978 45.3465 24.7338 45.7273 25.0473ZM31.6993 26.4882C30.6093 27.4438 30.0643 28.6458 30.236 30.1091C30.3629 31.2364 30.7511 32.2816 31.6918 32.9609C32.6474 33.6478 33.715 34.1032 34.9468 33.924C35.5142 34.2226 36.0517 33.939 36.6042 33.8494C37.7838 33.6403 38.6722 32.9759 39.3441 31.9979C39.5457 32.2293 39.7249 32.1845 39.8518 31.9307C39.9264 31.7739 39.9787 31.6022 40.0235 31.4305C40.3669 30.0493 40.2251 28.6906 39.7622 27.3617C38.269 23.0839 33.6851 23.2556 31.6022 25.2116C31.4305 25.3758 31.0572 25.4803 31.1991 25.8088C31.326 26.1 31.6395 25.9059 31.871 25.9507C31.8038 26.1224 31.5499 26.2344 31.6993 26.4882ZM15.7974 30.1912C15.2151 30.6391 15.1031 30.9825 15.3718 31.7067C15.8048 32.8639 16.432 33.9016 17.3204 34.7602C17.828 35.2529 18.4178 35.6411 19.1569 35.6859C20.3813 35.7456 21.2175 35.0887 21.7998 34.0733C22.2626 33.267 22.5239 32.3786 22.7479 31.4753C22.8823 30.9378 22.7628 30.5197 22.2925 30.221C22.4269 30.0269 22.2552 29.9224 22.1581 29.8179C21.9192 29.5715 21.6206 29.4073 21.307 29.2878C19.5302 28.6234 17.828 28.8175 16.1856 29.7432C16.0064 29.8403 15.8422 29.9597 15.7974 30.1912ZM3.3969 33.9091C2.79218 34.0957 2.14267 33.4611 2.14267 32.8191C2.1352 32.1472 2.59807 31.5723 3.12814 31.1617C3.65073 30.7511 4.25545 30.4525 4.74072 29.9971C6.44289 28.377 5.98002 25.5625 6.8759 23.39C6.94309 23.2257 7.01775 23.0689 7.09987 22.9122C7.18199 22.7554 7.27905 22.6061 7.3761 22.4567C7.62247 22.2104 7.8763 21.9789 8.12267 21.7326C9.43663 20.4112 10.9671 19.4705 12.7514 18.933C14.8418 18.3058 16.9994 18.1715 19.1569 18.0819C21.643 17.9699 24.1141 18.164 26.5853 18.4999C28.5114 18.7538 30.4226 19.0599 32.3264 19.4779C35.2007 20.12 38.0451 20.8964 40.8074 21.9416C41.2478 22.1059 41.6585 22.3672 42.1437 22.4045C42.1288 22.4344 42.1213 22.4642 42.1213 22.4941C42.1064 22.5239 42.1064 22.5613 42.1064 22.5911C42.084 22.718 42.084 22.845 42.0989 22.9644V22.9868C42.1064 23.0391 42.1213 23.0913 42.1363 23.1361C42.1587 23.2033 42.1885 23.263 42.2259 23.3153C42.3005 23.3974 42.3976 23.4422 42.5319 23.4198C42.7037 23.3974 42.8231 23.2481 42.9351 23.1137C44.3088 21.4041 46.7874 20.5306 48.818 21.3668C50.7815 22.1731 51.9462 24.5471 51.3862 26.5927C50.8188 28.6383 48.6015 30.0867 46.5037 29.7731C46.8172 30.5197 47.6534 30.8631 48.3477 31.2886C48.9076 31.6395 49.4078 32.08 49.8259 32.5951C51.0055 34.0509 51.543 36.0443 51.1249 37.8808C50.4829 37.5523 49.8931 37.1417 49.378 36.649C49.0569 36.9775 49.1764 37.5075 49.3182 37.948C49.9379 39.8443 50.5501 42.0093 49.5721 43.7563C49.3481 44.152 49.0495 44.5029 48.7509 44.8538C47.7355 46.0557 46.7127 47.2577 45.5331 48.2954C43.7862 49.8259 41.7331 50.9681 39.5755 51.8267H39.5681L37.6494 51.4235C38.1347 51.2518 38.6199 51.0503 39.0903 50.8114C40.5013 50.1096 41.9496 49.5123 43.1964 48.5045C44.2789 47.631 45.1972 46.6381 45.772 45.339C45.8392 45.1897 45.9139 45.0404 45.9885 44.8911C45.9885 44.8911 45.9886 44.8762 45.996 44.8762C46.1603 44.6149 46.317 44.3461 46.4738 44.0848C46.6978 43.6966 46.9218 43.3084 47.1084 42.8978C47.198 42.838 47.3025 42.8455 47.4518 42.95C47.5862 43.0545 47.6235 42.9724 47.6459 42.853C47.6683 42.6738 47.6982 42.5021 47.7131 42.3304C47.8102 41.33 47.519 40.4117 47.2055 39.4859C46.6605 37.8958 45.6601 36.7087 44.2416 35.8651C42.3528 34.7378 40.3818 34.5138 38.3362 35.3276C37.9854 35.4619 37.6494 35.6113 37.2985 35.7232C37.2463 35.7083 37.194 35.6859 37.1417 35.6635C37.1119 35.2081 36.9028 35.0663 36.4474 35.2156C35.5142 35.5366 34.5885 35.9323 33.5657 35.6337C33.4089 35.5889 33.2521 35.6934 33.17 35.8502C33.0804 36.0144 33.1252 36.1637 33.2372 36.3056C33.4462 36.5594 33.7075 36.761 34.036 36.8058C34.3944 36.8655 34.3645 37.0297 34.2376 37.291C33.8419 38.1048 33.2596 38.7468 32.4981 39.2246C30.6391 40.3968 28.5711 40.8148 26.421 40.9044C23.9872 41.0015 21.7699 40.0907 19.5302 39.3068C19.0076 39.1276 18.5447 39.0753 18.0595 39.2769C17.5443 39.4934 17.0516 39.7398 16.5514 39.9861C15.6107 40.449 14.6178 40.6954 13.5875 40.4938C10.8924 39.9637 9.10067 38.0077 9.26492 35.0215C9.32464 33.9016 9.6606 32.9759 10.6685 32.3936C10.982 32.2144 11.2732 31.9829 11.5643 31.759C12.7812 30.8183 13.6697 29.6537 13.9608 28.0859C14.2221 26.6898 14.1101 25.346 13.371 24.1216C12.5722 22.8002 11.6017 22.621 10.4744 23.5393C9.09321 24.6591 8.22719 26.0776 8.12267 27.9067C8.07041 28.8026 8.08534 29.6984 8.38397 30.5645C8.45116 30.7586 8.51835 30.99 8.80951 30.8258C8.97376 31.0945 9.12307 31.3708 9.34704 31.5873C9.34704 31.5947 9.35451 31.6022 9.36197 31.6022C9.41423 31.6843 9.47396 31.759 9.54115 31.8336C9.54115 31.8411 9.53368 31.856 9.52622 31.8635L8.67513 32.9833L8.6602 32.9983C8.6602 32.9983 8.60047 33.0431 8.56314 33.0655C7.65233 32.2592 5.74112 32.1472 4.681 32.8863C4.48689 33.0207 4.29278 33.17 4.10614 33.3268L3.99415 33.4164C3.8747 33.491 3.76272 33.5806 3.6582 33.6926L3.64327 33.7075L3.3969 33.9091Z" fill="#CA8C48"/>
<path d="M3.0459 40.6057C3.21014 40.5983 3.32213 40.755 3.38932 40.9118C3.41918 40.979 3.44904 41.0537 3.47144 41.1283C3.37439 40.9865 3.26987 40.8521 3.15042 40.7177C3.11309 40.6804 3.08323 40.6431 3.0459 40.6057Z" fill="#352313"/>
<path d="M3.02348 18.1416C3.17279 18.388 3.3893 18.3731 3.6282 18.2387C3.96415 18.052 4.32997 17.955 4.70325 17.8878C5.18852 17.7982 5.30797 17.8803 5.36023 18.3581C5.40503 18.6941 5.43489 19.0301 5.46475 19.366C5.48715 19.687 5.31544 19.8289 5.01681 19.7393C4.13586 19.4556 3.39676 18.9927 2.8667 18.2611L3.02348 18.1416Z" fill="#F3B62C"/>
<path d="M2.86662 18.2611C2.75464 18.1192 2.66505 17.9699 2.57546 17.8131C2.34403 17.4025 2.36642 17.0516 2.67252 16.6858C3.32203 15.9168 4.21044 15.6033 5.11379 15.3046C7.60732 14.4909 10.1457 14.0429 12.781 13.9384C15.3194 13.8488 17.8428 13.707 20.3811 13.8414C22.24 13.9384 24.1139 13.9086 25.9579 14.1848C31.1914 14.9687 36.3726 15.9766 41.3148 17.9848C42.5616 18.4925 43.7337 19.1345 44.9805 19.8139C44.3907 20.1573 43.8457 20.4112 43.241 20.5232C43.1141 20.553 43.017 20.4784 42.9125 20.441C41.9942 20.1499 41.1207 19.7318 40.2622 19.3062C38.6944 18.5447 37.0221 18.1341 35.3498 17.7683C32.5576 17.1561 29.758 16.5589 26.9135 16.2229C22.9941 15.7526 19.0522 15.5361 15.1029 15.6705C13.3036 15.7302 11.5044 15.8272 9.71264 16.0512C7.86116 16.2901 6.00221 16.5663 4.20298 17.1188C3.86702 17.2233 3.55346 17.3726 3.2623 17.5817C3.07566 17.7235 2.84423 17.8579 3.0234 18.1416L2.86662 18.2611Z" fill="#F3B62C"/>
<path d="M2.6874 40.0908C2.75459 40.2849 2.9039 40.4491 3.04575 40.6059C3.01589 40.6059 2.98603 40.6134 2.95616 40.6283C2.52315 40.7925 2.54555 40.5088 2.53062 40.2326C2.46343 39.18 2.80685 38.1796 2.9039 37.097C2.9039 37.097 2.95616 37.0672 2.98603 37.0522C2.88151 37.8436 2.77699 38.6424 2.67247 39.4413C2.6426 39.6578 2.62021 39.8892 2.6874 40.0908Z" fill="#F7F3E7"/>
<path d="M1.76168 41.457C1.62729 40.5387 1.5601 39.4786 1.799 38.5977C2.14243 38.1049 2.33653 37.4927 2.88153 37.1045H2.88899C2.88899 37.1045 2.89646 37.0896 2.90392 37.0971C2.80687 38.1796 2.46345 39.18 2.53064 40.2326C2.54557 40.5089 2.52317 40.7926 2.95618 40.6283C2.98605 40.6134 3.01591 40.6059 3.04577 40.6059C3.0831 40.6433 3.11296 40.6806 3.15029 40.7179C3.26974 40.8523 3.37426 40.9867 3.47131 41.1285C3.47878 41.136 3.47878 41.1435 3.48625 41.1509C3.54597 41.3152 3.59823 41.4869 3.65796 41.6586C4.00138 42.5843 4.33733 43.5101 4.93459 44.3089L5.13616 44.5777L3.94165 44.3238C3.75501 43.9879 3.5833 43.637 3.42652 43.2861C3.26228 42.9203 3.0831 42.5097 2.70982 42.338C2.47838 42.2334 2.19468 42.2334 2.00058 42.0617C1.83633 41.9124 1.799 41.681 1.76168 41.457Z" fill="#CA8C48"/>
<path d="M2.88184 37.1045C2.33684 37.4927 2.14274 38.1049 1.79932 38.5976C1.97103 37.963 2.29952 37.4181 2.88184 37.1045Z" fill="#F7F3E7"/>
<path d="M1.79928 38.5975C1.76195 38.6573 1.71716 38.717 1.67236 38.7692C1.75449 37.5001 2.03818 36.2832 2.53838 35.1111C2.72502 34.6706 3.17296 34.4317 3.32228 33.9688C3.34467 33.9464 3.37454 33.9315 3.39693 33.9091C3.41186 33.9091 3.43426 33.9016 3.44919 33.8942C3.50892 33.827 3.57611 33.7598 3.6433 33.7075L3.65823 33.6926C3.77022 33.603 3.8822 33.5059 3.99419 33.4164L4.10617 33.3268C5.3828 32.4458 7.18203 32.3114 8.54078 33.0804C8.54825 33.0729 8.55571 33.0729 8.56318 33.0655C8.57811 33.0655 8.58558 33.0804 8.59304 33.0879C7.89873 34.3197 7.61504 35.6411 8.00325 37.0073C8.93646 40.2549 11.0268 41.9795 14.573 42.0541C14.9015 42.0616 15.0434 42.1139 15.118 42.4648C15.3495 43.4726 15.7974 44.376 16.641 45.0255C16.8575 45.1897 16.9695 45.3988 17.0666 45.6601C17.2831 46.2274 17.5369 46.765 17.8505 47.2577L5.39773 44.6298C4.94979 44.0027 4.56158 43.3382 4.23309 42.6365C4.00165 42.1363 3.78515 41.6137 3.48652 41.1508C3.47906 41.1433 3.47906 41.1359 3.47159 41.1284C3.44919 41.0537 3.41933 40.9791 3.38947 40.9119C3.32228 40.7551 3.21029 40.5983 3.04605 40.6058C2.9042 40.449 2.75489 40.2848 2.68769 40.0907C2.6205 39.8891 2.6429 39.6577 2.67276 39.4412C2.77728 38.6423 2.8818 37.8435 2.98632 37.0521C2.95646 37.0671 2.9266 37.082 2.9042 37.0895C2.9042 37.0895 2.89673 37.0969 2.88927 37.1044H2.8818C2.29948 37.418 1.97099 37.963 1.79928 38.5975Z" fill="#F7F3E7"/>
<path d="M28.9891 54.8876C28.9891 54.8876 29.0264 54.8578 29.0488 54.8428C29.0115 54.8428 28.9667 54.8428 28.9294 54.8578C28.9518 54.8578 28.9742 54.8727 28.9891 54.8876ZM26.9808 12.9156C26.9136 13.2591 26.9808 13.4308 27.3989 13.4756C29.0712 13.6846 30.751 13.8638 32.4009 14.2147C36.5369 15.0882 40.4937 16.5141 44.3534 18.2237C45.3837 18.6791 46.4065 19.1793 47.5114 19.4406C47.7578 19.5004 47.8698 19.4705 47.8548 19.1943C47.825 18.8285 47.8474 18.4477 47.7802 18.0893C47.392 15.9467 46.8843 13.8414 45.8018 11.9152C44.7939 10.1235 43.6218 8.45863 41.9495 7.24173C40.322 6.05469 38.5899 5.08415 36.3204 5.14388C35.0512 5.13641 33.6551 5.35292 32.371 6.00989C30.1761 7.13721 28.683 8.92897 27.6378 11.1463C27.369 11.7137 27.1077 12.2885 26.9808 12.9156ZM17.1411 6.65941C15.7077 8.37651 14.976 10.4968 14.3564 12.6394C14.2892 12.8932 14.3788 12.9306 14.6102 12.9231C15.4986 12.8932 16.387 12.8932 17.2755 12.8634C19.9108 12.7962 22.5387 13.0351 25.1667 13.2292C26.0252 13.2964 25.8162 13.3337 26.0999 12.6095C27.0704 10.1533 28.2948 7.86885 30.3926 6.19654C32.2814 4.69594 34.4017 3.91204 36.8355 4.13601C37.5 4.2032 38.1569 4.30772 38.8214 4.42717C37.3208 3.12068 35.5887 2.39651 33.6253 2.2248C32.2591 2.11281 30.8928 2.2024 29.5565 2.50103C27.2048 3.02363 25.0248 3.89711 23.36 5.76353C23.2107 5.92777 23.024 6.13681 22.815 5.95017C22.5835 5.7486 22.7777 5.51716 22.927 5.34545C23.3749 4.81539 23.8676 4.33758 24.4201 3.92697C25.861 2.84445 27.4512 2.06055 29.2205 1.67234C29.0936 1.53049 28.9443 1.53049 28.8025 1.5081C28.0036 1.40358 27.2123 1.36625 26.406 1.42597C22.494 1.67981 19.5674 3.75526 17.1411 6.65941ZM9.80978 11.9227C9.60074 12.2363 9.39917 12.5722 9.42157 12.9828C9.4365 13.2068 9.51115 13.3412 9.77245 13.3113C10.7654 13.1844 11.7658 13.1172 12.7662 13.0874C13.132 13.0724 13.3037 12.8932 13.3933 12.5498C13.5949 11.8107 13.8487 11.0866 14.0428 10.3474C14.5878 8.33918 15.3568 6.4653 16.947 5.03936C16.2153 5.2036 15.6181 5.61421 15.0283 6.03976C12.8483 7.60755 11.2656 9.71287 9.80978 11.9227ZM2.57554 17.8131C2.66513 17.9699 2.75472 18.1192 2.86671 18.2611C3.39677 18.9927 4.13587 19.4556 5.01682 19.7393C5.31545 19.8289 5.48716 19.687 5.46476 19.366C5.4349 19.03 5.40503 18.6941 5.36024 18.3581C5.30798 17.8803 5.18853 17.7982 4.70326 17.8878C4.32998 17.955 3.96416 18.052 3.6282 18.2387C3.3893 18.373 3.1728 18.388 3.02348 18.1416C2.84431 17.8579 3.07574 17.7235 3.26239 17.5817C3.55355 17.3726 3.86711 17.2233 4.20306 17.1188C6.00229 16.5664 7.86124 16.2901 9.71273 16.0512C11.5045 15.8273 13.3037 15.7302 15.1029 15.6705C19.0523 15.5361 22.9942 15.7526 26.9136 16.2229C29.7581 16.5589 32.5577 17.1561 35.3498 17.7683C37.0222 18.1341 38.6945 18.5448 40.2623 19.3063C41.1208 19.7318 41.9943 20.1499 42.9126 20.441C43.0171 20.4784 43.1141 20.553 43.2411 20.5232C43.8458 20.4112 44.3908 20.1573 44.9806 19.8139C43.7338 19.1345 42.5617 18.4925 41.3149 17.9848C36.3726 15.9766 31.1915 14.9687 25.958 14.1848C24.114 13.9086 22.2401 13.9384 20.3812 13.8414C17.8428 13.707 15.3194 13.8414 12.7811 13.9384C10.1457 14.043 7.60741 14.4909 5.11387 15.3047C4.21053 15.6033 3.32211 15.9168 2.6726 16.6858C2.36651 17.0516 2.34411 17.4025 2.57554 17.8131ZM3.18773 20.2544C2.20226 19.6646 1.48556 18.8359 1.29145 17.6414C1.11974 16.5813 1.6946 15.8795 2.44863 15.3271C3.58341 14.4909 4.95709 14.1923 6.29345 13.8265C6.78618 13.6921 7.27892 13.5801 7.77165 13.4532C7.9135 13.4233 7.99562 13.3636 8.05535 13.2143C9.30211 10.1608 11.1387 7.57022 13.8338 5.62168C15.2224 4.62875 16.6931 3.93444 18.358 3.64328C18.5745 3.60595 18.7238 3.4865 18.8806 3.35212C21.4637 1.17961 24.4126 0.104549 27.7796 0.194137C28.8846 0.224 29.8626 0.582352 30.7809 1.15721C30.9899 1.29159 31.184 1.31399 31.4304 1.29906C35.1707 1.04522 38.4481 1.97097 40.867 5.09162C41.4344 5.81579 42.2631 6.2488 42.9499 6.83112C44.2564 7.9435 45.4509 9.17534 46.526 10.5192C47.6533 11.9302 48.1609 13.6099 48.5641 15.3494C48.8926 16.7605 49.1464 18.164 49.1464 19.6198C49.1464 19.799 49.2061 19.911 49.3928 19.9707C51.4682 20.7173 52.4537 22.3672 52.8046 24.4202C53.0957 26.1224 52.6553 27.7201 51.6922 29.1609C51.2816 29.7806 50.9531 30.012 49.8108 30.6093C51.7445 32.1696 52.2745 34.3794 52.5731 36.7013C52.6478 37.2687 52.6254 37.7987 52.3193 38.3139C52.058 38.7543 51.6922 38.926 51.2293 38.8738C50.9008 38.829 50.8784 38.9036 50.9456 39.2023C51.3936 41.2553 51.2965 43.2487 50.3036 45.1375C50.0721 45.5779 49.8482 46.0334 49.4824 46.3768C49.3554 46.4962 49.2061 46.6829 49.0643 46.6829C48.5566 46.6903 48.3849 47.0785 48.1833 47.4145C46.8619 49.5945 44.8088 50.8786 42.6587 52.0283C42.4497 52.1403 42.2481 52.2448 42.0391 52.3493C42.0391 52.3493 37.8583 55.0668 26.5851 55.7537C26.5851 55.7537 9.47383 57.2617 3.11307 45.6825C3.09068 45.6377 3.06828 45.6003 3.03842 45.5556C2.95629 45.4137 2.88164 45.2644 2.80698 45.1151C2.76219 45.0255 2.71739 44.9359 2.6726 44.8388C2.65767 44.8239 2.6502 44.8015 2.64274 44.7791C2.51582 44.5178 2.39637 44.2491 2.28438 43.9728C2.21719 43.8235 2.15747 43.6966 1.97083 43.6518C0.783783 43.3532 0.403034 42.4125 0.350775 41.4569C0.246255 39.4561 0.455294 37.4852 1.07494 35.574C1.1496 35.35 1.172 35.238 0.895769 35.1111C0.373172 34.8871 0.111873 34.2152 0.208927 33.5209C0.395569 32.1547 1.04508 31.0572 2.14254 30.2435C2.75472 29.7881 3.35944 29.3327 3.97163 28.8772C4.21799 28.6981 4.31505 28.4816 4.29265 28.1605C4.22546 26.9586 4.59128 25.8313 4.91977 24.7039C5.1736 23.8155 5.50209 22.9495 5.47223 21.9864C5.45729 21.5609 5.23332 21.3145 4.9123 21.1876C4.30758 20.9338 3.74766 20.5903 3.18773 20.2544ZM1.79911 38.5975C1.56021 39.4785 1.6274 40.5386 1.76179 41.4569C1.79911 41.6809 1.83644 41.9123 2.00069 42.0616C2.1948 42.2333 2.47849 42.2333 2.70993 42.3378C3.08321 42.5096 3.26239 42.9202 3.42663 43.286C3.58341 43.6369 3.75512 43.9878 3.94176 44.3237C4.76299 45.8691 5.82311 47.2951 7.08481 48.5045C9.22746 50.5576 11.9524 51.7521 14.7147 52.7375C17.6711 53.7827 20.7843 54.4322 23.9274 54.4397C25.1144 54.4472 26.294 54.3576 27.4736 54.2755C28.7875 54.1784 30.1015 54.0813 31.408 53.9096C33.4312 53.6483 35.432 53.2079 37.3805 52.5957C38.1196 52.3717 38.8512 52.1104 39.5679 51.8267H39.5754C41.733 50.9682 43.7861 49.8259 45.533 48.2955C46.7126 47.2577 47.7354 46.0558 48.7507 44.8538C49.0493 44.5029 49.348 44.152 49.5719 43.7563C50.5499 42.0094 49.9378 39.8443 49.3181 37.948C49.1763 37.5076 49.0568 36.9775 49.3778 36.649C49.893 37.1417 50.4828 37.5524 51.1248 37.8808C51.5429 36.0443 51.0053 34.051 49.8258 32.5951C49.4077 32.08 48.9075 31.6395 48.3476 31.2887C47.6533 30.8631 46.8171 30.5197 46.5036 29.7731C48.6014 30.0867 50.8187 28.6383 51.3861 26.5927C51.946 24.5472 50.7814 22.1731 48.8179 21.3668C46.7872 20.5306 44.3086 21.4041 42.935 23.1137C42.823 23.2481 42.7035 23.3974 42.5318 23.4198C42.3974 23.4422 42.3004 23.3974 42.2257 23.3153C42.1884 23.2631 42.1585 23.2033 42.1361 23.1361C42.1212 23.0914 42.1063 23.0391 42.0988 22.9868V22.9644C42.0839 22.845 42.0839 22.7181 42.1063 22.5912C42.1063 22.5613 42.1137 22.524 42.1212 22.4941C42.1212 22.4642 42.1287 22.4344 42.1436 22.4045C42.166 22.412 42.1884 22.412 42.2108 22.412C42.6139 21.7102 42.5542 21.4638 41.845 21.1727C40.5982 20.6725 39.329 20.2544 38.0375 19.9259C35.6709 19.3287 33.3266 18.6493 30.9003 18.3581C29.6162 18.2013 28.347 17.9923 27.0704 17.7907C25.861 17.6115 24.6366 17.6041 23.4197 17.5668C21.501 17.5145 19.5823 17.4174 17.6637 17.3652C16.1257 17.3279 14.5878 17.4548 13.0573 17.619C12.3332 17.6937 11.6389 17.8803 10.952 18.1341C10.1532 18.4253 9.54848 18.9479 9.02588 19.6422C8.35397 20.5306 7.75672 21.4564 7.33118 22.4941L7.35357 22.4717C7.26399 22.6135 7.1744 22.7629 7.09974 22.9122C7.01762 23.069 6.94296 23.2257 6.87577 23.39C5.97989 25.5625 6.44276 28.377 4.74059 29.9971C4.25532 30.4525 3.6506 30.7511 3.128 31.1617C2.59794 31.5724 2.13507 32.1472 2.14254 32.8191C2.14254 33.4612 2.79205 34.0957 3.39677 33.9091C3.37437 33.9315 3.34451 33.9464 3.32211 33.9688C3.1728 34.4317 2.72486 34.6706 2.53822 35.1111C2.03802 36.2832 1.75432 37.5001 1.6722 38.7693C1.71699 38.717 1.76179 38.6573 1.79911 38.5975Z" fill="#352313"/>
</svg>
