<svg width="970" height="718" fill="none" xmlns="http://www.w3.org/2000/svg"><path d="M170.376 154.336c16.329-41.055 62.848-61.099 103.902-44.77 41.055 16.329 61.099 62.848 44.77 103.903l-170.376 428.36L0 582.697l170.376-428.361z" fill="url(#a)"/><path d="M379.591 104.577c16.329-41.055 62.848-61.099 103.902-44.77 41.055 16.33 61.099 62.848 44.77 103.902L357.886 592.07l-148.671-59.133 170.376-428.36z" fill="url(#b)" fill-opacity=".52"/><path d="M538.219 222.556c18.37-46.187 70.704-68.736 116.89-50.366l22.301 8.87c46.187 18.37 68.736 70.703 50.366 116.89L561.095 717.019l-189.556-75.395 166.68-419.068z" fill="url(#c)" fill-opacity=".52"/><path d="M807.68 143.628c18.37-46.186 70.704-68.736 116.89-50.366l22.301 8.87c46.186 18.37 68.739 70.704 50.366 116.89L830.556 638.091 641 562.697l166.68-419.069z" fill="url(#d)"/><path d="M412.17 287.097c-5.547-2.676-10.861-5.509-16.002-8.655-13.643-8.326-25.317-18.687-33.569-32.57-1.75-2.942-3.157-6.072-4.516-9.218-.36-.814-.688-1.503-1.735-1.753-6.454-1.581-8.548-6.683-8.814-11.832-.562-10.846.563-21.473 3.938-31.819.391-1.22.547-1.831-.969-2.473-2.875-1.236-4.282-4.867-3.766-8.592 1.016-7.418 4.579-13.319 10.58-17.748 3.329-2.457 6.642-4.915 9.986-7.356 1.329-.97 1.86-2.144 1.75-3.866-.375-6.495 1.61-12.583 3.407-18.703 1.407-4.805 3.204-9.484 3.016-14.665-.093-2.332-1.281-3.647-3.031-4.351-3.329-1.346-6.392-3.224-9.439-5.024-5.376-3.177-9.268-7.669-10.346-14.148-.953-5.713 2.204-9.5 6.298-12.49 6.235-4.554 13.721-6.15 21.019-8.123 2.688-.72 5.392-1.361 8.095-2.003.751-.172 1.204-.516 1.516-1.299 6.845-16.528 16.863-30.52 31.6-41.037 7.548-5.4 15.612-9.14 24.691-10.72 1.188-.204 2.001-.862 2.86-1.566 14.096-11.738 30.24-17.53 48.634-17.06 6.016.157 11.377 2.082 16.378 5.212 1.156.72 2.203.83 3.563.736 20.425-1.362 38.303 3.63 51.54 20.518 3.079 3.913 7.611 6.245 11.377 9.422a145.237 145.237 0 0 1 19.519 19.94c6.173 7.637 8.939 16.7 11.142 26.105 1.782 7.623 3.188 15.229 3.188 23.054 0 .971.329 1.581 1.36 1.941 11.33 4.007 16.675 12.943 18.613 24.024 1.609 9.203-.829 17.858-6.064 25.637-2.25 3.333-4.063 4.601-10.299 7.825 10.549 8.452 13.456 20.378 15.097 32.93.406 3.099.297 5.947-1.391 8.733-1.438 2.379-3.438 3.318-5.97 3.005-1.781-.219-1.906.172-1.531 1.8 2.469 11.065 1.922 21.849-3.501 32.069-1.266 2.395-2.469 4.836-4.485 6.714-.688.642-1.5 1.612-2.282 1.628-2.781.047-3.704 2.144-4.829 3.975-7.22 11.77-18.409 18.688-30.177 24.932-3.719 1.972-7.548 3.757-11.502 5.243-2.532.955-2.625 1.425-.531 2.911 4.547 3.256 8.861 6.762 12.705 10.815.766.814 1.641 1.565 2.907 1.268 13.455-3.021 25.52 8.201 29.614 19.126 2.063 5.493 5.345 10.282 7.596 15.635 1.656 3.975 1.719 8.123 1.14 12.208-.609 4.304.875 8.279 1.329 12.505 1.672-2.676 3.235-5.4 5.016-7.998 16.722-24.541 39.851-38.846 69.2-42.931 12.221-1.705 24.113.11 35.631 4.398 11.299 4.211 19.581 12.255 26.911 21.458 9.611 12.067 14.049 26.043 15.487 41.193.891 9.375.875 18.782-2.047 27.687-5.783 17.686-11.737 35.387-22.364 50.991-5.547 8.138-12.252 15.181-20.316 20.816-27.473 19.219-57.588 32.303-90.484 38.83-9.33 1.847-18.816 1.847-28.271 2.113-2.797.078-3.453.845-2.906 3.662.547 2.817 1.531 5.525 1.844 8.389.218 2.113.109 4.132-.954 6.01-.297.517-.484 1.017-.281 1.581 1.063 2.989 2.157 5.994 3.235 8.983.297.83 1.016.611 1.625.611 19.738.188 39.445 1.221 59.198 1.048 24.833-.219 76.56.642 101.361 1.644 5.095.203 10.19.188 15.284.25 1.047 0 2.079.078 3.017.564 1.328.704 2 1.831 1.797 3.349-.188 1.393-1.047 2.363-2.391 2.676-.907.219-1.891.204-2.845.204-22.207.047-71.278-1.737-93.485-1.8-9.704-.031-19.425-.297-29.13-.031-16.643.453-33.271.14-49.883-.72-1.954-.094-2.673.203-2.829 2.394-.281 4.179-4.282 7.215-9.33 7.982-10.173 1.534-20.409 1.769-30.646 1.362-10.595-.423-21.128-1.722-31.661-2.942-8.846-1.033-17.628-2.27-26.317-4.304-3.439-.814-6.267-2.207-8.393-4.977-1.047-1.362-2.25-1.91-4.047-1.847-11.627.391-23.239-.219-34.85-.407-.859 0-1.75-.188-2.547.375-5.298 3.741-11.518 4.398-17.644 5.165-16.456 2.066-32.99 2.583-49.555 1.659-6.439-.36-12.878-.422-19.316-.704-2.985-.125-5.939-.501-7.548-3.6-.454-.876-1.204-.641-1.876-.532-14.112 2.473-28.239.798-42.382.219-12.002-.501-24.02-.595-36.022.094-5.407.313-10.814.344-16.222.579-5.719.235-45.148.564-50.883.814-1.344.063-2.72.11-4.032-.125-1.923-.345-3.235-1.55-3.001-3.647.219-1.956 1.594-2.817 3.501-2.911 4.922-.266 9.845-.673 14.768-.798 17.268-.407 68.215-1.643 85.499-1.08 9.861.329 19.691 1.424 29.568.97 6.188-.281 12.408-.172 18.581-.892 1.672-.188 2.422-.829 2.735-2.582.594-3.287 1.516-6.511 2.391-9.735.313-1.127.359-1.816-.938-2.426-2.531-1.205-3.563-3.459-3.703-6.229-.219-4.289 1.125-8.342 1.75-12.505.391-2.551.453-5.056-.406-7.544-.532-1.55-1.298-2.285-3.11-2.176-8.799.579-16.347-2.707-23.129-7.982-3.86-3.005-5.72-7.074-6.111-11.957-.828-10.345-.984-20.691-.766-31.052.016-1.001-.015-1.862-.937-2.519-3.782-2.677-4.939-6.402-4.36-10.893.718-5.525 1.156-11.097 1.969-16.606.844-5.728 3.891-8.123 9.736-8.389 4.047-.188 8.079-.626 12.111-.924.938-.078 1.626-.328 1.938-1.377 1.641-5.54 5.829-7.591 12.221-6.902 3.938.423 3.907.47 4.673-3.584.531-2.817 1.156-5.603 1.25-8.483.047-1.127-.266-1.455-1.422-1.596-3.579-.454-6.392.735-9.064 3.13-8.408 7.512-19.988 4.946-24.364-5.368-.734-1.738-2.172-1.972-3.438-2.551-18.66-8.436-30.068-22.554-33.068-42.931-1.063-7.184.625-14.211 4.813-20.268 1.844-2.676 2.079-4.915.781-7.841-4.016-9-7.829-18.109-11.736-27.17-.297-.689-.5-1.393-1.485-1.659-4.469-1.206-7.704-5.259-7.985-9.845-.079-1.33.14-3.287-1.141-3.584-1.563-.36-1.907 1.784-2.735 2.848-.375.47-.469 1.174-.656 1.785-3.345 11.394-12.096 16.558-23.739 14.195-3.672-.751-6.767-2.394-9.392-4.867-2.188-2.066-4.157-4.398-6.064-6.746-5.657-6.949-7.532-15.166-7.313-23.883.343-13.992 16.487-23.148 28.129-16.59 1.86 1.048 2.845.798 4.579-.595 3.47-2.802 5.564-6.746 8.892-9.626 4.048-3.49 8.705-5.462 13.8-6.557 5.204-1.111 10.439-2.066 15.799-1.816 8.424.392 16.019 3.365 23.161 7.622 8.048 4.805 15.205 10.956 23.457 15.463 1.906 1.049 2.172 2.489 1.375 4.414-.875 2.129-1.594 4.335-2.36 6.511-1.266 3.553-4.11 5.039-7.72 3.975-8.439-2.473-16.878-4.961-24.957-8.467-1.86-.814-2.501-.329-2.766 1.534-.282 1.987-.282 3.959-.266 5.963 0 1.189.781 1.831 1.516 2.567 3.422 3.38 5.97 7.043 4.344 12.286-.578 1.878.672 3.537 1.376 5.196 3.813 9.062 7.72 18.077 11.533 27.139.594 1.424 1.219 2.316 3 2.332 5.064.062 8.674 2.66 11.205 6.949 2.313 3.897 5.017 7.543 7.674 11.206 1.047 1.44 2.172 1.847 3.875 1.377 3.032-.845 5.642-2.488 8.283-4.069 1.375-.814 2.391-2.019 2.797-3.709.391-1.628 1.485-2.786 2.985-3.538.422-.219.829-.5 1.282-.626 6.735-1.862 11.517-6.542 16.299-11.221 5.455-5.337 10.955-10.659 16.597-16.152l.031-.016z" fill="#352313"/><path d="M363.74 182.595c-.468-1.549-1.859-1.565-3.078-1.784-4.282-.751-4.923-1.847-3.22-5.775 2.563-5.9 6.736-10.33 12.44-13.319 1.407-.736 2.876-1.393 4.173-2.269 2.719-1.832 3.203-4.758 3.485-7.748.89-9.375 2.563-18.577 6.282-27.295.563-1.315 1.219-2.582 1.844-3.881 6.501-8.515 14.878-14.462 24.801-18.328 8.47-3.302 17.347-4.476 26.317-5.352 8.799-.861 17.597-1.065 26.427-.924 9.705.157 19.331 1.237 28.942 2.473 24.536 3.13 48.509 8.702 71.872 16.809 4.11 1.424 8.267 2.802 12.127 4.868-.234 1.001-.515 1.987-.719 2.989-.187 1.002.047 2.019.954 2.504.969.501 2 .313 2.766-.657 2.453-3.13 5.188-5.885 8.736-7.873 4.782-2.676 9.673-4.977 15.284-4.538 9.017.704 16.721 3.678 20.363 12.708 1.453 3.6 3.531 6.918 3.688 10.987.406 10.784-5.329 18.766-15.956 22.084-2.876.892-5.782 1.815-8.877 1.424-.844-.11-1.609.078-2 .939-.422.908-.125 1.753.516 2.41.984 1.033 2.094 1.972 3.516 2.301 5.845 1.33 10.314 4.946 13.549 9.594 5.282 7.591 8.142 16.183 7.814 25.605-.125 3.506-.719 3.788-3.735 1.941-1.719-1.049-3.094-2.489-4.438-3.96-.704-.767-1.376-2.003-2.751-1.111-1.203.782-1.188 2.003-.812 3.208.843 2.739 1.781 5.447 2.609 8.186 1.907 6.229 2.876 12.615 2.048 19.094-.626 5.008-2.11 9.813-5.595 13.71-.719.799-1.532 1.393-2.688 1.252-1.61-.187-2.563.736-3.188 2.019-5.392 11.034-14.737 17.936-25.036 23.696-8.298 4.633-16.44 9.719-25.645 12.505-10.299 3.099-20.41 6.934-31.146 8.389-1.485.204-2.954.548-4.423.877-6.782 1.471-13.564.516-20.347 0-5.673-.423-10.892.751-15.721 3.74-8.033 3.396-16.175 6.495-24.411 9.359-1.25.439-2.5.376-3.672-.313-4.439-2.629-7.752-6.51-11.268-10.157-.453-.47-.328-1.221-.781-1.69-4.048-4.07-9.424-4.977-14.659-6.292-14.815-3.709-28.443-9.876-40.538-19.423-11.721-9.25-19.863-21.098-26.333-34.323a38.85 38.85 0 0 0-1.469-2.739c-.625-1.048-1.594-1.768-2.782-1.252-1.969.846-2.5-.313-3.063-1.784-2.094-5.54-1.5-11.284-1.266-16.997 1.11-3.114 2.72-5.932 5.001-8.326.485-.517.985-1.205 1.797-.814.829.407.516 1.236.407 1.925-.657 4.414-1.751 8.749-1.923 13.241-.078 1.925-.156 3.646 2.657 3.709 1.594.031 2.188 1.69 2.657 3.068 1.109 3.239 2.375 6.417 3.688 9.578 2.282 5.525 6.204 9.782 9.908 14.242 8.955 10.8 20.019 18.938 32.412 25.183 11.643 5.853 23.91 10.048 37.022 11.3 1.735.172 3.516.266 5.204.689 6.314 1.549 12.783 1.533 19.191 2.097 6.501.563 13.033.438 19.55.532 11.596.172 23.004-1.549 34.412-3.115 6.22-.86 12.44-1.69 18.519-3.474 5.157-1.503 9.877-4.022 14.831-5.947 5.657-2.207 11.205-4.664 16.143-8.186 6.33-4.523 12.784-8.937 16.534-16.199 2.376-4.601 4.892-9.124 7.236-13.741.985-1.925 1.782-4.163 4.641-4.21 1.001 0 .938-1.159 1.001-1.925.25-2.88.125-5.776-.547-8.562-2.845-11.816-8.705-21.348-19.894-27.217-7.627-3.991-15.472-5.039-23.817-3.74-2.469.391-4.735 1.283-7.017 2.269-1.86.798-3.672 1.988-5.876 1.518-1.531-3.02-1.703-3.083-4.938-2.019-.829.266-1.672.548-2.485.845-3.329 1.19-6.673 2.051-10.267 1.221-1.11-.25-2.595-.548-3.095.955-.469 1.409.891 2.05 1.766 2.801a4.142 4.142 0 0 0 1.672.893c3.095.766 2.735 2.535 1.563 4.711-2.61 4.851-6.517 8.388-11.33 10.971-7.595 4.1-15.737 6.339-24.285 7.387-7.033.861-14.003.626-20.91-.642-5.157-.954-10.111-2.817-15.112-4.397-3.407-1.065-6.83-2.16-10.143-3.522-2.985-1.221-5.798-.11-8.517 1.08-2.985 1.315-5.798 2.989-8.861 4.163-10.173 3.866-19.316 1.831-27.755-4.695-9.72-7.528-11.392-17.67-9.47-28.955.563-3.333 2.329-6.01 5.157-8.028 2.844-2.035 5.736-4.038 8.47-6.23 11.674-9.343 14.644-23.899 9.549-36.826-1.172-3.005-3.423-5.165-5.923-7.043-2.375-1.785-4.954-1.597-7.408-.173-4.922 2.865-8.72 6.903-11.564 11.801-4.673 8.045-4.72 16.7-3.079 25.511.235 1.253.672 2.505 2.094 2.974 1.813 1.659 3.157 3.694 4.657 5.603-1.75 2.661-3.125 5.635-6.094 7.262-4.845-3.146-10.096-4.006-15.722-2.833-3.313.689-5.891 2.63-8.408 4.727-1.281 1.064-2.281 2.676-4.266 2.661l.031.015z" fill="#CA8C48"/><path d="M363.74 182.595c2.485-1.972 4.86-4.085 7.454-5.869 5.814-4.022 16.409-3.396 21.363 1.111.344.767-.109 1.378-.39 2.035-6.001 14.133-1.594 30.347 10.923 39.284 5.751 4.101 12.44 5.932 19.457 6.48 1.11.078 2.219.031 3.344.031 1.391 0 2.204.657 2.626 1.972.531 1.581.969 3.193 1.563 4.758 1.406 3.74 3.563 6.949 6.735 9.375 1.407 1.08 2.188 2.457 2.735 4.085 2.266 6.839 6.517 12.333 11.877 16.997 6.079 5.274 13.346 6.464 21.019 5.65 5.97-.626 11.377-2.833 15.987-6.84 2.016-1.753 3.767-3.74 5.017-6.025 4.063-7.466 9.095-14.493 11.736-22.632 1.516-4.648 4.095-7.293 8.533-9.281 9.799-4.382 17.566-11.362 23.098-20.69.406-.689.828-1.362 1.078-2.129.719-2.16 2-3.725 4.266-4.445 2.47-.798 4.001-3.099 6.345-4.132 2.235-.579 4.329-1.534 6.47-2.363 11.205-4.382 21.957-3.177 32.256 2.895 7.767 4.57 13.221 10.972 16.19 19.595 1.719 5.009 3.298 9.97 2.782 15.354-.094.939-.25 1.894-.391 2.833-.094.657-.328 1.111-1.063.548-1.531-1.158-2.297-.188-2.953 1.064-2.079 3.944-4.376 7.794-6.204 11.848-3.173 7.027-8.142 12.38-14.097 17.122-6.813 5.431-14.721 8.655-22.425 12.458-12.706 6.276-26.349 8.092-40.054 9.985-11.846 1.644-23.739 2.395-35.678 1.879-10.471-.454-20.894-1.127-31.334-2.598-9.97-1.425-19.722-3.318-29.161-6.809-20.488-7.559-37.241-20.142-50.353-37.609-3.25-4.32-5.094-9.328-6.97-14.321-.5-1.346-.89-2.723-1.453-4.038-.422-1.001-1.235-1.94-2.391-1.518-2.375.877-2.219-.626-2.313-2.128-.359-5.713 1.5-11.144 2.032-16.997-3.407 2.332-4.345 6.26-6.736 9.077.485-6.855 2.001-13.428 4.735-19.751 1.032-2.379 3.47-3.694 4.282-6.182l.063-.079z" fill="#F7F3E7"/><path d="M517.017 444.734c-3.626 1.862-3.954 5.04-4.282 8.123-.281 2.708-.938 3.474-3.673 3.49-1.5 0-3.016.188-4.422-.657-.938-.564-1.829-.329-2.532.548-.734.907-.203 1.721.313 2.378 1.984 2.52 4.954 3.256 7.845 3.365 2.375.094 2.625 1.096 2.391 2.912-.063.469-.235.923-.328 1.392-1.001 5.15 1.062 8.906 5.907 11.05 6.22 2.77 12.861 3.756 19.503 4.883 8.736 1.471 17.519 1.487 26.317 1.409 11.862-.125 23.457-2.051 34.85-5.275 2.626-.751 2.641-.688 2.235 1.988-.563 3.694-1.641 7.262-2.547 10.877-.797 3.146-2.751 5.228-5.705 6.543-5.954 2.645-12.064 5.055-18.44 6.182-5.704.986-11.471 1.674-17.394 1.361-9.595-.516-19.253.079-28.88-.203-7.423-.219-14.909-.704-22.113-2.504-6.064-1.534-10.486-5.447-12.049-11.942-1.688-7.106-2.798-14.242-2.938-21.598-.266-13.272.469-26.544.125-39.816-.078-2.755 1.422-3.647 4.032-2.599 4.313 1.738 7.642 4.336 9.08 9.062 1.265 4.148 4.594 6.339 8.485 7.748 1.251.454 2.532.813 4.189 1.346l.031-.063z" fill="#553312"/><path d="M534.269 397.938c-.468-2.771-.375-5.51.563-8.186.485-1.393.61-2.801-.25-4.116-.438-.673-.313-1.331-.062-2.05 2.391-7.075 6.376-12.255 14.393-13.492 3.031-.469 6.141-1.471 8.626-3.756 2.141-1.956 4.923-3.083 6.939-5.352 1.516-1.706 2.922-3.365 3.579-5.541 2.219-7.419 7.345-12.489 13.408-16.84 5.001.297 9.83-1.393 14.862-1.159 7.158.36 13.362 6.323 13.487 13.46.234 12.787-4.985 23.101-14.253 31.553-3.375 3.067-7.563 4.648-11.877 5.869a244.624 244.624 0 0 0-5.704 1.721c-4.157 1.284-7.829 3.303-10.861 6.589-5.564 6.057-12.502 7.748-20.426 5.948-4.375-.986-8.454-2.676-12.439-4.695l.015.047z" fill="#CA8C48"/><path d="M438.175 464.188c-8.658-.391-16.722-.375-24.63-1.987-6.876-1.393-7.173-1.847-7.126-8.796.047-7.325.125-14.65.188-21.974.031-2.927.75-5.619 2.344-8.123.859-1.362 1.844-2.082 3.501-1.847 14.018 2.05 28.145 2.473 42.257 3.224 2.031.11 4.423 2.426 4.923 4.836.468 2.238.781 4.523.609 6.824-.516 6.589-.5 13.21-.625 19.814-.125 6.589-1.188 7.654-7.767 7.92a90.92 90.92 0 0 1-3.579.078h-10.08l-.015.031z" fill="#C3C3C3"/><path d="M558.18 477.883c-12.846.094-24.02-1.362-34.897-4.758-4.875-1.518-5.876-2.88-5.25-7.794.484-3.741.281-7.45.39-11.175.078-2.911.219-2.958 3.126-2.661 4.251.423 8.501.814 12.768.986 9.126.376 18.268.955 27.379.423 7.002-.407 14.018-.783 21.02-1.706 6.892-.924 13.783-1.69 20.55-3.318 2.063-.501 2.422 1.033 2.563 2.52.25 2.707-.734 5.337-.469 8.06.344 3.506-.547 6.965-.453 10.455.031 1.393-.922 1.627-1.907 2.019-5.938 2.316-12.174 3.427-18.409 4.46-9.205 1.503-18.456 2.771-26.38 2.489h-.031z" fill="#553312"/><path d="M366.459 480.669c.61-8.327.704-18.187.532-28.047-.094-5.525-.5-11.05-.485-16.59 0-5.9 1.391-11.613 2.204-17.404.187-1.393.234-2.817.609-4.226.657-2.488 2.204-3.552 4.782-3.161 3.173.485 6.064 1.815 9.018 2.927 1.234.453 1.641 1.048 1.172 2.504-1.376 4.398-1.985 8.921-2.063 13.569-.172 9.391.562 18.75.641 28.141.031 3.74.843 7.559 2.031 11.174 1.657 5.04 1.985 10.236 2.172 15.464.063 1.815-.156 3.631.391 5.446.391 1.331.031 2.301-1.578 2.896-5.626 2.066-11.44 2.269-17.316 2.175-1.094-.016-1.375-.689-1.578-1.69-.766-3.866-.313-7.763-.547-13.178h.015z" fill="#4F3213"/><path d="M534.27 397.937a8.6 8.6 0 0 1 3.875 1.065c3.829 2.097 8.017 3.208 12.237 3.615 5.344.501 10.752-.532 14.455-4.68 4.751-5.321 10.612-8.248 17.3-9.766 12.94-2.942 20.207-11.707 24.848-23.445 1.876-4.758 2.469-9.641 2.235-14.712-.266-5.556-6.282-11.66-11.846-11.832-3.641-.11-7.298-.204-10.861.892-1.719.532-3.407.36-5.032-.47 4.563-3.443 9.877-4.523 15.409-4.883 4.798-.297 9.283.626 13.018 3.991 4.313 3.882 5.204 8.968 4.844 14.337-.156 2.457-.437 4.93-.281 7.371.125 2.207-.109 4.304-1.11 6.245-4.86 9.516-9.798 19-17.971 26.215-3.767 3.319-7.861 6.136-12.721 7.716-2.11.689-4.189.83-6.33.658-1.375-.11-2.25.391-2.781 1.706-2.36 5.884-11.471 12.145-19.879 10.204-2.907-.673-5.845-.516-8.767-.141-.86.11-1.578.063-2.266-.36-3.454-2.113-6.017-4.992-6.892-9.015-.359-1.643-.922-3.177-1.453-4.758l-.031.047z" fill="#905B20"/><path d="M529.644 553.195c8.189-3.552 16.347-6.964 24.707-9.875 12.815-4.461 26.052-6.668 39.492-7.935 4.5-.423 4.86-.126 6.47 4.038 1.609 4.163 3.281 8.31 4.031 12.755.657 3.882.032 3.412-2.578 3.709-10.768 1.206-21.519 1.378-32.349 1.049-13.346-.407-26.458-2.927-39.773-3.756v.015z" fill="#CA8C48"/><path d="M576.184 120.085c-2.798-.094-5.126-1.58-7.642-2.52-15.112-5.65-30.615-9.844-46.352-13.303-10.361-2.269-20.816-3.928-31.334-5.321-13.487-1.784-27.005-2.833-40.585-2.254-11.783.5-23.567 1.205-34.99 4.617-9.737 2.896-18.113 7.982-25.286 15.135-1.407 1.393-2.876 2.754-4.298 4.116 2.329-5.603 5.595-10.596 9.268-15.416 2.844-3.725 6.157-6.574 10.517-8.17 3.719-1.346 7.533-2.348 11.486-2.77 8.377-.877 16.753-1.597 25.177-1.362 10.47.282 20.941.782 31.427 1.08 6.642.188 13.33.219 19.941 1.22 6.97 1.065 13.924 2.223 20.91 3.052 13.268 1.566 26.082 5.228 38.991 8.468a160.299 160.299 0 0 1 20.8 6.745c3.876 1.55 4.236 2.896 2.001 6.668l-.031.015z" fill="#905B20"/><path d="M527.44 404.667c3.845 0 3.97-.047 5.095 3.538.64 2.019 2.641 2.645 3.61 4.304.469.798.859 1.236 0 1.94-3.626 2.99-4.126 7.262-4.86 11.519-.594 3.459-.141 6.981-.876 10.408-.234 1.143-.578 2.082-1.766 2.191-3.86.313-7.72.298-11.564-.187-2.985-.376-4.266-2.63-5.314-5.165-1.359-3.271-2.453-6.699-4.36-9.719-1.453-2.301-3.375-3.898-6.094-4.571-2.657-.657-2.923-1.972-1.048-3.944 4.751-5.008 11.002-7.074 17.379-8.827 3.188-.876 6.469-1.549 9.814-1.471l-.016-.016z" fill="#553312"/><path d="M362.24 462.529c.203 8.984-.844 17.952-.469 26.951.047 1.19-.062 2.364.328 3.537.485 1.503-.078 2.301-1.797 1.972A38.977 38.977 0 0 1 351.05 492c-3.094-1.44-4.703-4.194-5.501-7.387-.89-3.616-1.312-7.294-1.5-11.034-.312-6.167-.812-12.317-1.375-18.468-.359-3.897 1.422-7.795 6.486-5.885 3.828 1.424 7.673 1.784 11.658.986 1.297-.266 1.422.579 1.422 1.565v10.752z" fill="#4F3213"/><path d="M311.591 340.123c-.391-4.743.078-9.375 2.281-13.679 3.688-7.184 11.455-9 17.8-4.07 5.173 4.023 8.127 9.469 9.611 15.777.063 3.38-2.141 5.728-3.938 8.185-2.031 2.786-4.719 5.071-8.283 5.087-5.782.047-11.033-1.597-14.549-6.683-1.031-1.503-2.032-3.037-2.954-4.633l.032.016zM443.175 547.076c-10.298 1.518-20.034 2.175-29.802 2.645-8.814.438-17.628.845-26.395-.579-2.75-.454-5.485-.892-7.704-2.849-.907-.798-1.329-1.502-.954-2.864.813-2.833 1.688-5.634 2.751-8.373 1.109-2.849 2.063-3.537 5.032-2.896 8.033 1.769 16.143 3.037 24.129 5.134 10.424 2.739 20.613 6.213 30.99 9.093.453.125.875.298 1.953.673v.016z" fill="#CA8C48"/><path d="M298.245 247.766c-1.001-1.518-1.954-3.083-3.032-4.554-3.251-4.523-7.658-7.309-13.331-8.483 1.938-2.817 4.657-4.273 7.439-5.509 4.454-1.988 9.111-3.193 14.081-2.911 4.204.234 8.423-.282 12.611.422 1.985.329 3.907.877 5.579 1.972 8.111 5.29 16.597 10.033 24.301 15.98.876.673 1.704 1.424 2.548 2.144.453 1.346-.422 1.331-1.266 1.143-1.094-.251-2.063-.83-3.032-1.362-5.766-3.208-11.674-6.135-17.972-8.154-4.61-1.471-9.204-1.706-13.549 1.017-1.86 1.158-3.485 2.567-4.469 4.523-1.173 2.317-3.001 3.412-5.501 3.553-1.469.078-2.876 1.049-4.392.251l-.015-.032z" fill="#C3C3C3"/><path d="M367.021 340.592c6.127 6.308 8.486 14.305 10.033 22.647 1.079 5.807 1.376 11.629.579 17.514-.188 1.377-.829 1.987-1.969 2.285-3.47.939-5.158.156-6.408-3.256-2.078-5.65-3.875-11.394-6.032-16.997-2.954-7.653-6.986-14.79-10.971-21.927-.812-1.455-1.5-2.958-1.844-4.617.907-.344 1.735 0 2.485.423 4.391 2.473 8.986 4.226 14.143 3.913l-.016.015zM764.419 371.706c0 8.295-.234 8.577-7.783 9.986-1.094.203-2.234.313-3.235.751-4.297 1.894-7.423-.532-10.626-2.77-1.235-.877-.907-2.317-1.188-3.49-1-4.32-1.797-8.687-2.688-13.038-.438-2.097.641-3.975 2.766-4.413 4.188-.861 8.376-1.691 12.58-2.379 3.423-.548 7.845 2.488 8.736 5.791.344 1.299.735 2.598.922 3.928.282 2.035.844 4.069.516 5.619v.015zM311.59 340.123c1.282.641 2.032 1.8 2.641 2.989 2.407 4.727 6.642 6.542 11.502 7.528 6.767 1.377 10.237-2.911 13.315-7.763.922-1.455 1.5-3.146 2.251-4.726 2.219 8.592.547 16.668-3.407 24.384-1.422 2.786-2.954 5.493-2.423 8.78.251 1.487.641 2.942.798 4.445.156 1.518-.235 2.598-2.157 1.69-2.235-1.048-4.407-2.175-6.142-4.006-8.048-8.561-14.065-18.202-16.096-29.988-.188-1.095-.188-2.206-.282-3.318v-.015z" fill="#905B20"/><path d="M361.771 438.536v3.334c0 3.553-.094 4.006-3.422 3.365-5.329-1.033-10.752-.376-16.05-1.346-2.203-.407-3.141-1.597-3.563-3.991-1.047-5.963.844-11.629 1.078-17.451.032-.955.547-1.487 1.485-1.487 5.141-.078 10.314-.219 15.299 1.393 3.845 1.236 4.798 2.473 4.658 6.448-.126 3.506 1 6.934.5 9.751l.015-.016z" fill="#4F3213"/><path d="M726.631 416.625c-1.828.047-4.125-2.442-4.188-4.476-.109-3.819-.484-7.607-1.016-11.379-.359-2.566.469-4.836 1.329-7.152.328-.877.812-1.221 1.703-1.362 3.36-.579 6.689-1.221 10.033-1.862 2.876-.548 5.97 1.44 6.408 4.319.703 4.539 1.375 9.094 1.828 13.664.172 1.8-1.281 3.052-2.688 3.928-4.204 2.629-9.064 3.224-13.393 4.32h-.016zM730.976 361.064c2.563.062 3.922.845 4.344 3.24.844 4.914 2.001 9.766 2.907 14.664.563 2.99-2.735 7.482-5.704 8.014-1.016.172-2.016.454-3.032.548-2.438.219-4.891 2.144-7.11-1.143-1.485-2.175-3.141-3.975-3.392-6.792-.312-3.459-.953-6.903-1.484-10.33-.328-2.082 2.125-5.791 4.141-6.214 3.251-.673 6.486-1.393 9.346-2.003l-.016.016z" fill="#905B20"/><path d="M715.129 383.053c0 .799.078 1.597 0 2.379-.468 3.976-1.562 5.118-5.422 5.744-1.563.251-3.126.579-4.704.72-1.344.125-2.751 1.221-4.064.141-2.188-1.815-4.485-3.537-4.829-6.761-.281-2.598-.906-5.165-1.234-7.763-.203-1.534-.719-2.989-.156-4.664.937-2.849 2.453-4.57 5.579-4.899 2.031-.203 4.063-.782 6.032-1.377 2.375-.736 4.36.219 6.36 1.205.641.313.891.892.985 1.534.672 4.57 1.36 9.124 1.453 13.741z" fill="#CA8C48"/><path d="M719.896 433.825c.391 2.395-.25 4.727-.422 7.106-.188 2.535-1.453 3.6-3.954 3.913-3.375.407-6.751.86-10.111 1.314-1.922.266-4.782-2.551-4.97-5.18-.281-3.96-.453-7.935-.515-11.911-.047-3.615 1.906-5.493 5.516-5.775 2.844-.219 5.657-.61 8.502-.908 1.047-.109 2.031.141 3.032.454 1.797.564 2.813 1.472 2.594 3.6-.266 2.457.703 4.883.344 7.387h-.016zM709.222 418.033c-2.219-.078-4.86.579-7.22-1.534-1.891-1.69-3.204-3.474-3.438-5.978-.219-2.442-.422-4.899-.5-7.356-.156-4.68 1.297-6.37 5.907-7.153 2.719-.454 5.454-.954 8.174-1.44 3.047-.547 5.094.799 5.407 3.804.422 4.022.828 8.044 1 12.082.219 5.243-2.11 7.56-7.236 7.591h-2.078l-.016-.016z" fill="#905B20"/><path d="M335.923 313c-2.641-.924-4.751-1.8-6.939-2.395-3.813-1.033-7.533-.516-10.955 1.456-1.61.923-2.297.532-3.063-1.033-2.188-4.508-4.345-9.015-6.298-13.617-.547-1.283-.344-2.066.813-2.77 4.485-2.708 8.923-5.478 13.674-7.7 1.578-.736 1.969.156 2.422 1.236 2.516 6.073 5.032 12.161 7.564 18.234.844 2.05 1.735 4.069 2.797 6.604l-.015-.015z" fill="#4E3314"/><path d="M764.872 387.138c-.594 7.466-2.016 14.18-5.11 20.456-.516 1.033-.188 2.629-1.469 3.083-1.923.689-3.939 1.331-5.97 1.503-2.297.203-5.923-3.631-6.079-5.948-.094-1.345-.079-2.754-.516-3.99-1.704-4.696.187-8.875 1.61-13.163.359-1.111.984-1.737 2.094-1.972 3.938-.845 7.876-1.753 11.814-2.551 2.594-.517 3.673.469 3.61 2.567l.016.015zM723.412 427.909c-.25-2.285-.219-4.366 1.891-5.994 1.047-.814 2.125-.986 3.25-1.19 4.267-.767 8.596-1.33 12.831-2.253 2.047-.454 2.328.532 2.406 2.003.157 3.568-.125 7.121-.625 10.674-.375 2.708-.812 5.29-2.203 7.685-.657 1.142-1.454 1.831-2.704 2.05-3.266.579-6.548 1.08-9.798 1.753-.969.203-1.469-.11-2.016-.751-1.735-2.051-2.97-4.226-2.735-7.106.187-2.285-.625-4.554-.313-6.855l.016-.016z" fill="#905B20"/><path d="M643.664 426.626c3.157-.814 5.829.469 7.751 3.631.391.626.688 1.189.719 1.956.141 4.054.641 8.076.485 12.145-.047 1.033-.079 2.051-.485 3.037-1.86 4.601-5.907 7.09-10.455 5.149-2.328-.986-5.188-3.13-5.657-6.261-.719-4.617-1.047-9.296-1.438-13.96-.219-2.504 2.766-5.619 5.267-5.666 1.109-.016 2.219 0 3.813 0v-.031zM674.56 440.227c.031 1.752.265 5.039-1.516 8.013-.703 1.174-1.5 1.909-3.001 1.894-1.578-.016-3.141.36-4.735.438-1.391.062-3.141 1.252-4.079.047-1.812-2.317-4.547-4.148-4.719-7.513-.156-3.02-.25-6.041-.5-9.046-.172-1.925.469-3.349 1.484-4.993 1.407-2.285 3.126-2.66 5.58-2.989 4.891-.657 8.345.423 10.345 5.29.781 1.894 1.125 1.753 1.156 8.859h-.015z" fill="#CA8C48"/><path d="M696.61 439.068c-.047.908.266 2.505-.281 3.725-1.11 2.473-2.204 5.134-5.782 5.087-2.032-.031-4.064.61-6.111.767-3.813.266-5.907-1.753-6.001-5.541-.062-2.457.109-4.93-.359-7.371-.282-1.44 0-2.708 1.156-3.897 1.266-1.331 1.704-3.209 2.204-4.962.422-1.471 1.297-2.05 2.766-2.05 2.141 0 4.266-.078 6.407-.423 2.25-.36 5.282 2.442 5.485 4.883.125 1.581-.031 3.209.235 4.758.25 1.518.156 3.021.297 5.04l-.016-.016z" fill="#905B20"/><path d="M685.202 371.659c1.547-.031 5.314 3.146 5.626 4.758.672 3.584 1.251 7.2 1.844 10.8.157.892.063 1.878-.562 2.488-2.313 2.238-3.86 5.54-7.814 5.54-1.407 0-2.813.454-4.22.658-2 .282-5.907-3.49-6.344-6.198-.376-2.269-.61-4.57-.969-6.839-.516-3.162 1.234-5.65 2.422-8.311.141-.313.563-.611.906-.689 3.079-.782 6.173-1.502 9.127-2.207h-.016z" fill="#CA8C48"/><path d="M259.613 258.268c4.673 5.306 7.157 11.472 7.642 18.546.187 2.63.109 5.181-.375 7.763-.282 1.487-.891 1.988-2.36 1.972-3.782-.047-6.954-1.533-9.674-4.006-4.938-4.508-8.392-9.907-9.611-16.59.344-.376.797-.579 1.266-.564 4.985.188 8.533-2.457 11.69-5.9.422-.47.797-1.002 1.422-1.237v.016z" fill="#5A5959"/><path d="M474.962 436.455c-.828 7.966-.218 16.011-.969 23.977-.343 3.678-2.234 4.961-5.938 4.601-5.22-.516-4.36-.97-3.938-4.679.39-3.475.453-6.965.609-10.408.219-5.275 1.344-10.533.328-15.87-.531-2.755.266-5.697-1.234-8.389-.532-.955.516-.877 1.094-.924 5.876-.579 9.923 3.084 10.048 9.062.016.877 0 1.753 0 2.63z" fill="#553212"/><path d="M689.968 353.144c-.109-1.361.454-2.738.313-4.022-.313-2.88 1.36-3.412 3.594-3.725 2.126-.297 4.236-.673 6.314-1.189 1.907-.47 3.485-.063 5.22.86 2.656 1.425 4.282 3.35 4.657 6.402.187 1.643.765 3.255 1.125 4.883.734 3.255-.594 5.399-3.782 6.166-2.094.501-4.251.783-6.251 1.503-3.219 1.174-6.032.861-8.517-1.565-2.297-2.223-2.438-5.212-2.766-8.123-.047-.391.062-.798.109-1.19h-.016zM683.358 420.131c-2.016.031-4.438-1.691-5.391-3.647-.907-1.878-1.5-3.756-1.594-5.869-.078-1.894-.532-3.772-.735-5.666-.281-2.786 1.157-4.711 3.876-5.165 2.735-.469 5.485-.907 8.236-1.252 3.203-.407 6.157 1.972 6.532 5.165.36 3.068.828 6.151.344 9.234-.734 4.727-2.344 6.182-7.017 6.652-1.422.141-2.844.36-4.251.532v.016z" fill="#CA8C48"/><path d="M755.292 349.075c.219 2.285-.578 3.522-3.016 3.803-2.828.313-5.61 1.018-8.407 1.534-3.861.704-7.064-1.315-7.986-5.04-.235-.923-.235-1.956-.672-2.77-2.001-3.819.344-6.839 1.672-10.063.203-.486.672-.626 1.125-.799 2.547-.892 5.095-1.799 7.642-2.692.985-.344 1.813-.125 2.61.611 4.485 4.179 6.595 9.422 7.032 15.4v.016z" fill="#905B20"/><path d="M665.636 362.958c.219 6.338-4.516 11.487-10.111 11.613-2.719.062-7.814-3.569-8.845-6.104-1.438-3.537-.907-7.106-.36-10.69.203-1.299.938-1.909 2.141-2.175 3.782-.861 7.564-1.722 11.33-2.677 1.016-.266 1.704-.031 2.235.798 1.922 3.021 3.97 5.995 3.61 9.266v-.031z" fill="#CA8C48"/><path d="M298.244 247.766c4.798-.422 8.345-2.238 11.424-6.511 3.782-5.227 9.939-5.399 15.878-3.693 6.829 1.956 13.033 5.399 19.3 8.623.844.439 1.703.846 2.547 1.284.766.407.985.031 1.016-.657 1.172 1.267.203 2.613-.375 3.427-.75 1.049-1.61-.376-2.375-.767-7.158-3.584-14.362-7.043-21.785-10.016-5.486-2.207-10.658 1.737-11.33 8.029-.391 3.724-.579 7.402.375 11.08.453 1.738-.125 3.178-1.673 4.07-1.859 1.064-3.797 2.003-5.688 2.989-.891.47-1.375.063-1.563-.767-1.344-5.9-3.579-11.503-5.782-17.106l.031.015z" fill="#5A5959"/><path d="M700.408 459.18c.141-2.802-.578-5.603 1.563-7.873.625-.657 1.188-1.126 2.172-1.236 4.235-.516 8.455-1.142 12.674-1.706 1.766-.235 3.298.798 3.454 2.238.594 5.838.813 11.691-4.454 15.949-.516.422-1 .719-1.688.751-3 .141-6.001.36-9.017.485-2.891.11-4.61-1.534-4.704-4.492-.047-1.424 0-2.864 0-4.132v.016z" fill="#905B20"/><path d="M669.856 389.189c.031 2.551-.297 4.319-1.235 5.963-.891 1.533-2.063 2.582-3.907 2.692-.797.046-1.578.109-2.375.156-1.844.11-3.876 1.268-5.501-.063-2.594-2.128-4.72-4.742-5.517-8.138-.375-1.612-.609-3.271-.891-4.914-.39-2.239 1.845-5.604 4.079-6.136 2.47-.579 4.939-1.158 7.408-1.706 2.36-.516 6.47 2.16 6.892 4.586.484 2.723.765 5.494 1.047 7.56z" fill="#CA8C48"/><path d="M667.184 475.113c1.922-.047 3.766-.501 5.422 1.377 2.063 2.332.266 4.57.438 6.808.125 1.534-.469 3.115-.766 4.664-.75 4.054-3.625 6.464-7.704 6.636-2.376.11-4.798.11-7.095.642-2.454.579-3.11-.971-3.36-2.551-.406-2.473-.5-5.009.141-7.528.39-1.534.562-3.115.765-4.68.203-1.534 3.251-4.836 4.798-4.993 1.266-.141 2.516-.094 3.782-.344 1.156-.219 2.375-.047 3.563-.047l.016.016z" fill="#905B20"/><path d="M559.352 435.453c-1.047-1.299-.953-2.708-.735-3.975.672-3.804.36-7.622.391-11.426 0-1.69.563-2.645 2.235-3.114 4.641-1.33 8.767-3.678 12.471-6.761 1.078-.892 2.031-2.051 2.75-3.256.719-1.189 1.657-1.534 2.798-1.221 3.063.83 6.11 1.691 9.095 2.724 1.75.594 2.657 2.253 3.516 3.772 3.032 5.384 4.016 11.3 4.423 17.357.094 1.424-.407 2.128-1.891 1.925-1.75-.251-3.657 1.267-5.11.266-1.594-1.096-.407-3.256-.704-4.915-1.312-7.59-6.266-11.863-13.533-11.613-.641.016-1.344-.109-1.813.407-.844.955-1.547.877-2.641.235-2.188-1.299-3.845.72-5.736 1.268-1.031.297-1.969 1.033-2.875 1.659-1.36.954-2.094 2.128-2.094 3.991-.016 4.225-.36 8.451-.563 12.693l.016-.016z" fill="#553212"/><path d="M622.941 371.19c-.047-.783.313-1.409.703-2.019.547-.877 1.298-1.675 1.626-2.629 1.922-5.588 6.563-7.216 11.642-8.405 1.673-.391 2.735.219 3.22 1.581 1.406 3.881 2.625 7.841 3.36 11.91.343 1.894-.594 3.365-2.251 4.367-2.656 1.612-5.454 2.848-8.579 3.208-1.251.157-2.501.407-3.751.611-2.641.422-4.423-.799-4.985-3.475-.36-1.706-.657-3.428-.985-5.133v-.016z" fill="#CA8C48"/><path d="M545.241 441.259c.375-3.568.578-8.263.453-12.959-.016-.876.047-1.752-.344-2.582-.516-1.111-1.36-1.769-2.579-1.815-1.25-.063-2.125.579-2.609 1.705-.469 1.096-.688 2.254-.719 3.459-.141 5.165-.344 10.33-.516 15.51-.031 1.112.156 2.207-1.641 2.192-1.781-.016-1.625-1.08-1.594-2.207.203-6.605.985-13.147 1.547-19.72.344-4.101 2.876-5.932 6.486-6.856 2.75-.688 5.532-.422 8.298-.391 1.297 0 1.594.751 1.453 1.894-.953 8.561-.578 17.169-1 25.761-.078 1.597-.641 2.16-2.141 1.941-.156-.015-.312 0-.469 0-3.146 0-4.688-1.972-4.625-5.916v-.016z" fill="#C3C2C3"/><path d="M663.964 421.304h-1.344c-4.625.079-7.657-2.754-8.048-7.496-.187-2.301-.437-4.586-.687-6.887-.188-1.69 1.609-4.335 3.297-4.57 2.907-.391 5.829-.767 8.752-.939 3.328-.203 5.907 2.035 6.188 5.243.344 3.85 1.219 7.7-.172 11.582-.703 1.972-1.578 3.146-3.875 2.848-1.157-.141-2.376.094-4.126.204l.015.015z" fill="#CA8C48"/><path d="M726.74 329.652c0 4.977-.515 5.666-4.328 6.495-1.626.36-3.251.673-4.876.986-3.829.72-8.017-1.753-9.408-5.603-.656-1.784-1.219-3.599-1.813-5.415-.922-2.739.297-4.993 3.126-5.697 3.907-.986 7.845-1.878 11.736-2.942 1.985-.548 2.985 0 3.376 2.019.734 3.725 1.969 7.34 2.203 10.173l-.016-.016z" fill="#905B20"/><path d="M622.348 427.017c4.735-.36 8.079 2.113 8.595 6.12.531 4.163.922 8.373 1.078 12.567.172 4.523-3.704 7.951-7.954 6.73-2.329-.657-3.986-2.942-4.829-5.399-1.297-3.788-1.204-7.826-1.954-11.707-.391-2.035-.516-3.866.406-5.948.844-1.909 1.782-2.582 3.689-2.363.547.063 1.109 0 .984 0h-.015zM704.8 333.721c-.297 2.051-.922 3.788-2.47 4.743-4.922 3.02-10.095 4.46-15.768 2.034-.969-.407-1.547-1.001-1.86-1.987-.718-2.27-1.531-4.523-2.281-6.777-.782-2.348-.031-3.772 2.36-4.476 3.891-1.127 7.845-2.051 11.658-3.397 2.125-.751 3.766-.188 4.829 1.331 1.813 2.598 2.688 5.697 3.516 8.529h.016z" fill="#CA8C48"/><path d="M678.982 493.143c-1.25.234-1.547-.595-1.922-1.425-1.109-2.426-.828-4.93-.453-7.434.266-1.8.563-3.6.828-5.4.344-2.331 3.016-5.117 5.267-5.243a139.46 139.46 0 0 0 9.908-.954c1.766-.235 3.5 1.659 3.328 3.459-.265 2.989-.562 5.994-.812 8.983-.063.751-.125 1.456-.969 1.722-4.626 1.424-8.47 4.632-13.221 5.791-.688.172-1.282.657-1.969.501h.015z" fill="#905B20"/><path d="M343.987 378.389c-.969.157-1.532-.579-1.782-1.737-.765-3.662-1.203-6.996 1.376-10.517 3.672-5.024 4.672-11.175 5.282-17.31.047-.454-.172-1.065.391-1.253.734-.25.922.439 1.14.924 2.298 5.04 4.782 10.017 6.611 15.26.75 2.175 1.578 4.319 2.422 6.448.281.735.375 1.33-.281 1.925-4.235 3.772-9.252 5.666-15.159 6.276v-.016z" fill="#4E3314"/><path d="M637.381 400.379c-3.657-.485-10.267-4.961-10.033-9.469.11-2.238 1.032-4.445 1.704-6.636.265-.876 1.25-.908 2.016-1.048 3.047-.564 6.095-1.096 9.126-1.659 3.282-.611 6.08 1.392 6.705 4.679.609 3.256 1.015 6.401-.688 9.516-1.313 2.395-2.594 4.554-5.876 4.241-1.078-.093-2.188.266-2.954.36v.016zM669.434 358.622c.172-1.69.391-4.069.625-6.448.125-1.252.641-2.066 2.048-2.16.625-.031 1.234-.36 1.859-.391 2.626-.11 5.361-2.755 7.845.454 1.735 2.238 4.079 4.038 4.564 7.121.265 1.643.984 3.224.937 4.899-.109 3.083-2.313 5.697-5.251 6.417-.468.109-.922.219-1.391.328-7.016 1.706-11.752-2.3-11.22-10.22h-.016zM642.523 421.899c-6.314.125-9.564-2.739-10.393-8.655-.39-2.739-1.218-5.446 1.298-7.731.734-.673 1.328-1.205 2.375-1.284 2.766-.203 5.532-.516 8.283-.798 2.578-.266 5.938 2.598 6.141 5.196.141 1.894.375 3.788.5 5.697.188 2.755-1.14 4.962-2.953 6.808-1.594 1.628-3.845.251-5.267.799l.016-.032z" fill="#CA8C48"/><path d="M678.435 461.621v-3.349c.016-3.177 2.313-5.509 5.533-5.791 2.516-.219 5.016-.72 7.532-.892 2.766-.188 5.11 2.176 5.11 4.946 0 2.144.047 4.304-.062 6.448-.188 3.788-2.641 6.104-6.345 6.261a76.425 76.425 0 0 0-6.861.579c-3.172.422-4.688-.705-4.922-3.913-.094-1.424-.016-2.864-.016-4.304h.031v.015zM714.286 346.54c0-.799-.11-1.612.031-2.379.312-1.706.828-3.177 3.094-3.209 1.391-.015 2.829-.407 4.157-.876 2.782-.971 5.11.031 7.392 1.44 1.453.892 4.641 11.394 3.673 12.755-1.094 1.518-2.345 3.052-4.361 3.49a381.405 381.405 0 0 1-7.423 1.55c-1.609.313-4.657-1.268-4.922-2.739-.626-3.334-1.657-6.605-1.626-10.048l-.015.016zM674.607 461.23c.297 3.381 0 6.526-2.923 8.858-1.109.877-10.705 2.145-11.721 1.253-1.047-.939-2.125-2.066-2.625-3.35-1.5-3.881-1.469-7.857.188-11.754.328-.751.953-1.236 1.844-1.314 3.625-.313 7.251-.752 10.877-.971 3.094-.188 4.36 1.112 4.36 4.163v3.115zM444.832 291.354c3.595 3.803 7.064 7.701 11.377 10.752 1.516 1.08 2.907 1.362 4.642.705a3087.68 3087.68 0 0 1 21.378-7.935c.875-.329 1.829-.485 2.735-.72-3.86 3.913-8.064 7.277-13.112 9.625-3.063 1.424-5.797 3.537-8.704 5.275-1.157.688-2.376 1.267-3.61 1.799-2.204.955-4.282.83-6.251-.704-5.47-4.241-8.549-10.173-11.862-16.246 1.813-.281 3.985.204 3.423-2.551h-.016zM640.382 496.085c-.563 0-1.125-.094-1.672.016-1.766.344-2.235-.626-2.641-2.129-1.313-4.68-.094-9.328-.032-13.976.016-1.55 3.173-3.944 4.814-3.976 1.906-.047 3.813-.047 5.719-.047 3.11 0 4.876 1.769 4.595 4.868-.297 3.146-.828 6.292-1.782 9.312-1.015 3.256-5.094 5.869-9.001 5.932z" fill="#905B20"/><path d="M661.511 343.253c.062 2.645-2.47 5.9-5.189 6.558-3.391.813-6.814 1.518-10.174 2.488-1.734.501-2.844 0-3.985-1.205-2.156-2.301-2.125-5.681-.047-7.998 3.892-4.335 8.549-7.23 14.316-8.342 2.156-.422 3.313.188 3.766 2.332.422 2.019.859 4.038 1.313 6.167z" fill="#CA8C48"/><path d="M394.73 441.995c-.25-3.709.063-7.434-.344-11.175-.344-3.161.047-6.464 1.547-9.484.829-1.659 2.032-2.097 3.704-1.722.313.078.594.235.907.298 3.688.673 3.641.641 1.922 3.787-1.157 2.097-.844 4.555-.907 6.761-.14 5.869-1.094 11.739-.547 17.608.329 3.49.297 6.964.485 10.455.062 1.08-.078 1.22-1.094.939-3.516-.955-5.251-.986-5.345-6.042-.062-3.787-.125-7.606-.312-11.409l-.016-.016z" fill="#4E3213"/><path d="M564.259 428.128c.157-1.549-.187-3.177.516-4.679.531-1.143 1.438-1.753 2.641-1.628 1.282.141.844 1.361.953 2.097.329 2.254-.14 4.617 1.094 6.746.844 1.455 3.985 2.754 6.001 2.316 2.079-.454 2.532-2.082 2.47-3.819-.078-2.222-.438-4.429-.641-6.636-.172-1.815.562-2.379 2.219-1.69 1.391.579 2.391 1.534 2.735 3.067.938 4.054.797 8.045-.719 11.942-.344.877-.656 1.957-1.344 2.489-2.141 1.674-2.672 4.022-3.063 6.463-.453 2.802-2.672 1.049-4.001 1.503-1.422.485-1.156-.861-1.141-1.643.047-2.16-1.234-3.616-2.75-4.79-3.891-3.005-5.345-6.964-4.985-11.753l.015.015zM498.701 366.463c-6.532-.109-9.845-5.524-6.985-11.738 2.031-4.429 5.485-7.763 9.22-10.815.891-.72 1.891-.907 2.86-.219 1.016.72 1.047 1.722.515 2.77-1.562 3.146-.656 5.854 1.063 8.718 3.032 5.055-.813 11.378-6.673 11.269v.015z" fill="#C3C2C3"/><path d="M604.297 404.182c2.735-6.119 5.626-11.738 8.986-17.122.938-1.502 2.595-1.362 4.017-.516 1.562.939 3.078 1.956 4.579 2.989 2.75 1.909 3.094 6.965 1.172 9.61-2.001 2.754-4.626 3.365-7.689 3.615-3.595.297-7.173.892-11.065 1.409v.015z" fill="#C98C48"/><path d="M623.067 422.463c-5.236.046-8.846-2.536-10.143-7.153-.609-2.207-2.281-4.226-1.172-6.824.469-1.08.938-1.721 2.141-1.847 2.438-.25 4.876-.626 7.314-.876 3.938-.407 7.626 3.913 7.095 8.514-.203 1.784-.578 3.6-1.266 5.321-.812 2.019-1.781 3.6-3.969 2.865z" fill="#CA8C48"/><path d="M652.634 462.842c.219 1.409-.234 2.974-.578 4.508-.797 3.506-2.438 4.726-5.97 4.789-.719 0-1.453-.078-2.141.063-3.547.751-3.844 1.048-5.845-3.365-.844-1.847-1.641-3.772-1.656-5.901-.032-4.398 2.016-6.542 6.391-6.589 1.11 0 2.235-.016 3.345-.031 4.032-.063 6.47 2.332 6.438 6.526h.016zM619.784 486.303c-.297-2.567.25-4.914.344-7.293.047-1.409 1.047-2.16 2-2.786 1.798-1.174 8.111-.016 9.596 1.534.594.626.891 1.252.812 2.128-.328 3.146-.687 6.307-.922 9.453-.234 3.24-2.547 5.009-4.719 6.808-1.125.924-4.204-.234-5.079-1.455-1.875-2.583-2.61-5.4-2.016-8.389h-.016zM743.337 446.377c.219 1.299-.156 2.379-.953 3.35-4.22 5.165-9.643 8.999-14.628 13.319-.703.61-1.109.125-1.61-.298-1.406-1.173-1.75-2.801-1.906-4.476-.172-1.894.187-3.819-.297-5.712-.125-.501 0-1.033.469-1.253 1.516-.719 2.063-2.144 2.688-3.521.437-.97 1.156-1.362 2.219-1.534 3.829-.626 7.673-1.236 11.439-2.128 2.282-.548 2.985.078 2.579 2.238v.015z" fill="#905B20"/><path d="M480.698 444.937c-.032-6.197.14-10.877-.469-15.541a5.58 5.58 0 0 0-.657-2.019c-1.015-1.909-.75-2.41 1.438-2.598h.485c4.329-.141 4.375-.125 3.969 4.054-.172 1.784.547 3.443.469 5.196-.328 7.137-.422 14.289-.578 21.426-.047 2.582-.485 5.212-.328 7.825.109 1.816-.797 2.411-2.298 2.583-.625.078-1.281-.016-1.906.047-1.969.203-2.407-.376-1.876-2.426 1.704-6.574 2.063-13.288 1.735-18.547h.016z" fill="#553212"/><path d="M367.022 340.592c-3.251 1.158-6.345.454-9.345-.908-2.438-1.111-4.861-2.285-7.283-3.427-1.485-5.337-4.563-9.97-6.611-15.041-.703-1.737-1.484-3.412-1.375-5.462.078-1.377.61-1.189 1.407-1.064 1.859.313 3.391 1.518 4.094 3.036 4.298 9.391 12.049 15.839 19.113 22.866z" fill="#CA8C48"/><path d="M666.199 333.721c1.594-1.518 3.157-2.394 5.204-2.879 5.36-1.237 5.141-2.52 7.236 3.834.078.219.203.438.265.657.453 1.816 2.297 3.694 1.375 5.306-1.406 2.473-3.922 4.038-6.641 5.149-3.86 1.581-9.299-10.298-7.423-12.082l-.016.015z" fill="#C98C48"/><path d="M394.667 349.263c.047-2.817.469-5.494 2.438-7.747 1.313-1.503 6.142-3.131 8.048-2.567 1.844.548 2.032 1.424.625 2.817-.734.72-1.5 1.424-2.125 2.238-1.5 1.988-.594 4.492 1.86 4.774 1.844.219 2.188 1.111 2.109 2.692-.234 5.806-3.797 8.655-8.657 6.667-3.204-1.315-3.798-4.445-4.298-7.466-.078-.469 0-.954 0-1.424v.016zM267.286 257.689c-4.845-6.84-11.44-10.079-19.957-9.422 2.516-4.132 8.439-6.245 13.252-4.93 6.08 1.659 10.221 5.838 13.909 10.643.031.172.047.391-.062.453-2.282 1.3-4.704 2.317-7.142 3.272v-.016z" fill="#C3C2C3"/><path d="M632.959 462.983c.297 2.488-.532 4.445-1.626 6.339-2.094 3.615-5.235 3.865-8.423 1.205-3.672-3.068-2.985-7.184-3.016-11.003 0-1.455 1.922-2.895 3.719-3.099 2.094-.235 4.329-.422 5.814 1.737.344.501.922.924 1.484 1.174 1.782.752 2.642 1.91 2.048 3.647z" fill="#905A20"/><path d="M267.286 257.689c1.906-2.191 4.86-2.379 7.204-3.709 3.266 5.728 5.751 11.8 5.423 18.468-.141 3.02-1.313 6.151-4.407 8.138-.953-8.42-3.735-15.964-8.22-22.881v-.016z" fill="#5A5959"/><path d="M616.347 480.246c-.204 5.29-.376 10.048-4.189 13.726-1.094 1.064-5.266 1.518-6.376.517-.531-.486-.25-1.002-.125-1.534.813-3.631 1.61-7.262 1.704-11.034.062-2.63 1.797-4.727 3.125-6.855.75-1.221 2.219-.595 3.219.047 2.001 1.299 3.188 3.099 2.642 5.149v-.016z" fill="#905A20"/><path d="M390.901 457.114c-3.672-2.238-4.454-5.196-4.298-8.952.266-6.746.047-13.523 0-20.284-.015-2.974.923-5.791 1.641-8.608.454-1.753 2.048-1.362 3.188-1.033 1.454.422.329 1.283.141 2.05-.813 3.302-.938 6.62-.766 10.064.375 7.637.11 15.291.11 22.944v3.819h-.016z" fill="#4E3213"/><path d="M362.318 377.45c1.156 2.567 1.531 4.79 1.438 7.137-.157 3.678-4.173 7.716-7.846 8.186-4.813.626-7.532-2.035-9.892-5.556-.344-.517-.641-1.018.281-1.19 6.22-1.08 11.252-4.445 16.003-8.561l.016-.016z" fill="#5A5959"/><path d="M749.416 437.034c-1.562-1.409-1.562-3.287-1.656-4.915-.266-4.351 0-8.749-.516-13.1-.156-1.267.328-1.815 1.61-2.065 2.797-.564 5.548-1.268 8.298-2.004 1.203-.313 1.844-.015 1.422 1.205-2.469 7.168-4.313 14.634-9.158 20.894v-.015z" fill="#905A20"/><path d="M259.613 258.268c-2.938 4.069-6.283 7.481-11.784 7.559-.875 0-1.734.079-2.609.126-1.407-4.07-1.016-8.311-1.563-12.85 2.078 1.299 4.016 1.346 5.985 1.315 3.813-.047 7.173 1.142 9.955 3.85h.016z" fill="#C2C2C2"/><path d="M717.661 470.824c-5.204 4.461-10.236 8.28-15.596 11.66-.594.376-1.047.454-1.594-.235-2.001-2.566-1.016-8.561 1.797-10.251.375-.235.906-.282 1.36-.313 4.5-.282 9.001-.548 14.033-.845v-.016z" fill="#905A20"/><path d="M280.147 251.992c-1.375-2.551-3.313-4.664-5.36-6.683-.922-.908-.969-1.487.219-2.097.562-.282 1.203-.626 1.531-1.112 1.516-2.316 3.485-1.972 5.251-.704 3.001 2.16 6.501 3.741 8.689 6.934.672.751.047 1.173-.484 1.393-3.001 1.158-6.064 2.144-9.267 2.613-.25.032-.422-.172-.594-.328l.015-.016z" fill="#C3C2C2"/><path d="M321.592 279.913c.032.924-.547 1.174-1.141 1.44-4.782 2.097-9.72 3.85-14.19 6.605-.14.078-.328.235-.421.203-2.063-.86-2.173-2.942-2.829-4.664-.547-1.44.187-1.69 1.485-1.799 4.797-.439 8.798-2.99 12.799-5.338 2.047-1.189 2.781-.704 3.375 1.237.25.829.641 1.612.922 2.316z" fill="#595959"/><path d="M624.191 499.888c5.47.031 6.376 1.503 4.095 6.605-1.172 2.629-3.235 3.553-6.908 3.38-2.734-.125-3.532-2.347-4.344-4.178-1.125-2.505 1.344-5.603 4.297-5.807.954-.063 1.907 0 2.86 0zM376.68 334.77c3.141 2.833 5.063 6.464 6.532 10.33 1.454 3.819-.375 7.262-1.562 11.488-2.048-7.043-4.814-13.053-8.924-18.375.828-1.721 2-3.02 3.954-3.459v.016zM735.164 332.469c-2.219-.047-4.079-1.518-4.626-3.693a317.729 317.729 0 0 1-1.782-7.591c-.14-.673-.531-1.925.907-1.283 2.875 1.267 5.938 2.097 8.533 4.038 1.781 1.33 2.844 2.566 1.891 4.93-.954 2.394-2.47 3.646-4.923 3.584v.015zM634.068 508.856c-1.188-.062-1.969-.673-1.829-1.909.172-1.565.391-3.177.954-4.633.609-1.565 2.031-2.379 3.766-2.41 2.61-.047 5.235 0 7.845-.063 1.297-.031 1.657.282 1.203 1.628-1.281 3.897-3.641 6.464-7.891 6.918-1.329.14-2.704-.094-4.048.454v.015z" fill="#905A20"/><path d="M678.014 319.604c3.891-1.862 7.923-2.614 11.908-3.38 2.25-.423 4.563-.47 6.845-.705.453-.047.953-.313 1.156.36.204.658-1.828 4.242-2.594 4.461a2505.596 2505.596 0 0 1-11.642 3.349c-.454.125-1.094.344-1.329-.094-.937-1.768-2.875-2.426-4.344-3.991z" fill="#C98B47"/><path d="M596.312 437.707c2.078-.11 3.157.344 3.297 1.987.125 1.503-.031 2.708-1.891 3.303-4.266 1.33-8.657 1.706-13.033 2.316-.5.063-1.188.266-1.5-.36-.25-.516.297-.845.531-1.236.719-1.143 1.453-2.27 2.188-3.397.359-.532.781-1.033 1.453-1.142 3.188-.532 6.376-1.033 8.955-1.456v-.015z" fill="#553212"/><path d="M301.182 277.002h-1.156c-1.281.016-2.641-.188-2.625-1.706 0-1.534 1.375-1.627 2.656-1.674 3.907-.157 7.345-1.722 10.643-3.678 1.906-1.127 3.813-2.285 5.782-3.287.844-.438 1.938-.517 2.547.501.625 1.033.094 1.925-.828 2.394-4.657 2.301-8.595 6.042-13.956 6.981-1.093.188-2.141.563-3.063.485v-.016z" fill="#595858"/><path d="M670.168 498.417c-.109.861-.797 1.033-1.359 1.236-3.798 1.378-7.595 2.755-11.424 4.023-2.016.673-4.11 1.127-6.173 1.706-.719.203-1.422.36-2.016-.219-.688-.689-.047-1.393.187-1.972.86-2.113 2.548-3.475 4.72-3.788 4.454-.61 8.955-1.002 13.44-1.393.859-.078 1.875-.454 2.61.391l.015.016z" fill="#915C21"/><path d="M613.127 449.054c-.562-4.117-1.453-7.403-4.313-9.72-.844-.673-.656-1.565-.563-2.41.328-2.833.5-5.666.188-8.671 2.688 1.112 4.61 2.458 4.829 5.635.25 3.474.969 6.918 1.438 10.376.218 1.597-.501 2.896-1.579 4.805v-.015z" fill="#C88B47"/><path d="M297.807 266.986c.125 1.502-.907 2.097-2.047 2.598-1.219.532-1.516-.579-1.954-1.221-1.688-2.489-3.813-3.975-6.97-3.49-.531.078-1.156.25-1.406-.47-.25-.704 0-1.33.609-1.643a427.679 427.679 0 0 1 8.189-3.85c.594-.282 1.188 0 1.391.563.875 2.457 1.844 4.899 2.188 7.528v-.015z" fill="#595959"/><path d="M280.147 251.992c3.22-.908 6.439-1.831 9.674-2.692.594-.157.75-.438.656-.97 1.594 1.173 1.673 3.13 2.345 4.758.296.719-.204 1.549-1.001 1.94-.562.266-1.172.47-1.766.658-2.172.688-4.5 2.206-6.485 1.831-2.204-.423-1.938-3.835-3.438-5.541l.015.016z" fill="#5A5959"/><path d="M606.032 498.448c1.391.266 2.782.485 4.219.501 1.313.016 3.079-.109 3.517 1.315.468 1.549 0 3.302-1.219 4.601-.922.97-1.923 1.894-2.891 2.833-1.798 1.722-2.235 1.69-3.064-.579-.812-2.223-1.453-4.523-2.078-6.808-.328-1.205-.031-2.082 1.532-1.863h-.016z" fill="#905A20"/><path d="M604.063 408.048c1.719-.031 2.672 1.111 3.204 2.567.922 2.52 1.656 5.118 2.547 7.653.359 1.033.281 1.8-.61 2.52-1.218.986-2 1.362-2.422-.72-.734-3.584-2.172-6.949-3.86-10.189-.672-1.283-.562-1.972 1.141-1.831z" fill="#C78A47"/><path d="M613.096 456.66c1.813.36 2.75 1.174 2.969 3.13.219 1.988.235 3.944.203 5.916 0 .83-.218 1.816-.703 2.458-.812 1.08-1.594 2.879-3.172 2.394-1.516-.454-.313-2.081-.266-3.099.141-3.599.61-7.184.969-10.815v.016z" fill="#8F5A20"/><path d="M376.68 334.77c-1.313 1.158-2.642 2.301-3.954 3.459-2.11-1.863-3.923-4.038-6.455-5.822 1.985-.845 3.579-1.518 5.142-2.207.844-.376 1.36.094 1.844.642 1.157 1.299 2.282 2.629 3.423 3.944v-.016z" fill="#CA8C48"/><path d="M665.511 328.463c-.641-.313-1.875-.532-2.188-1.174-.437-.908.86-1.096 1.501-1.424 2.75-1.393 5.547-2.708 8.329-4.038.469-.219 1.032-.705 1.516-.219.484.469.344 1.126.203 1.784-.516 2.191-1.641 3.521-4.063 3.787-1.704.188-3.376.799-5.314 1.284h.016z" fill="#C68947"/><path d="M703.096 314.956h10.752c-5.548 2.723-7.376 2.692-10.752 0z" fill="#8A581F"/><path d="M637.053 349.717c1.188 3.052-.641 5.665-4.266 5.446 1.453-1.831 2.469-3.912 4.266-5.446z" fill="#C18645"/><path d="M619.941 375.823c.547 3.443-.735 5.446-3.798 6.213 1.078-2.144 2.125-4.116 3.798-6.213z" fill="#BD8444"/><path d="M659.12 328.557c.093 1.58-.579 2.113-1.594 2.347-.344.079-.782-.109-.735-.391.188-1.189 1.297-1.346 2.329-1.956z" fill="#946937"/><path d="M548.538 192.299c-1.86 2.395-4.313 3.991-7.064 5.134-1.016.422-1.734.923-2.219 1.972-5.954 13.037-16.3 21.301-29.193 26.716-1.437.595-2.125 1.377-2.578 2.754-2.235 6.668-5.22 12.991-9.002 18.922-.89 1.409-1.594 2.927-2.328 4.43-6.876 14.133-22.957 20.909-37.663 15.385-10.142-3.819-15.862-12.099-19.628-21.865-.547-1.393-1.157-2.52-2.36-3.427-4.579-3.506-7.064-8.358-8.298-13.836-.438-1.894-1.204-2.144-2.985-2.191-19.347-.423-30.771-9.751-35.882-27.311-2.141-7.372-.593-14.524 3.22-21.16 1.797-2.348 3.61-4.695 5.407-7.043 1.781-2.144 1.328-4.445.75-6.934-1.625-6.996-1.203-13.866 1.688-20.534 1.688-3.897 4.876-6.15 8.439-8.06.656-.344 1.578-.344 1.922-1.471-1.672-1.017-3.141-.391-4.595.485-6.532 3.897-9.876 9.892-11.236 17.201-.672 3.631-.5 7.293-.547 10.94 0 1.079.266 2.253-.641 3.161-1.578.908-1.969-.36-2.328-1.393-1.657-4.68-1.719-9.516-1.438-14.383.578-9.876 5.298-17.545 12.83-23.602 6.189-4.977 11.502-4.006 15.863 3.13 4.032 6.605 4.625 13.914 3.203 21.458-1.609 8.467-6.423 14.759-13.096 19.83-1.578 1.205-3.157 2.457-4.876 3.443-5.516 3.161-7.329 8.17-7.673 14.18-.906 16.152 8.892 26.716 23.598 29.611 5.626 1.096 11.064-.234 16.206-2.738 2.719-1.331 5.423-2.677 8.22-3.835 2.657-1.096 5.204-.83 8.048.157 12.206 4.241 24.317 9.155 37.616 8.639 11.752-.47 23.051-2.723 33.209-9.078 4.157-2.598 7.33-6.072 9.502-10.47.688-1.378.859-2.285-1.125-2.598-1.782-.266-3.22-1.331-4.36-2.739-.61-.736-.829-1.565-.36-2.442.453-.845 1.313-1.44 2.157-1.189 5.61 1.612 10.642-.517 15.768-2.238 2.657-.892 3.782.078 3.813 2.973l.016.016z" fill="#352313"/><path d="M536.504 182.361c-6.72.97-12.549-1.487-17.784-5.228-5.141-3.662-7.267-9.312-7.97-15.4-.906-7.936 2.047-14.415 8.001-19.596-.015-1.048.891-1.22 1.532-1.612 7.392-4.429 17.581-3.49 24.91 1.957 15.066 11.159 10.299 31.177-3.672 38.877-1.547.861-3.235 1.283-5.048 1.017l.031-.015zM467.398 162.327c2.563 1.628 3.204 3.866 2.47 6.777-1.219 4.883-2.626 9.688-5.158 14.039-3.203 5.494-7.751 9.046-14.471 8.702-4.016-.203-7.251-2.301-10.033-4.977-4.829-4.633-8.251-10.251-10.627-16.496-1.5-3.944-.891-5.791 2.329-8.217.922-1.189 2.297-1.643 3.61-2.222 10.267-4.523 20.316-2.739 30.302 1.048.672.251 1.297.611 1.563 1.362l.015-.016z" fill="#352313"/><path d="M536.504 182.361c8.689-1.878 16.05-10.205 17.238-19.517 1.125-8.796-3.47-17.279-11.799-21.645-7.892-4.132-15.644-3.96-23.176.939-.813-1.346.563-1.941.969-2.88 4.126-2.88 8.751-4.445 13.705-4.946 2.595-.266 5.251-.297 7.861.141 9.783 1.659 17.097 8.968 19.488 19.532 1.266 5.588 1.094 11.222.266 16.857a2.131 2.131 0 0 1-.485 1.079c-3.704 5.275-8.533 8.89-15.003 10.017-2.984.517-5.954 2.019-9.048.438l-.016-.015z" fill="#F6F3E7"/><path d="M560.556 171.906c-.126-3.96.718-7.873.406-11.864-.469-6.01-2.126-11.534-5.689-16.465-4.079-5.65-9.689-8.263-16.471-8.701-5.267-.345-10.283.563-15.05 2.848-1.281.61-2.672 1.017-4.016 1.518-1.25-.266-3.001.798-3.688-.767-.782-1.784 1.266-2.363 2.188-3.224 11.392-10.596 36.428-11.503 44.601 11.582 2.532 7.184 3.298 14.524 1.422 22.021-.234.923-.531 1.847-.953 2.692-.688 1.393-1.657 1.612-2.735.36h-.015z" fill="#352313"/><path d="M393.761 165.583c.188-4.68-.219-9.391.532-14.039 1.312-8.076 5.219-14.399 12.549-18.374 2.109-1.143 3.938-.877 5.516.923-.312.626-.875.767-1.391.939-8.204 2.849-11.486 9.312-12.408 17.326-.5 4.272-.438 8.608 1.125 12.724.922 2.426.578 4.32-1.719 5.697-1.938-1.299-3.063-3.287-4.219-5.212l.015.016z" fill="#F6F2E6"/><path d="M595.406 134.343c-2.063-1.69-2.079-3.505-.032-5.039 1.641-1.221 3.579-1.424 5.47-1.174 4.235.579 8.189 2.019 10.064 6.229 1.876 4.21.375 9.547-3.078 12.677-.235.219-.469.454-.735.611-1.234.735-2.547 1.659-3.907.438-1.391-1.236-.344-2.457.313-3.631.172-.689.484-1.33.844-1.941 1.687-2.848 1.484-3.725-1.157-5.728-1.594-1.221-3.485-1.409-5.36-1.722-.828-.14-1.782.094-2.422-.704v-.016z" fill="#201C17"/><path d="M467.399 162.327c-11.799-5.243-23.614-6.307-35.475-.188.234-1.22 1.141-1.878 2.11-2.425 8.954-5.009 18.268-6.057 27.973-2.442 1.719.642 3.345 1.503 4.626 2.848.547.58 1.469 1.143.766 2.192v.015z" fill="#F4F0E4"/><path d="M595.406 134.343c3.36.219 6.688.235 9.361 2.974 1.594 1.643 1.781 3.005.547 4.727-.594.813-.891 1.862-1.829 2.41-2.078-.673-4.344-.626-5.97-2.708-1.781-2.285-2.625-4.586-2.109-7.403z" fill="#905A20"/><path d="M459.663 413.291c-5.735 2.348-11.736 1.722-17.612 1.221-8.049-.689-16.113-1.237-24.161-1.784-2.485-.173-4.86-.72-6.907-2.223-1.688-1.878-1.469-4.116-1.094-6.338.484-2.849.703-5.4-1.938-7.685-2.297-1.988-2.469-5.04-1.954-8.013.485-2.771 1.516-5.353 2.72-7.873 1.625-3.365 3.25-6.73 4.86-10.11 2-4.195 5.204-5.603 9.111-3.099 3.719 2.394 7.626 2.238 11.627 2.457 1.313.078 1.813-.391 2.016-1.675.281-1.721.734-3.427 1.219-5.102.422-1.471 1.344-2.348 3.016-1.925 1.172.595 1.094 1.628.922 2.676-.109.626-.328 1.237-.484 1.847-.907 3.647-.829 3.772 2.891 4.461 4.813.438 9.642.907 14.455 1.33 2.063.188 4.11.031 6.158-.313 5.282-.876 8.298 2.238 7.36 7.638-.562 3.286-1.719 6.464-1.875 9.828-.078 1.91-.172 3.804-.25 5.713-.094 2.035-.547 3.944-1.922 5.525-.61.704-.813 1.549-.891 2.41-.469 4.962-2.797 8.702-7.267 11.003v.031z" fill="#352313"/><path d="M453.302 242.664c-11.392.188-18.722-7.106-20.659-18.468-.141-.814.281-.986.781-1.19 4.204-1.674 8.423-3.302 12.612-5.008 1.812-.736 2.062 0 2.187 1.643.438 5.635.407 11.3 1.485 16.888.109.547.203 1.095.328 1.643.235 1.064.829 1.753 1.985 1.628 1.36-.141 1.281-1.205 1.188-2.176a632.94 632.94 0 0 0-1-9.265c-.329-2.911.14-5.697 1.234-8.42.485-1.206 1.047-1.519 2.344-1.08 6.033 2.003 12.065 3.991 18.16 5.822 1.687.516 1.094 1.408.797 2.332-3.063 9.719-9.564 15.901-21.442 15.651z" fill="#F7F3E7"/><path d="M476.807 238.829c-.625 1.393-1.813 2.239-2.782 3.256-1.047 1.095-1.984 2.285-2.719 3.6-.703 1.267-1.125 2.645.359 3.584 1.548.97 2.532-.094 3.251-1.362 2.063-3.725 5.47-5.681 9.314-6.965 2.422-.798 4.845-.939 6.845 1.174 2.016 2.129 1.625 4.508.75 6.902-.609 1.659-1.438 3.224-2.719 4.445-7.017 6.714-15.284 10.518-25.114 10.142-6.938-.266-11.22-8.921-7.595-14.931.453-.751 1.094-.83 1.813-.876 6.345-.517 11.502-3.397 15.721-8.045.798-.877 1.579-1.487 2.876-.924z" fill="#F4ADAF"/><path d="M409.607 147.475c3.36-.032 6.111 2.645 6.142 5.963.031 3.505-2.672 6.291-6.095 6.26-3.344-.031-5.985-2.723-6.001-6.104 0-3.412 2.595-6.104 5.954-6.119zM539.802 169.433c-3.391.031-6.095-2.551-6.173-5.916-.094-3.459 2.641-6.229 6.11-6.229 3.391 0 6.017 2.629 6.048 6.041.016 3.396-2.594 6.073-5.97 6.104h-.015z" fill="#F7F3E7"/><path d="M448.458 160.778c1.891-.078 3.813-.251 5.626.532 1.11.485 1.953 1.236 1.735 2.535-.219 1.19-1.329 1.049-2.251 1.206-3.078.532-6.157.563-9.204-.157-1.094-.25-2.72-.423-2.642-1.894.079-1.518 1.454-2.16 2.938-2.207 1.266-.047 2.532 0 3.798 0v-.015z" fill="#F4F0E5"/><path d="M544.021 26.79c12.362-.33 21.832 4.898 30.74 11.315 9.126 6.59 15.518 15.573 21.035 25.277 5.907 10.408 8.689 21.77 10.814 33.367.36 1.941.235 3.976.375 5.948.11 1.518-.516 1.659-1.844 1.346-6.063-1.424-11.627-4.116-17.269-6.59-21.097-9.233-42.694-16.95-65.277-21.676-9.032-1.894-18.206-2.864-27.348-3.96-2.266-.266-2.625-1.205-2.25-3.067.672-3.38 2.125-6.495 3.594-9.563 5.688-11.957 13.862-21.677 25.833-27.75 7.032-3.568 14.627-4.726 21.597-4.679v.032zM421.062 346.712c9.83 2.613 19.816 3.318 29.958 3.114 6.095-.109 12.19.783 18.3.376 4.376-.297 8.658-.892 12.737-2.661 2.626-1.142 5.407-1.847 8.767-1.69-4.282 4.742-5.548 10.173-4.829 16.152-.234 4.852 2.985 7.747 6.533 9.75 7.657 4.336 15.44 3.444 21.269-3.912.578-.736 1.016-1.628 2.032-2.019.89 1.048.062 2.347.562 3.411.406 3.319.875 6.621 1.235 9.939.578 5.243 2.656 9.954 5.016 14.555-.078 1.049-.937.955-1.594 1.018-8.611.751-15.956 4.585-22.879 9.437-3.985 2.786-7.485 6.151-11.189 9.281-1.157.971-2.423 1.393-3.923 1.44-7.157.235-14.284-.782-21.441-.532-.828.031-1.813.047-2.157-1.064.063-.83.704-1.221 1.297-1.581 3.126-1.847 4.579-4.774 5.22-8.17.328-1.753.828-3.38 1.782-4.883.875-1.377 1.281-2.911 1.25-4.539-.094-4.492.562-8.874 1.719-13.209.547-2.097.891-4.21 0-6.323-.891-2.129-2.688-3.506-4.86-2.974-5.595 1.409-11.065 0-16.566-.422-1.734-.141-3.485-.188-5.204-.517-1.766-.36-2.156-1.502-1.844-3.13.188-.986.438-1.988.438-3.005 0-1.471-.5-2.614-2.219-2.692-1.438-.016-2.157.845-2.548 2.097-.14.454-.265.924-.375 1.377-1.312 5.071-1.312 5.056-6.438 5.071-2.829 0-5.423-.501-7.924-2.066-4.157-2.582-7.376-1.393-9.361 3.131-1.75 4.022-4.032 7.778-5.626 11.879-.609 1.565-1.14 3.146-1.531 4.773-.797 3.287-.094 6.214 2.297 8.577 1.547 1.534 2.266 3.115 1.751 5.321-.672 2.88-.657 5.791.375 8.64-.719 1.033-1.798.954-2.798.829-6.298-.798-12.564-1.768-18.628-3.74-1.688-.548-3.454-1.159-2.704-3.616.547-6.808 1.079-13.601 1.626-20.409.078-.97.172-1.909-.625-2.66-1.219-.47-2.516.109-3.735-.345 1.14-8.889 3.047-17.623 5.36-26.841 1.328 3.052 3.032 5.306 5.11 7.246 1.829 2.254 4.548 2.645 7.064 2.927 4.688.516 9.236-.125 12.705-3.866 1.266-1.361 2.016-3.02 2.501-4.82a55.978 55.978 0 0 0 1.359-6.777c.235-1.706.969-2.457 2.704-1.878h.031z" fill="#F3B62C"/><path d="M505.233 8.008c-9.673 2.113-18.331 6.323-26.223 12.177a48.486 48.486 0 0 0-8.142 7.669c-.813.954-1.86 2.19-.625 3.287 1.141 1.017 2.172-.126 3-1.018 9.096-10.063 20.988-14.806 33.819-17.623a73.777 73.777 0 0 1 22.254-1.471c10.72.908 20.175 4.836 28.364 11.88-3.61-.643-7.205-1.206-10.846-1.55-13.299-1.237-24.879 3.02-35.178 11.127-11.471 9.031-18.144 21.395-23.441 34.652-1.563 3.928-.438 3.71-5.126 3.38-14.347-1.048-28.693-2.363-43.102-1.972-4.844.126-9.704.157-14.549.313-1.281.047-1.766-.172-1.375-1.549 3.375-11.582 7.345-23.038 15.19-32.32 13.237-15.666 29.239-26.888 50.618-28.296 4.407-.282 8.736-.094 13.081.47.781.093 1.609.093 2.281.876v-.032zM390.479 501.312c-1.359-.626-1.594-1.189-.406-2.473 2-2.159 2.375-4.961 2.328-7.81v-3.239c1.313 1.737 2.282 3.02 3.282 4.288.438.564.938 1.237 1.766.908.953-.391.766-1.299.594-2.082-.703-2.989-1.969-5.822-3.798-8.185-3.422-4.429-2.906-9.97-4.719-14.822-.641-1.706-1.11-3.474-1.625-5.227-.204-.673-.532-1.44.218-1.972.61-.438 1.172-.047 1.751.266 10.095 5.399 21.05 7.356 32.318 8.326 9.548.83 19.081.485 28.614.36 5.064-.062 9.908.501 14.862 1.252 5.189.798 10.471.689 15.722.454 3.985-.172 3.985-.141 4.11 3.772.203 6.026.625 12.02 2.781 17.858-.718-.767-1.422-1.55-2.172-2.301-.609-.61-1.313-.923-2.141-.454-.891.517-1.063 1.346-.828 2.27.094.375.266.751.484 1.08 5.47 8.342 12.612 14.023 22.879 15.494 14.769 2.129 29.599 2.41 44.461 2.598.625 0 1.266.047 1.969.376-4.329 1.346-8.689 2.613-12.986 4.085-6.97 2.394-14.112 4.319-20.77 7.606-4.61 2.269-9.642 2.52-14.69 2.489-1.125 0-1.719-.611-2.328-1.362-1.719-2.097-3.454-4.163-5.189-6.245-1.781-2.238-3.875-4.194-6.079-5.963-5.141-4.132-10.58-7.841-16.503-10.815-1.984-1.001-3.828-2.269-5.735-3.412-1.219-.735-2.625-1.22-3.751-.078-1.984 2.019-3.875 1.19-5.813.11-.766-.423-1.469-.955-2.126-1.518-4.688-6.042-8.548-12.537-11.048-19.799-.672-1.925-1.501-3.803-3.704-4.492-.703.517-1.578.736-2.25 1.331-1.438 1.252-1.782 2.754-1.048 4.507.938 2.285 1.97 4.523 2.892 6.808.265.658.593 1.315.625 2.051.015.406-.047.845-.469 1.001-.438.157-.719-.203-.953-.532-.766-1.111-1.36-2.332-2.376-3.24-1.86-2.457-3.547-5.008-4.735-7.857-1.485-3.568-4.157-5.196-7.892-5.352-.594-.031-.953.062-.641.751 1.313 2.786 2.688 5.556 3.11 8.671.172 1.205.875 2.191 1.532 3.177 2.578 3.897 5.266 7.7 7.954 11.519.375.532 1.594 1.221.25 2.066-4.672-.986-9.236-2.379-13.815-3.741-1.719-1.22-3.11-.641-4.25.861-1.126 1.487-.907 2.958.297 4.335.859.986 1.984 1.566 3.109 2.16 8.283 4.257 17.035 7.403 25.583 11.05 1 .423 2.438.454 2.547 2.05-3.907-.015-7.642-1.158-11.47-1.737-8.439-1.268-16.722-3.302-24.942-5.494-6.611-1.752-13.221-3.411-19.894-4.883-1.141-.25-2.157-.469-2.97.611-2.109 1.455-1.297-.861-1.844-1.425l-.078-.031zM591.327 106.093c-3.235 1.847-6.22 3.224-9.502 3.835-.703.125-1.219-.251-1.813-.438-5.016-1.581-9.767-3.851-14.487-6.136-8.533-4.131-17.69-6.354-26.817-8.342-15.253-3.318-30.552-6.526-46.086-8.357-21.426-2.536-42.929-3.678-64.496-2.958-9.845.328-19.691.83-29.442 2.066-10.127 1.283-20.285 2.786-30.115 5.76-1.828.547-3.563 1.36-5.126 2.503-1.031.767-2.313 1.503-1.328 3.037.828 1.314 2.016 1.252 3.329.516 1.812-1.017 3.828-1.534 5.86-1.91 2.641-.484 3.282-.062 3.594 2.52.219 1.816.407 3.647.532 5.463.125 1.737-.813 2.504-2.438 1.987-5.72-1.815-10.346-5.008-13.331-10.376-1.234-2.223-1.141-4.132.547-6.104 3.548-4.148 8.424-5.87 13.346-7.45 13.612-4.398 27.489-6.84 41.883-7.387 13.846-.517 27.645-1.252 41.491-.532 10.158.532 20.379.36 30.459 1.862 28.598 4.226 56.9 9.688 83.889 20.534 6.798 2.74 13.237 6.229 20.051 9.907zM452.505 541.003c-12.705-2.066-24.957-5.963-37.319-9.375-10.314-2.848-20.55-5.978-31.271-6.886-1.734-.141-3.485-.298-5.219-.266-1.532.031-2.235-.532-2.157-2.066.141-2.88.422-5.822 1.61-8.373 1-2.176 3.469-3.131 5.657-4.117 4.329-1.174 8.283.72 12.33 1.644 7.205 1.659 14.206 4.1 21.301 6.182 10.095 2.958 20.425 4.805 30.755 6.698 4.454.814 5.439 1.941 5.485 6.543.016 1.909.063 3.818-.031 5.728-.078 1.502-.14 3.036-1.141 4.304v-.016zM597.624 518.951c.922 2.786 1.86 5.572 2.766 8.373.266.814.438 1.362-.953 1.378-22.473.172-43.82 5.477-64.324 14.461-3.11 1.362-6.204 2.817-9.548 3.584-.844.094-1.016-.626-1.329-1.142-1.937-3.131-3.313-6.543-4.704-9.923-.859-2.113-.578-2.645 1.688-3.209 5.72-1.392 11.487-2.723 16.894-5.102 6.407-2.817 12.752-5.791 19.456-7.888 8.095-2.535 16.3-4.32 24.864-4.022 4.048.141 8.095-.188 12.158.282 2.157.25 3.188 1.017 3.017 3.208h.015zM536.88 294.281c-3.235 4.648-6.736 8.968-9.315 13.898-4.907 9.359-10.033 18.64-11.658 29.33-.531 3.474-1.109 3.834-4.61 3.506-5.61-.548-11.205-1.205-16.8-1.863-1.531-.172-2.469-.688-1.844-2.645 2.532-8.044 5.095-16.058 9.346-23.414 3.109-5.384 7.345-9.719 12.095-13.616 1.923-1.565 4.235-2.41 6.689-2.942 5.282-1.143 10.752-.846 16.112-2.27l-.015.016zM419.468 300.338c.203 3.114-.422 6.401-1.344 9.61-1.86 6.542-2.641 13.24-3.235 19.97-.047.548-.094 1.111-.172 1.659-.578 3.428-.594 3.162-4 3.303-4.548.187-9.205-.298-13.55 1.846-2 .986-2.985.157-2.922-2.081.094-3.052.813-6.01 2.047-8.765 3.579-7.966 6.204-16.355 10.611-23.961 1.282-2.207 2.438-4.461 4.423-6.151 1.422-1.205 2.969-2.16 4.845-2.379 2.25-.251 3.641 1.064 3.578 3.333-.031 1.112-.171 2.223-.265 3.6l-.016.016zM438.206 26.195c-8.705 7.731-12.909 17.858-15.862 28.704-1.094 3.99-2.469 7.904-3.548 11.894-.515 1.879-1.422 2.849-3.422 2.927-5.486.172-10.955.532-16.394 1.205-1.422.172-1.828-.579-1.891-1.768-.125-2.207.969-4.022 2.11-5.728 7.97-11.974 16.612-23.352 28.505-31.788 3.235-2.3 6.501-4.523 10.502-5.43v-.016zM432.908 399.956c-5.876.032-9.892-.266-13.846-1.393-4.079-1.173-6.329-4.147-7.954-7.684-.938-2.051.187-4.116 1.156-5.916 1.891-3.49 4.141-6.777 5.423-10.612.547-1.643 1.781-2.754 3.704-2.097 3.234 1.127 6.594 1.096 9.908 1.096 9.236 0 18.471.125 27.598 1.8 1.688.313 3.329-.173 4.985-.282 3.157-.219 4.235 1.111 3.329 4.1-1.594 5.259-3.829 10.299-5.048 15.683-.453 1.972-1.984 2.551-3.719 2.817-9.049 1.408-18.175 2.081-25.505 2.488h-.031z" fill="#F3B62C"/><path d="M451.583 514.256c-4.157-2.489-8.798-3.882-13.221-5.775-5.469-2.332-10.986-4.555-16.253-7.325-1.375-.72-2.516-1.659-3.188-3.083-.906-1.957-.078-3.397 1.485-4.508 1.313-.939 2.704-1.455 3.891.25l-1.906-.046c-.813-.032-1.36.391-1.672 1.111-.329.798.109 1.44.687 1.862.828.595 1.735 1.096 2.641 1.597 5.407 2.926 11.283 4.632 17.034 6.714a2195.9 2195.9 0 0 0 20.191 7.199c1.141.407 2.063.814 1.923 2.239-.157 1.659-1.422 1.267-2.329 1.158-3.11-.329-6.313-.094-9.283-1.378v-.015zM438.534 484.581c1.704.548 1.797 2.645 3.829 3.851-1.438-3.35-2.579-6.151-3.829-8.906-.953-2.097-1.281-4.022.641-5.822.875-.829 1.766-1.283 2.954-1.033-.079 7.45 3.469 13.742 6.407 20.237 1.063 2.363 2.5 4.523 3.704 6.855-6.017-3.772-10.065-9.297-13.706-15.182zM456.896 496.961c.938.407 1.891.783 2.813 1.252 1.673.845 3.157 1.534 4.783-.391 1.203-1.44 2.953-.845 4.36.031 7.36 4.602 15.33 8.28 21.941 14.039 2.282 1.988 4.876 3.772 6.126 6.746-6.657-6.12-14.237-10.862-22.223-14.994-1.422-.735-2.844-1.408-4.375-1.862-2.626-.783-3.048-.485-2.907 2.332-4.345-1.19-8.158-3.083-10.502-7.153h-.016z" fill="#D78B0B"/><path d="M438.112 497.556c.578-1.205-.688-1.612-1.125-2.269-2.329-3.569-4.688-7.121-7.314-10.455-2.172-2.755-1.906-6.276-3.391-9.234-.516-1.033-1.657-2.05-1-3.475 2 .579 3.188 2.191 3.969 3.866 3.704 7.888 7.908 15.479 13.518 22.788-1.922-.376-3.36-.47-4.657-1.221z" fill="#D68B0B"/><path d="M384.275 380.721c1.328-.704 2.563-.61 3.735.345-1.266-.063-1.766.516-1.969 1.8-1.032 6.683-1.407 13.428-2.173 20.142-.093.877-.218 1.738-.281 2.614-.047.689-.172 1.362-1.047 1.237-.797-.126-1.141-.642-1.078-1.534.594-7.763.719-15.573 2.578-23.179.11-.454.157-.939.235-1.409v-.016z" fill="#D58A0B"/><path d="M452.505 541.003c.594-3.631.547-7.277.485-10.924-.047-3.49-.985-4.289-4.438-4.899-11.127-1.972-22.254-3.96-33.069-7.309-9.298-2.895-18.628-5.634-28.13-7.763-1.14-.25-2.359-.141-3.547-.203 1.235-.877 2.641-.939 4.079-.908 1.078.016 1.938-.329 2.016-1.503.078-1.236-.891-1.643-1.86-1.737a44.205 44.205 0 0 0-4.985-.203c-1.657.031-2.876-.579-3.813-2.207 3.047-.438 5.891.36 8.751.423 1.813.031 2.751-.501 2.485-2.442.719.344.234 2.238 1.844 1.424-.281 1.424.25 2.348 1.688 2.63 13.815 2.723 27.13 7.403 40.898 10.329 10.205 2.16 20.566 3.13 30.927 4.054 1.328.125 2.688-.204 4.032-.298.906-.062 1.75.032 1.109 1.268-2.953 5.65-3.688 11.77-4 17.999-.11 2.191-1.219 3.114-3.423 3.443-3.829.579-7.376-.485-11.017-1.174h-.032zM597.624 518.951c-.281-3.396-3.172-2.598-4.985-2.723-15.018-1.049-29.583.939-43.476 6.996-7.486 3.255-14.816 6.917-22.864 8.686-1.844.407-3.672 1.017-5.532 1.315-1.313.219-1.297.688-.86 1.737 1.688 4.022 3.439 7.998 5.658 11.77-3.048 1.799-6.517 2.363-9.861 3.302-.985.282-1.454-.36-2.032-.908-2.329-2.238-3.86-5.008-5.298-7.857-1.875-3.709-2.907-7.888-6.657-11.19 1.781-.141 2.907-.282 4.032-.297 7.392-.063 14.127-2.473 20.863-5.291 10.095-4.225 20.628-7.074 31.333-9.437 5.939-1.315 11.799-2.989 17.785-4.069 7.298-1.315 14.565-.673 21.785.438 2.797.422 2.938 1.017 1.078 3.208-1.125 1.315-.828 2.833-1 4.304l.031.016z" fill="#D78B0A"/><path d="M387.01 404.135c-.219 1.753.969 2.364 2.297 2.786 5.251 1.706 10.658 2.786 16.128 3.443 1.813.219 3.672 1.174 5.532.141.375-.219.781-.188 1.141-.031 4.485 2.019 9.298 1.831 14.018 2.05 4.751.235 9.486.814 14.221 1.111 6.001.392 12.018 1.002 17.956-.579.469-.125.938-.141 1.344.219.329.423.813.47 1.297.454 7.549-.313 15.081.689 22.629.501 2.657-.062 3.985-2.097 5.626-3.568 7.252-6.542 15.019-12.192 24.473-15.197 2.954-.939 6.017-1.065 9.002-1.753 1.094 1.299 2.875 1.846 3.969 3.599-6.657.548-12.861 1.941-18.847 4.383-6.266 2.551-12.002 5.822-16.331 11.19-.203.251-.515.438-.625.72-1.5 3.897-4.719 4.226-8.298 4.414-14.237.688-28.427-.172-42.617-.814-15.956-.736-31.74-2.802-47.399-5.869-.547-.11-1.094-.219-1.625-.36-4.329-1.127-5.063-2.411-3.907-6.84h.016zM516.423 369.234c-.719-.814-.157-1.863-.563-3.005-1.922 2.488-3.766 4.898-6.376 6.479-8.08 4.914-19.238 1.252-23.645-7.027-.687-1.299-.156-2.457.188-3.678 2.485 6.62 6.251 9.547 12.393 9.609 7.251.079 12.455-4.82 12.986-12.145.219-3.02-.484-5.838-1.484-8.639-.469-1.33-1.266-2.958-.25-4.101 1.125-1.267 2.687.047 4.031.251 1.532.219 2.376 1.033 2.376 2.927 0 6.448.219 12.896.359 19.344l-.015-.015zM421.062 346.712c-1.25 0-1.828.328-2.078 1.831-.625 3.787-.875 7.716-3.173 11.034-2.078 3.005-5.016 4.288-8.517 4.977-3.579.72-6.892.172-10.173-1.096-1.11-.422-2.251-.892-2.392-2.332 1.798.814 3.564 1.738 5.58 1.894 8.235.642 14.33-6.871 11.892-14.837-.453-1.471.344-1.972.954-2.849.656-.923 1.375-.766 2.266-.453 1.859.657 3.75 1.22 5.626 1.815l.015.016z" fill="#D78B0B"/><path d="M443.879 370.157c-5.11-.031-4.563.767-3.563-4.758.25-1.408 1.406-2.739.234-4.226 2.391.094 3.063 1.581 2.876 3.663-.11 1.173-.141 2.41-.578 3.459-.547 1.299.406 1.424 1.031 1.862z" fill="#D48A0D"/><path d="M448.911 410.208c-10.283-.704-20.582-1.377-30.865-2.16-1.625-.125-3.625-.125-3.578-2.708.046-3.067.406-3.333 3.422-2.551 4.079 1.065 8.283 1.456 12.471 1.816 1.328.125 2.297.141 2.344 1.847.016.813.61 1.518 1.594 1.44.938-.079 1.485-.767 1.454-1.613-.063-1.643.859-1.705 2.109-1.69 7.845.078 15.722.423 23.473-1.346 1.454-.329 1.407.407 1.063 1.44-1.016 2.974-4.063 5.228-7.267 5.29-2.063.047-6.204.157-6.22.235z" fill="#D78B0B"/><path d="M390.041 319.62c-1.578.735-3.11 1.534-4.735 2.175h-.031c-.078.032-.141.063-.219.094-.187.079-.391.172-.578.251-.391.187-.766.391-1.157.594-.75.392-1.5.799-2.234 1.206a53.23 53.23 0 0 0-1.313.719c.125.079.25.157.406.235.86.47 1.391 1.503 2.094 2.254 2.501 2.77 4.251 6.01 5.955 9.391.234-6.449 2.844-12.193 4.844-18.312-.234.109-.469.219-.734.329-.766.328-1.532.673-2.298 1.033v.031z" fill="#0D4C7D"/><path d="M385.275 321.811s.047-.016.078-.031c-.172.062-.187.078-.078.031z" fill="#4593D0"/><path d="M380.227 321.842c-1.078.939-2.062 1.769-.453 2.833.438-.235.875-.469 1.313-.72.75-.407 1.485-.814 2.235-1.205.375-.203.765-.407 1.156-.595.188-.093.391-.172.578-.25.079-.031.141-.063.219-.094-.109.047-.094.031.078-.031-.031 0-.047.015-.078.031h.031c1.626-.642 3.157-1.44 4.736-2.175a71.45 71.45 0 0 1 2.297-1.033c.266-.11.5-.219.734-.329.422-1.315.829-2.629 1.172-3.991-5.047 2.332-10.017 4.054-14.018 7.559z" fill="#4593D0"/><path d="M447.614 312.452c-4.407-4.617-8.439-9.547-11.534-15.15-1.594-2.88-3.813-4.508-6.657-5.369-.391 2.238-1.11 4.445-1.031 6.73.047 1.44.515 2.88.672 4.32.125 1.174.312 2.348.515 3.506.485 2.692 1.204 5.337 2.079 7.919.891 2.63 2.016 5.04 3.11 7.591.094.203.156.422.203.642 3.532-3.428 7.423-6.355 12.221-7.888 1.547-.501 1.516-1.112.422-2.27v-.031z" fill="#0D4C7D"/><path d="M431.674 314.377c-.875-2.583-1.594-5.228-2.079-7.92a44.431 44.431 0 0 1-.515-3.505c-.157-1.44-.625-2.88-.672-4.32-.063-2.285.656-4.492 1.031-6.73a20.068 20.068 0 0 0-1.797-.454c-1.172-.219-1.453.172-1.469 1.143-.016 1.909 0 3.818 0 6.166-.281 3.49.359 7.372 1.125 11.175.594 2.942 1.657 5.806 2.688 8.655.563 1.565 1.422 3.021 2.235 4.476.5.892 1.109 1.19 2.032.251.25-.251.5-.486.75-.736-.047-.219-.125-.423-.204-.642-1.093-2.535-2.234-4.961-3.109-7.59l-.016.031z" fill="#4593D0"/><path d="M448.286 330.278c-1.156-2.41-2.641-4.664-3.548-7.231-.375-1.08-1.265-1.612-2.359-.422-1.938 2.097-3.985 4.085-5.892 6.213-2.485 2.802-5.001 2.802-7.298-.172-1.954-2.52-3.579-5.227-4.47-8.342-.515-1.8-1.156-3.553-1.75-5.337a131.89 131.89 0 0 0-1.797 6.323c1.25.235 2.328 1.377 2.266 2.692-.125 2.958-1 5.838-1.235 8.671-.109 1.314 0 2.3.485 3.49.094.235.234.297.062.125.063.063.485.36.485.376.453.297.797.501 1.266.657 1.422.485 2.844.861 4.313 1.127 1.406.25 2.625.188 4.047.548a33.01 33.01 0 0 0 3.47.641c1.5.173 2.656.392 4.25.47 1.485.063 2.751 1.205 2.751 2.755v.078c.281-.125.469-.407.5-.924.203-3.631 1.828-6.683 3.938-9.547.453-.61.969-1.221.516-2.16v-.031z" fill="#0D4C7D"/><path d="M433.143 344.599h.062c-.203-.063-.219-.063-.062 0zM440.597 340.091c-1.594-.078-2.75-.281-4.251-.469-1.031-.125-2.453-.376-3.469-.642-1.422-.36-2.657-.297-4.048-.548a29.64 29.64 0 0 1-4.313-1.126c-.469-.157-.813-.36-1.266-.658l-.031-.015s.016 0 .031.015c0 0-.437-.313-.484-.375.172.172.031.109-.063-.126-.484-1.173-.594-2.159-.484-3.49.25-2.833 1.109-5.697 1.234-8.67.063-1.315-1.015-2.458-2.266-2.692-1.297 5.024-2.25 10.063-2.594 15.228-.094 1.362.625 2.129 1.766 2.488 7.158 2.254 14.549 3.162 21.973 3.96.375.047.734.047 1-.078v-.078c0-1.55-1.266-2.677-2.751-2.755l.016.031z" fill="#4593D0"/><path d="M423.235 336.648s-.016 0-.031-.015c.015 0 .031.015.031.015z" fill="#4593D0"/><path d="M491.965 318.853a85.96 85.96 0 0 0 2.407-3.365c-.141.172-.266.36-.406.532a33.933 33.933 0 0 0-2.001 2.833zM476.322 316.552c.219.908 1.063 2.019 1.531 2.849.547.955 1.204 1.784 1.829 2.676.437.626.938 1.565 1.672 1.91.281.14.406.109.766.14.078.016.156.032.219.016.015-.031.093-.109.25-.235.5-.751 1.078-1.095 1.453-1.987.438-1.033 1.016-2.004 1.532-3.021.484-.939 1.172-1.784 1.672-2.661.609-1.064 1.187-2.034 1.953-3.02 1.36-1.738 2.657-3.522 3.938-5.322 1.329-1.862 2.891-3.537 4.329-5.321 1.36-1.706 2.798-3.568 4.392-5.071.718-.673 1.625-1.502 2.453-2.082-1.109.094-2.219.188-3.344.22-3.485.078-6.611 1.252-9.799 2.566-3.829 1.55-6.892 4.179-10.345 6.229-7.252 4.273-14.597 8.374-21.863 12.631-2.532 1.487-4.954 2.128-7.517.203-1.094-.814-1.954 0-2.829.454-.86.438-.797 1.252-.719 2.082.235 2.535 1.797 4.335 3.266 6.213.735.939 1.219 1.127 2.204.188 2.985-2.864 6.063-5.619 9.126-8.373 3.095-2.771 6.111-3.428 8.908-1.972 1.188-1.706 4.313-1.894 4.923.704v-.016z" fill="#0D4C7D"/><path d="M508.422 297.114c.406-.313.984-.705.625-1.362-.297-.548-.876-.657-1.454-.626-1.094.078-2.203.204-3.297.297-.828.58-1.735 1.409-2.454 2.082-1.594 1.503-3.032 3.365-4.391 5.071-1.422 1.784-3.001 3.459-4.329 5.321-1.282 1.8-2.563 3.584-3.938 5.322-.766.986-1.344 1.956-1.954 3.02-.5.877-1.187 1.722-1.672 2.661-.5 1.002-1.094 1.972-1.531 3.021-.375.876-.938 1.22-1.454 1.987-.156.125-.234.204-.25.235a.503.503 0 0 0 .282-.094c-.219.11-.297.141-.282.094-.078 0-.156 0-.219-.016-.359-.031-.468 0-.765-.14-.735-.345-1.235-1.284-1.673-1.91-.625-.892-1.281-1.722-1.828-2.676-.469-.83-1.313-1.941-1.531-2.849-.61-2.582-3.736-2.41-4.923-.704 1.172.61 2.281 1.581 3.36 2.927 1.766 2.238 3.328 4.648 4.969 6.98.563.783 1.126 1.581 2.251 1.487 1.094.031 1.953-.47 2.813-1.096 2.828-2.066 5.11-4.585 7.157-7.293a33.933 33.933 0 0 1 2.001-2.833c.14-.172.265-.36.406-.532a231.88 231.88 0 0 0 2.704-4.101c3.359-5.133 6.423-10.423 11.345-14.289l.032.016z" fill="#4593D0"/><path d="M482.62 324.049a1 1 0 0 1-.281.094c-.016.047.062.016.281-.094z" fill="#4593D0"/><path d="M466.117 322.891c-.14.313-.344.61-.453.923.031-.078.141-.234.047.047-.703 2.317-2.735 4.101-4.766 5.275-.766.438-1.579.767-2.345 1.189-1 .564-1.766 1.393-2.688 2.066-1.656 1.205-2.828 2.755-3.656 4.633-.235.532-.36 1.095-.516 1.674-.031.11-.125.673-.25 1.127.172.063.328.126.484.172 2.188.58 4.563.486 6.814.486 4.329 0 8.626-.235 12.924-.72 2.407-.266 4.751-.564 7.173-.517 2.266.047 4.501.047 6.751-.203.063-.094.11-.172.172-.266 1.188-2.191 1.985-4.586 2.969-6.949-.453-.079-.625-.157-.734-.11-6.845 2.77-9.564 1.878-13.581-4.445-1.265-2.003-2.172-4.194-3.688-6.088-1.265-1.596-2.422-1.753-3.813-.955a6.066 6.066 0 0 1-.203.892 13.682 13.682 0 0 1-.688 1.8l.047-.031z" fill="#0D4C7D"/><path d="M450.709 339.481c.187.297.375.61.546.908.079-.047.157-.298.235-.579a2.926 2.926 0 0 0-.5-.141c-.031 0-.281-.188-.313-.188h.032z" fill="#4593D0"/><path d="M485.667 339.011c-1.531 2.473-4.485 2.458-6.954 2.943-9.251 1.737-18.644 1.44-28.005 1.581-2.203.031-2.75-.799-2.516-2.802.297-2.504 1.579-4.57 3.235-6.26 4.704-4.805 9.424-9.626 14.784-13.726a6.73 6.73 0 0 1 .797-.517c-.063.298-.109.595-.203.877a13.88 13.88 0 0 1-.688 1.8c-.125.281-.328.766-.39.986-.688 2.316-2.735 4.1-4.767 5.274-.766.438-1.578.767-2.344 1.189-1 .564-1.75 1.393-2.688 2.051-1.657 1.205-2.829 2.754-3.657 4.632-.234.533-.359 1.096-.5 1.675-.031.11-.125.673-.25 1.127.172.063.344.125.5.172 2.188.579 4.563.47 6.814.47 4.344 0 8.642-.235 12.924-.72 2.422-.266 4.751-.564 7.189-.517 2.266.047 4.5.063 6.751-.203l-.032-.032z" fill="#4593D0"/><path d="m566.932 299.242-.204-.25c.157.078.157.094 0 0-.172-.141-.422-.235-.609-.344-.547-.313-1.047-.673-1.547-1.018-1.063-.751-2.188-1.408-3.235-2.175-.281-.204-.672-.407-.891-.689a1.845 1.845 0 0 0-.141-.156c-.547-.298-1.219-.486-1.766-.767a17.997 17.997 0 0 0-3.141-1.331c-.922-.297-2.016-.532-2.922-.97-1.813.673-3.594 1.471-5.251 2.551-5.407 3.537-9.502 8.42-13.299 13.46-5.126 6.808-8.048 14.743-10.408 22.882-.719 2.457-1.11 4.977-.766 7.528.594 4.507 1.031 9.015.906 13.554-.281 10.282.485 20.534 1.001 30.785.109 2.129.093 4.429 1.64 6.276a52.718 52.718 0 0 1 2.095-15.087c.218-.767.484-1.691 1.453-1.644 1.125.047.906 1.065 1 1.831.063.501-.266 1.096.391 1.55 3.329-4.148 6.86-7.966 12.111-9.594.36-.11.704-.313.797-.798.188-1.08-2.281-6.589-3.297-7.294-3.61-2.441-7.439-4.648-9.908-8.436-.688-1.048-2.407-2.285-1.219-3.427 1.406-1.346 2.688.344 3.797 1.299 1.298 1.127 2.595 2.238 4.204 2.864-5.11-7.966-7.048-12.63-6.016-24.024.453-5.087 1.297-10.08 3.485-14.744.328-.688.593-1.643 1.672-1.283.906.297.703 1.143.594 1.847-.797 5.368-1.032 10.783-.797 16.183.265 6.495 2.109 12.505 6.298 17.67.89-.689.906-1.737 1.109-2.598 1.907-8.686 5.986-16.246 11.799-22.851 4.72-5.383 9.408-10.846 15.722-14.477-.329-1.361-.985-2.613-2.048-3.74-.828-.877-1.875-1.55-2.563-2.567l-.046-.016z" fill="#0D4C7D"/><path d="M560.29 294.594s.109.047.156.078c-.156-.109-.188-.125-.156-.078z" fill="#4593D0"/><path d="M572.042 301.934c-5.017-3.756-10.142-7.371-15.581-10.502-1.359-.782-2.672-.407-3.891.047-.031 0-.063.032-.094.032.906.438 2 .673 2.922.97 1.141.376 2.095.767 3.142 1.33.547.298 1.219.47 1.766.767-.032-.031 0-.015.156.078a.783.783 0 0 0-.156-.078c.015.032.062.078.14.157.235.281.61.485.891.688 1.063.767 2.172 1.425 3.235 2.176.5.36 1.016.72 1.547 1.017.188.11.438.204.61.344.156.094.156.094 0 0 .062.079.14.173.203.251.687 1.002 1.734 1.69 2.563 2.567 1.062 1.142 1.719 2.379 2.047 3.74.062-.047.125-.078.203-.125 2.547-1.44 2.719-1.69.297-3.49v.031z" fill="#4593D0"/><path d="M567.557 342.595c.953-1.408 1.781-2.801 2.828-4.147.985-1.268 1.922-2.536 3.063-3.694 1.063-1.08 2.36-1.94 3.501-2.942 1.234-1.064 2.75-1.753 4.188-2.473 1.391-.689 2.751-1.362 4.22-1.862 3.203-1.08 6.204-2.818 9.658-3.021 3.016-.188 6.047-.282 9.064-.626.078 0 .172-.016.25-.031-.032-.063-.047-.11-.079-.173-.546-1.22-1.203-2.457-1.984-3.537-1.719-2.332-3.204-4.758-4.782-7.184-1.454-2.222-3.376-3.271-5.861-4.084-1.453-.47-2.875-1.065-4.407-1.268a53.878 53.878 0 0 0-1.688-.219c-1.203.36-2.391.845-3.594 1.424-11.267 5.447-19.91 13.804-26.77 24.196-3.985 6.057-6.533 12.521-6.689 19.815-.187 2.848.578 5.54 1.141 8.263.328 1.612 1.25 1.863 2.61 1.362 2.188-.83 4.204-1.972 5.563-3.944 1.938-2.802 3.673-5.76 5.689-8.499.234-.907.578-1.784 1.031-2.66.875-1.644 2.001-3.162 3.048-4.696z" fill="#0D4C7D"/><path d="M604.782 327.179c1.032.11 1.422-.172 1.344-1.299-.578-7.262-4.282-12.677-9.97-16.903-3.485-2.582-7.064-2.707-10.612-1.659.563.078 1.141.157 1.688.219 1.532.204 2.954.798 4.407 1.268 2.485.798 4.407 1.847 5.861 4.085 1.578 2.426 3.078 4.867 4.782 7.184.797 1.08 1.437 2.316 1.984 3.537.032.062.047.109.079.172.265-.031.562-.078.797-.063.39.032.453-.97.078.705-.266 1.252-.188.923-.516.25-.141-.297-.25-.595-.375-.892-.078 0-.172.031-.25.031-3.001.329-6.048.439-9.064.626-3.454.204-6.454 1.941-9.658 3.021-1.469.501-2.829 1.158-4.22 1.862-1.437.72-2.953 1.409-4.188 2.473-1.141 1.002-2.438 1.863-3.5 2.943-1.141 1.142-2.063 2.426-3.064 3.693-1.062 1.346-1.875 2.739-2.828 4.148-1.047 1.534-2.172 3.067-3.048 4.695a11.586 11.586 0 0 0-1.031 2.661c.25-.329.484-.673.735-1.002 10.298-13.209 22.191-23.586 40.569-21.77v.015z" fill="#4593D0"/><path d="M605.219 324.441c.375-1.691.297-.689-.078-.705a7.25 7.25 0 0 0-.797.063c.125.297.235.595.375.892.313.673.235 1.002.516-.25h-.016z" fill="#4593D0"/><defs><linearGradient id="a" x1="274.278" y1="109.566" x2="74.336" y2="612.263" gradientUnits="userSpaceOnUse"><stop stop-color="#F1AB0E"/><stop offset="1" stop-color="#F1AB0E" stop-opacity="0"/></linearGradient><linearGradient id="b" x1="483.493" y1="59.807" x2="283.55" y2="562.504" gradientUnits="userSpaceOnUse"><stop stop-color="#F1AB0E"/><stop offset="1" stop-color="#F1AB0E" stop-opacity="0"/></linearGradient><linearGradient id="c" x1="666.26" y1="176.625" x2="466.317" y2="679.321" gradientUnits="userSpaceOnUse"><stop stop-color="#F1AB0E"/><stop offset="1" stop-color="#F1AB0E" stop-opacity="0"/></linearGradient><linearGradient id="d" x1="935.721" y1="97.697" x2="735.778" y2="600.394" gradientUnits="userSpaceOnUse"><stop stop-color="#F1AB0E"/><stop offset="1" stop-color="#F1AB0E" stop-opacity="0"/></linearGradient></defs></svg>
