<svg width="21" height="20" viewBox="0 0 21 20" fill="none" xmlns="http://www.w3.org/2000/svg">
<path fill-rule="evenodd" clip-rule="evenodd" d="M6.62569 0.0596729C7.69236 0.0116031 8.03319 0 10.749 0C13.4649 0 13.8057 0.0116031 14.8724 0.0596729C16.4974 0.133435 17.9249 0.529597 19.0707 1.66918C20.2165 2.80877 20.6149 4.22849 20.689 5.84463C20.7374 6.90549 20.749 7.24446 20.749 9.94549C20.749 12.6465 20.7374 12.9855 20.689 14.0463C20.6149 15.6625 20.2165 17.0822 19.0707 18.2218C17.9249 19.3614 16.4974 19.7575 14.8724 19.8313C13.8057 19.8794 13.4649 19.891 10.749 19.891C8.03319 19.891 7.69236 19.8794 6.62569 19.8313C5.00069 19.7575 3.57319 19.3614 2.42736 18.2218C1.28152 17.0822 0.88319 15.6625 0.809023 14.0463C0.76069 12.9855 0.749023 12.6465 0.749023 9.94549C0.749023 7.24446 0.76069 6.90549 0.809023 5.84463C0.88319 4.22849 1.28152 2.80877 2.42736 1.66918C3.57319 0.529597 5.00069 0.133435 6.62569 0.0596729ZM14.789 1.85001C13.7348 1.80194 13.4181 1.79199 10.7481 1.79199C8.07814 1.79199 7.76147 1.80194 6.7073 1.85001C5.56897 1.90139 4.51314 2.12848 3.70064 2.93655C2.88814 3.74462 2.6598 4.7947 2.60814 5.92683C2.5598 6.97525 2.5498 7.29019 2.5498 9.94564C2.5498 12.6011 2.5598 12.916 2.60814 13.9644C2.6598 15.0966 2.88814 16.1467 3.70064 16.9547C4.51314 17.7628 5.56897 17.9899 6.7073 18.0413C7.76147 18.0893 8.07814 18.0993 10.7481 18.0993C13.4181 18.0993 13.7348 18.0893 14.789 18.0413C15.9273 17.9899 16.9831 17.7628 17.7956 16.9547C18.6081 16.1467 18.8365 15.0966 18.8881 13.9644C18.9365 12.916 18.9465 12.6011 18.9465 9.94564C18.9465 7.29019 18.9365 6.97525 18.8881 5.92683C18.8365 4.7947 18.6081 3.74462 17.7956 2.93655C16.9831 2.12848 15.9273 1.90139 14.789 1.85001ZM5.6123 9.9449C5.6123 7.12453 7.91147 4.83789 10.7473 4.83789C13.5831 4.83789 15.8823 7.12453 15.8823 9.9449C15.8823 12.7653 13.5831 15.0519 10.7473 15.0519C7.91147 15.0519 5.6123 12.7653 5.6123 9.9449ZM7.41309 9.94504C7.41309 11.7758 8.90558 13.2602 10.7464 13.2602C12.5872 13.2602 14.0797 11.7758 14.0797 9.94504C14.0797 8.11425 12.5872 6.62988 10.7464 6.62988C8.90558 6.62988 7.41309 8.11425 7.41309 9.94504ZM17.2857 4.63682C17.2857 5.29595 16.7485 5.83028 16.0857 5.83028C15.423 5.83028 14.8857 5.29595 14.8857 4.63682C14.8857 3.97769 15.423 3.44336 16.0857 3.44336C16.7485 3.44336 17.2857 3.97769 17.2857 4.63682Z" fill="#F1AB0E"/>
</svg>
