<svg width="373" height="532" viewBox="0 0 373 532" fill="none" xmlns="http://www.w3.org/2000/svg">
<path d="M345.224 59.5212V319.431H233.621" stroke="#F1AB0E" stroke-width="0.992021"/>
<rect width="57.5372" height="57.5372" rx="3.96809" fill="#F1AB0E" fill-opacity="0.12"/>
<path d="M38.6891 37.6968V35.7128C38.6891 33.8638 37.4245 32.3102 35.713 31.8697M32.2409 20.1289C33.6951 20.7175 34.721 22.1432 34.721 23.8085C34.721 25.4738 33.6951 26.8995 32.2409 27.4882M33.729 37.6968C33.729 35.8479 33.729 34.9235 33.4269 34.1943C33.0242 33.222 32.2517 32.4495 31.2794 32.0468C30.5502 31.7447 29.6257 31.7447 27.7768 31.7447H24.8008C22.9519 31.7447 22.0274 31.7447 21.2982 32.0468C20.3259 32.4495 19.5534 33.222 19.1507 34.1943C18.8486 34.9235 18.8486 35.8479 18.8486 37.6968M30.2569 23.8085C30.2569 26.0001 28.4803 27.7766 26.2888 27.7766C24.0973 27.7766 22.3207 26.0001 22.3207 23.8085C22.3207 21.617 24.0973 19.8405 26.2888 19.8405C28.4803 19.8405 30.2569 21.617 30.2569 23.8085Z" stroke="#F1AB0E" stroke-width="1.98404" stroke-linecap="round" stroke-linejoin="round"/>
<rect x="315.463" y="1.98407" width="57.5372" height="57.5372" rx="3.96809" fill="#F1AB0E" fill-opacity="0.12"/>
<path d="M347.538 27.0556C346.66 26.2702 345.502 25.7926 344.231 25.7926C341.492 25.7926 339.271 28.0133 339.271 30.7527C339.271 33.4921 341.492 35.7128 344.231 35.7128C345.502 35.7128 346.66 35.2353 347.538 34.4498M338.279 32.2408H343.239M338.279 29.2647H343.239M354.151 30.7527C354.151 36.2315 349.71 40.6729 344.231 40.6729C338.752 40.6729 334.311 36.2315 334.311 30.7527C334.311 25.2739 338.752 20.8325 344.231 20.8325C349.71 20.8325 354.151 25.2739 354.151 30.7527Z" stroke="#F1AB0E" stroke-width="1.98404" stroke-linecap="round" stroke-linejoin="round"/>
<rect x="210.309" y="1.98407" width="57.5372" height="57.5372" rx="3.96809" fill="#F1AB0E" fill-opacity="0.12"/>
<path d="M248.005 28.7687H230.149M248.005 31.2487V27.5783C248.005 25.9115 248.005 25.0781 247.681 24.4415C247.396 23.8815 246.94 23.4263 246.38 23.1409C245.744 22.8166 244.91 22.8166 243.244 22.8166H234.911C233.244 22.8166 232.41 22.8166 231.774 23.1409C231.214 23.4263 230.759 23.8815 230.473 24.4415C230.149 25.0781 230.149 25.9115 230.149 27.5783V35.9112C230.149 37.578 230.149 38.4114 230.473 39.048C230.759 39.608 231.214 40.0632 231.774 40.3486C232.41 40.6729 233.244 40.6729 234.911 40.6729H239.077M243.045 20.8325V24.8006M235.109 20.8325V24.8006M241.557 37.6969L243.541 39.6809L248.005 35.2168" stroke="#F1AB0E" stroke-width="1.98404" stroke-linecap="round" stroke-linejoin="round"/>
<rect x="105.154" y="1.98407" width="57.5372" height="57.5372" rx="3.96809" fill="#F1AB0E" fill-opacity="0.12"/>
<path d="M127.971 24.8006L132.435 29.2647M127.971 24.8006H124.994L124.002 21.8245L124.994 20.8325L127.971 21.8245V24.8006ZM141.124 21.5676L138.517 24.1743C138.124 24.5671 137.928 24.7636 137.854 24.9901C137.789 25.1893 137.789 25.4039 137.854 25.6032C137.928 25.8297 138.124 26.0261 138.517 26.419L138.752 26.6543C139.145 27.0472 139.342 27.2436 139.568 27.3172C139.767 27.3819 139.982 27.3819 140.181 27.3172C140.408 27.2436 140.604 27.0472 140.997 26.6543L143.435 24.216C143.698 24.8551 143.843 25.5549 143.843 26.2886C143.843 29.302 141.4 31.7448 138.387 31.7448C138.023 31.7448 137.668 31.7092 137.325 31.6415C136.843 31.5464 136.602 31.4988 136.455 31.5134C136.3 31.5289 136.223 31.5522 136.086 31.6259C135.956 31.6952 135.826 31.8251 135.566 32.085L128.467 39.1849C127.645 40.0067 126.312 40.0067 125.49 39.1849C124.669 38.3631 124.669 37.0306 125.49 36.2088L132.59 29.1089C132.85 28.8491 132.98 28.7191 133.049 28.5896C133.123 28.4519 133.146 28.3753 133.162 28.2199C133.177 28.0737 133.129 27.8326 133.034 27.3503C132.966 27.0069 132.931 26.6519 132.931 26.2886C132.931 23.2753 135.373 20.8325 138.387 20.8325C139.384 20.8325 140.319 21.1002 141.124 21.5676ZM133.923 33.7287L139.379 39.1848C140.201 40.0066 141.533 40.0066 142.355 39.1848C143.177 38.363 143.177 37.0306 142.355 36.2087L137.866 31.7202C137.549 31.6902 137.239 31.6329 136.939 31.5506C136.553 31.4447 136.13 31.5216 135.847 31.8046L133.923 33.7287Z" stroke="#F1AB0E" stroke-width="1.98404" stroke-linecap="round" stroke-linejoin="round"/>
<rect x="142.851" y="474.186" width="57.5372" height="57.5372" rx="3.96809" fill="#F1AB0E" fill-opacity="0.12"/>
<path d="M172.612 501.963H177.374C178.485 501.963 179.04 501.963 179.465 502.179C179.838 502.369 180.142 502.673 180.332 503.046C180.548 503.47 180.548 504.026 180.548 505.137V511.883M172.612 511.883V497.201C172.612 496.09 172.612 495.534 172.396 495.11C172.205 494.737 171.902 494.433 171.529 494.243C171.104 494.027 170.549 494.027 169.437 494.027H165.866C164.755 494.027 164.199 494.027 163.775 494.243C163.402 494.433 163.098 494.737 162.908 495.11C162.692 495.534 162.692 496.09 162.692 497.201V511.883M181.54 511.883H161.7M166.164 497.995H169.14M166.164 501.963H169.14M166.164 505.931H169.14" stroke="#F1AB0E" stroke-width="1.98404" stroke-linecap="round" stroke-linejoin="round"/>
<path d="M30.7524 56.5452V316.455H121.026" stroke="#F1AB0E" stroke-width="0.992021"/>
<path d="M133.923 59.5212V319.431" stroke="#F1AB0E" stroke-width="0.992021"/>
<path d="M171.62 319.431L171.62 474.186" stroke="#F1AB0E" stroke-width="0.992021"/>
<path d="M239.077 59.5212V319.431" stroke="#F1AB0E" stroke-width="0.992021"/>
<g clip-path="url(#clip0_151_5221)">
<path d="M235.472 282.233C232.396 281.506 229.547 280.115 226.679 278.849C215.931 274.094 204.912 270.128 193.395 267.699C188.801 266.723 184.123 266.224 179.466 265.643C178.302 265.518 178.115 265.041 178.302 264.086C178.655 262.342 179.383 260.743 180.132 259.165C183.042 252.998 187.2 248.015 193.312 244.879C196.888 243.052 200.775 242.45 204.309 242.471C210.629 242.305 215.452 245.004 219.984 248.305C224.641 251.69 227.905 256.32 230.712 261.303C233.726 266.66 235.14 272.516 236.221 278.475C236.408 279.472 236.345 280.53 236.429 281.548C236.47 282.316 236.158 282.399 235.472 282.233Z" fill="#F3B62C"/>
<path d="M234.35 347.472C233.83 348.614 233.206 349.694 232.582 350.774C232.146 351.5 231.709 352.248 231.252 352.974C232.042 351.355 232.957 349.777 233.788 348.178C233.955 347.867 234.121 347.597 234.35 347.472Z" fill="#352313"/>
<path d="M234.475 299.072C233.664 298.449 232.687 298.346 231.73 298.179C231.315 298.117 230.837 298.242 230.504 297.826C232.209 297.93 233.913 297.951 235.285 299.363C236.096 300.194 236.179 300.899 235.556 301.792C235.265 302.208 235.098 302.747 234.62 303.017C234.703 302.664 234.87 302.353 235.057 302.021C235.909 300.567 235.805 300.11 234.475 299.072Z" fill="#905A20"/>
<path d="M235.285 299.363C233.913 297.951 232.209 297.93 230.504 297.827C229.444 296.954 229.444 296.02 230.483 295.231C231.315 294.608 232.313 294.504 233.269 294.629C235.431 294.92 237.447 295.667 238.404 297.827C239.36 299.986 238.591 302.747 236.845 304.346C236.72 304.471 236.595 304.575 236.47 304.658C235.826 305.052 235.161 305.53 234.475 304.886C233.768 304.263 234.287 303.62 234.62 303.017C235.098 302.747 235.265 302.208 235.556 301.792C236.179 300.9 236.096 300.194 235.285 299.363Z" fill="#201C17"/>
<path d="M231.731 298.179C232.687 298.346 233.664 298.449 234.475 299.072C235.805 300.11 235.909 300.567 235.057 302.021C234.87 302.353 234.703 302.664 234.62 303.017C233.56 302.685 232.417 302.706 231.585 301.626C230.67 300.463 230.234 299.28 230.504 297.826C230.837 298.242 231.315 298.117 231.731 298.179Z" fill="#905A20"/>
<path d="M208.01 371.184L207.261 371.018C210.525 369.959 213.706 368.63 216.741 366.969C220.857 364.727 224.703 361.841 227.676 358.207C229.007 356.587 230.15 354.822 231.231 353.016C231.023 353.431 230.815 353.847 230.628 354.262C229.028 357.875 226.47 360.636 223.456 363.066C219.984 365.869 215.951 367.53 212.022 369.482C210.712 370.146 209.361 370.707 208.01 371.184Z" fill="#F7F3E7"/>
<path d="M207.033 327.518C208.01 327.207 208.945 326.792 209.922 326.418C215.619 324.155 221.107 324.778 226.367 327.913C230.317 330.259 233.102 333.561 234.62 337.983C235.493 340.558 236.304 343.112 236.034 345.894C235.992 346.372 235.909 346.849 235.847 347.348C235.784 347.68 235.68 347.908 235.306 347.617C234.89 347.327 234.599 347.306 234.35 347.451C234.973 346.123 235.431 344.752 235.514 343.278C235.659 341.181 235.036 339.104 234.142 337.194C230.005 328.349 218.716 322.93 209.798 326.895C208.945 327.269 208.031 327.726 207.116 327.539C207.095 327.539 207.054 327.518 207.033 327.518Z" fill="#F7F3E7"/>
<path d="M175.163 364.27L207.261 371.018C198.53 373.883 189.133 374.818 179.903 375.088C167.387 375.461 154.644 374.693 142.877 370.437C133.127 366.886 124.063 360.719 118.2 352.289L152.877 359.598C154.685 362.609 157.159 365.038 160.714 366.388C165.745 368.298 171.129 367.343 175.163 364.27Z" fill="#F7F3E7"/>
<path d="M207.033 327.518C206.887 327.56 206.763 327.601 206.617 327.643C206.617 327.539 206.617 327.435 206.596 327.352C206.742 327.415 206.887 327.477 207.033 327.518Z" fill="#352313"/>
<path d="M202.168 315.87C200.421 315.891 199.049 314.562 199.008 312.839C198.966 311.053 200.359 309.62 202.126 309.62C203.852 309.641 205.203 310.991 205.203 312.735C205.224 314.479 203.872 315.849 202.168 315.87Z" fill="#F7F3E7"/>
<path d="M186.992 345.043C193.582 342.261 198.842 338.004 201.877 331.297C202.127 330.758 202.501 330.508 203.021 330.28C204.413 329.699 205.661 328.868 206.617 327.643C206.763 327.601 206.887 327.56 207.033 327.518C207.054 327.518 207.095 327.539 207.116 327.539C208.031 327.726 208.946 327.269 209.798 326.896C218.716 322.93 230.005 328.349 234.142 337.194C235.036 339.104 235.66 341.181 235.514 343.278C235.431 344.752 234.974 346.123 234.35 347.451C234.121 347.597 233.955 347.867 233.789 348.178C232.957 349.777 232.042 351.355 231.252 352.975C231.232 352.975 231.232 352.995 231.232 353.016C230.15 354.822 229.007 356.587 227.677 358.207C224.704 361.841 220.858 364.727 216.741 366.969C213.706 368.63 210.526 369.959 207.262 371.018L175.163 364.27C177.117 362.816 178.76 360.844 179.903 358.477C180.277 357.709 180.631 356.92 181.088 356.193C183.021 353.141 184.539 349.902 185.682 346.455C185.745 346.268 185.807 346.123 185.89 345.977C186.098 345.707 186.327 345.479 186.576 345.25C186.701 345.188 186.826 345.105 186.992 345.043Z" fill="#F7F3E7"/>
<path d="M199.008 312.839C199.05 314.562 200.422 315.891 202.168 315.87C203.873 315.849 205.224 314.479 205.204 312.735C205.204 310.991 203.852 309.641 202.127 309.62C200.36 309.62 198.967 311.053 199.008 312.839ZM191.441 301.834C195.287 299.301 199.237 299.218 203.249 301.336C207.511 303.599 209.84 307.959 209.278 312.486C208.675 317.261 204.913 321.559 200.485 322.514C197.054 323.013 194.081 321.746 191.42 319.836C188.801 317.946 187.72 315.039 187.367 311.904C186.888 307.835 188.406 304.492 191.441 301.834Z" fill="#352313"/>
<path d="M203.249 301.336C199.237 299.218 195.287 299.301 191.441 301.834C191.441 301.294 191.898 301.19 192.21 301.003C195.994 298.719 201.17 299.197 204.912 302C212.604 307.752 210.172 318.05 203.041 321.995C202.251 322.452 201.399 322.66 200.484 322.514C204.912 321.559 208.675 317.261 209.278 312.486C209.839 307.959 207.511 303.599 203.249 301.336Z" fill="#F6F3E7"/>
<path d="M191.94 300.339C194.06 298.865 196.389 298.055 198.904 297.806C200.235 297.66 201.586 297.64 202.917 297.868C207.906 298.719 211.627 302.478 212.854 307.918C213.498 310.804 213.415 313.69 212.979 316.597C212.958 316.804 212.875 316.991 212.729 317.157C212.667 315.123 213.103 313.108 212.958 311.053C212.708 307.959 211.856 305.115 210.047 302.581C207.968 299.674 205.12 298.325 201.648 298.096C198.967 297.91 196.41 298.387 193.977 299.571C193.312 299.882 192.605 300.09 191.94 300.339Z" fill="#352313"/>
<path d="M191.94 300.339C192.605 300.09 193.312 299.882 193.977 299.571C196.41 298.387 198.967 297.91 201.648 298.096C205.12 298.325 207.968 299.674 210.047 302.581C211.856 305.115 212.708 307.959 212.958 311.053C213.103 313.108 212.667 315.123 212.729 317.157C210.858 319.877 208.384 321.725 205.099 322.307C203.561 322.556 202.064 323.345 200.484 322.514C201.399 322.66 202.251 322.452 203.041 321.995C210.172 318.05 212.604 307.751 204.912 302C201.17 299.197 195.994 298.719 192.21 301.003C191.898 301.19 191.42 301.294 191.441 301.834C191.025 301.128 191.732 300.816 191.919 300.339H191.94Z" fill="#F6F3E7"/>
<path d="M201.877 331.297C198.842 338.004 193.582 342.26 186.992 345.043C186.826 345.105 186.701 345.188 186.576 345.25C187.2 344.69 187.969 344.212 188.884 343.797C193.873 341.534 197.844 337.942 200.65 333.145C200.858 332.792 201.087 332.439 201.212 332.045C201.586 330.944 202.23 330.135 203.395 329.761C204.642 329.346 205.432 328.162 206.617 327.643C205.661 328.868 204.413 329.699 203.02 330.28C202.501 330.508 202.126 330.757 201.877 331.297Z" fill="#352313"/>
<path d="M198.904 297.806C196.388 298.055 194.06 298.865 191.939 300.339H191.919C191.274 300.214 190.401 300.754 190.048 299.944C189.653 299.031 190.692 298.74 191.17 298.283C196.97 292.843 209.735 292.366 213.893 304.263C215.182 307.959 215.577 311.738 214.621 315.579C214.496 316.057 214.35 316.534 214.142 316.971C213.789 317.676 213.29 317.801 212.729 317.157C212.874 316.991 212.957 316.804 212.978 316.597C213.415 313.69 213.498 310.804 212.853 307.918C211.627 302.478 207.906 298.719 202.916 297.868C201.586 297.64 200.234 297.66 198.904 297.806Z" fill="#352313"/>
<path d="M185.89 345.977C186.036 345.686 186.264 345.458 186.576 345.25C186.327 345.479 186.098 345.707 185.89 345.977Z" fill="#352313"/>
<path d="M143.147 263.318C144.873 257.358 146.91 251.462 150.902 246.686C157.658 238.609 165.808 232.837 176.701 232.131C178.946 231.965 181.15 232.068 183.375 232.359C183.77 232.421 184.185 232.421 184.539 232.816C179.612 233.896 175.184 236.076 171.171 239.086C169.633 240.228 168.261 241.557 167.013 243.032C166.598 243.509 166.057 244.153 166.702 244.713C167.284 245.232 167.803 244.651 168.219 244.194C172.855 239.003 178.926 236.574 185.474 235.121C189.196 234.29 193 234.041 196.804 234.352C202.272 234.83 207.095 236.844 211.274 240.478C209.423 240.145 207.594 239.855 205.744 239.668C198.966 239.045 193.062 241.225 187.803 245.399C181.961 250.05 178.551 256.403 175.849 263.234C175.059 265.249 175.641 265.145 173.25 264.958C165.932 264.418 158.615 263.754 151.276 263.94C148.802 264.023 146.328 264.023 143.854 264.107C143.21 264.127 142.96 264.023 143.147 263.318Z" fill="#F3B62C"/>
<path d="M184.061 380.694C184.061 380.694 183.957 380.777 183.894 380.818C183.853 380.777 183.79 380.735 183.728 380.735C183.832 380.715 183.957 380.715 184.061 380.694Z" fill="#CA8C48"/>
<path d="M178.552 360.221C180.61 356.38 183.167 352.746 184.518 348.573C184.871 347.534 185.308 346.683 185.89 345.977C185.807 346.123 185.745 346.268 185.682 346.455C184.539 349.901 183.021 353.141 181.088 356.193C180.63 356.92 180.277 357.709 179.903 358.477C178.759 360.844 177.117 362.816 175.163 364.27L174.851 364.208C175.246 363.938 175.62 363.647 175.994 363.315C177.013 362.422 177.907 361.384 178.552 360.221Z" fill="#352313"/>
<path d="M170.153 363.211C168.116 364.041 165.891 364.436 163.5 364.332C161.484 364.27 159.904 362.775 159.28 360.927L170.153 363.211Z" fill="#F4ADAF"/>
<path d="M160.569 356.193C163.791 355.923 166.431 354.449 168.573 352.061C168.988 351.604 169.383 351.293 170.049 351.583C169.716 352.289 169.113 352.746 168.635 353.265C168.094 353.826 167.616 354.428 167.242 355.113C166.868 355.757 166.66 356.483 167.429 356.961C168.219 357.459 168.718 356.899 169.071 356.255C170.132 354.345 171.857 353.327 173.811 352.663C175.059 352.248 176.285 352.185 177.304 353.265C178.343 354.366 178.136 355.591 177.699 356.836C177.387 357.688 176.951 358.498 176.306 359.12C174.435 360.927 172.398 362.318 170.153 363.211L159.28 360.927C158.781 359.536 158.843 357.978 159.633 356.65C159.862 356.255 160.194 356.234 160.569 356.193Z" fill="#F4ADAF"/>
<path d="M158.137 341.866C158.386 341.243 158.677 341.077 159.322 341.305C162.398 342.344 165.475 343.361 168.573 344.295C169.446 344.565 169.134 345.022 168.989 345.5C167.429 350.504 164.124 353.68 158.054 353.556C157.804 353.556 157.575 353.556 157.347 353.535L157.409 352.082C158.095 351.999 158.054 351.459 158.012 350.96C157.846 349.362 157.679 347.784 157.513 346.185C157.347 344.69 157.575 343.257 158.137 341.866Z" fill="#F7F3E7"/>
<path d="M157.347 353.535C151.941 353.327 148.47 349.652 147.534 344.046C147.451 343.631 147.659 343.548 147.929 343.444C150.07 342.572 152.233 341.741 154.353 340.849C155.289 340.475 155.413 340.849 155.476 341.7C155.704 344.607 155.684 347.514 156.224 350.4C156.286 350.67 156.328 350.96 156.39 351.23C156.515 351.77 156.827 352.144 157.409 352.082L157.347 353.535Z" fill="#F7F3E7"/>
<path d="M157.118 363.938C155.663 362.65 154.353 361.259 153.313 359.681L159.28 360.927C159.904 362.775 161.484 364.27 163.5 364.332C165.891 364.436 168.115 364.042 170.153 363.211L174.851 364.208C172.772 365.703 170.402 366.575 167.845 366.845C163.916 367.26 160.215 366.658 157.118 363.938Z" fill="#352313"/>
<path d="M158.199 313.628C156.619 313.897 155.06 313.897 153.5 313.545C152.96 313.42 152.128 313.316 152.17 312.569C152.212 311.78 152.898 311.447 153.667 311.427C154.311 311.406 154.956 311.427 155.6 311.427C156.556 311.385 157.534 311.281 158.469 311.697C159.03 311.946 159.467 312.34 159.342 313.005C159.238 313.607 158.677 313.545 158.199 313.628Z" fill="#F4F0E5"/>
<path d="M153.314 359.681C154.353 361.259 155.663 362.65 157.118 363.938C160.216 366.658 163.916 367.26 167.845 366.845C170.402 366.575 172.772 365.703 174.851 364.208L175.163 364.27C171.13 367.343 165.745 368.298 160.714 366.388C157.16 365.038 154.686 362.609 152.877 359.598L153.293 359.681H153.314Z" fill="#352313"/>
<path d="M153.667 311.427C152.898 311.447 152.212 311.78 152.17 312.569C152.128 313.316 152.96 313.42 153.5 313.544C155.06 313.897 156.619 313.897 158.199 313.628C158.677 313.544 159.238 313.607 159.342 313.005C159.467 312.34 159.03 311.946 158.469 311.697C157.534 311.281 156.556 311.385 155.6 311.427C154.956 311.427 154.311 311.406 153.667 311.427ZM147.16 312.133C153.209 308.977 159.238 309.516 165.246 312.216C166.556 313.046 166.889 314.209 166.514 315.704C165.891 318.216 165.163 320.687 163.874 322.93C162.253 325.753 159.924 327.581 156.515 327.415C154.457 327.29 152.814 326.21 151.401 324.84C148.927 322.452 147.181 319.566 145.975 316.348C145.226 314.334 145.538 313.378 147.16 312.133Z" fill="#352313"/>
<path d="M147.16 312.133C147.638 311.51 148.345 311.281 149.01 310.991C154.249 308.665 159.363 309.579 164.456 311.51C164.789 311.655 165.122 311.842 165.246 312.216C159.238 309.516 153.209 308.977 147.16 312.133Z" fill="#F4F0E4"/>
<path d="M149.01 310.991C148.345 311.281 147.638 311.51 147.16 312.133C147.284 311.489 147.742 311.157 148.241 310.887C152.814 308.312 157.554 307.772 162.502 309.62C163.375 309.952 164.207 310.409 164.872 311.094C165.142 311.385 165.62 311.676 165.246 312.216C165.122 311.842 164.789 311.655 164.456 311.51C159.363 309.579 154.249 308.665 149.01 310.991Z" fill="#F4F0E4"/>
<path d="M135.809 310.866C134.104 310.866 132.753 309.475 132.753 307.731C132.753 305.966 134.063 304.595 135.788 304.575C137.493 304.575 138.907 305.945 138.907 307.648C138.927 309.454 137.555 310.887 135.809 310.866Z" fill="#F7F3E7"/>
<path d="M129.863 316.576C129.863 316.576 129.759 316.721 129.697 316.784C129.697 316.763 129.739 316.721 129.739 316.701C129.552 316.493 129.385 316.285 129.24 316.057C129.427 316.244 129.635 316.431 129.863 316.576Z" fill="#352313"/>
<path d="M128.034 312.257C128.055 310.388 127.972 308.499 128.304 306.63C128.99 302.872 130.695 299.799 134.042 297.785C134.77 297.328 135.518 297.017 136.371 297.536C136.204 298.117 135.726 298.117 135.393 298.283C133.585 299.28 131.963 300.422 131.09 302.436C129.614 305.862 129.406 309.413 130.238 313.005C130.529 314.292 130.757 315.475 129.864 316.576C129.635 316.431 129.427 316.244 129.24 316.057C129.219 316.057 129.198 316.036 129.198 316.015C128.658 315.309 128.2 314.541 127.826 313.731C128.117 313.275 128.013 312.755 128.034 312.257Z" fill="#F6F2E6"/>
<path d="M129.676 284.787C129.51 284.891 129.344 284.995 129.177 285.14C129.364 284.995 129.51 284.87 129.676 284.787Z" fill="#905B20"/>
<path d="M129.406 264.273C129.344 263.131 129.905 262.196 130.487 261.324C134.541 255.178 138.948 249.323 145.019 244.963C146.661 243.779 148.324 242.637 150.362 242.18C145.934 246.146 143.792 251.358 142.275 256.943C141.734 258.999 141.027 261.013 140.466 263.068C140.217 264.023 139.738 264.522 138.72 264.563C135.934 264.646 133.148 264.833 130.383 265.186C129.656 265.269 129.448 264.896 129.406 264.273Z" fill="#F3B62C"/>
<path d="M129.177 285.14C128.928 285.285 128.72 285.451 128.491 285.618C128.72 285.431 128.949 285.265 129.177 285.14Z" fill="#905B20"/>
<path d="M128.491 285.618C128.013 285.971 127.535 286.344 127.098 286.739C127.472 286.386 127.888 286.074 128.283 285.763C128.345 285.701 128.429 285.659 128.491 285.618Z" fill="#905B20"/>
<path d="M128.304 306.63C127.971 308.499 128.055 310.388 128.034 312.257C128.013 312.755 128.117 313.275 127.826 313.711C127.764 313.628 127.722 313.565 127.701 313.482C127.784 311.219 127.618 308.914 127.971 306.672C128.657 302.519 130.632 299.259 134.375 297.224C135.456 296.622 136.391 296.768 137.181 297.702C137.036 298.013 136.744 298.096 136.474 298.179C132.296 299.654 130.632 302.976 130.154 307.087C129.905 309.309 129.926 311.53 130.736 313.648C131.194 314.894 131.027 315.87 129.863 316.576C130.757 315.476 130.529 314.292 130.237 313.005C129.406 309.413 129.614 305.862 131.09 302.436C131.963 300.422 133.585 299.28 135.393 298.283C135.726 298.117 136.204 298.117 136.37 297.536C135.518 297.017 134.769 297.328 134.042 297.785C130.695 299.799 128.99 302.872 128.304 306.63Z" fill="#F6F2E6"/>
<path d="M127.826 313.731C128.2 314.541 128.657 315.309 129.198 316.015C128.574 315.413 128.159 314.645 127.701 313.897C127.743 313.835 127.784 313.794 127.826 313.731Z" fill="#F6F2E6"/>
<path d="M127.701 313.898C127.701 313.752 127.722 313.628 127.701 313.482C127.722 313.565 127.764 313.628 127.826 313.711C127.826 313.711 127.743 313.835 127.701 313.898Z" fill="#F6F2E6"/>
<path d="M147.534 344.046C148.47 349.652 151.941 353.327 157.346 353.535C157.575 353.556 157.804 353.556 158.053 353.556C164.124 353.68 167.429 350.504 168.988 345.5C169.134 345.022 169.446 344.565 168.573 344.295C165.475 343.361 162.398 342.344 159.321 341.305C158.677 341.077 158.386 341.243 158.136 341.866C157.575 343.257 157.346 344.69 157.513 346.185C157.679 347.784 157.845 349.362 158.012 350.96C158.053 351.459 158.095 351.999 157.409 352.082C156.827 352.144 156.515 351.77 156.39 351.23C156.328 350.96 156.286 350.67 156.224 350.4C155.683 347.514 155.704 344.607 155.475 341.7C155.413 340.849 155.288 340.475 154.353 340.849C152.232 341.741 150.07 342.572 147.929 343.444C147.659 343.548 147.451 343.631 147.534 344.046ZM135.788 304.575C134.063 304.595 132.732 305.966 132.753 307.731C132.753 309.475 134.104 310.866 135.809 310.866C137.555 310.887 138.927 309.454 138.906 307.648C138.906 305.945 137.493 304.575 135.788 304.575ZM132.483 341.451C126.1 336.862 123.855 328.515 126.911 321.227C127.057 320.895 127.285 320.583 127.098 320.189L127.285 319.94L127.327 319.898C128.429 319.151 129.24 318.05 129.697 316.784C129.759 316.721 129.801 316.638 129.863 316.576C131.027 315.87 131.194 314.894 130.736 313.648C129.926 311.53 129.905 309.309 130.154 307.087C130.632 302.976 132.296 299.654 136.474 298.179C136.744 298.096 137.035 298.013 137.181 297.702C136.391 296.768 135.455 296.622 134.374 297.224C130.632 299.259 128.657 302.519 127.971 306.672C127.618 308.914 127.784 311.219 127.701 313.482C124.707 306.921 126.62 298.159 132.587 293.923C133.439 293.3 134.395 292.781 135.455 292.656C138.241 292.386 140.403 295.127 141.276 297.806C143.251 303.931 141.193 311.136 136.287 315.309C134.104 317.178 131.381 318.528 129.863 320.957C128.886 322.535 128.512 324.425 128.491 326.273C128.45 330.944 130.695 335.637 134.458 338.419C138.22 341.222 143.439 342.011 147.804 340.329C150.299 339.354 152.586 337.63 155.268 337.485C157.554 337.381 159.716 338.482 161.837 339.354C169.841 342.655 179.009 343.091 187.283 340.537C191.836 339.146 196.368 336.634 198.592 332.439C198.821 332.024 199.029 331.526 198.904 331.069C198.509 329.657 195.495 329.532 196.056 328.162C198.551 327.747 201.066 327.331 203.582 326.916C204.226 326.812 204.891 326.709 205.536 326.895C205.91 326.999 206.243 327.186 206.596 327.352C206.617 327.435 206.617 327.539 206.617 327.643C205.432 328.162 204.642 329.346 203.395 329.761C202.23 330.135 201.586 330.944 201.212 332.045C201.087 332.439 200.858 332.792 200.65 333.145C197.844 337.942 193.873 341.534 188.884 343.797C187.969 344.212 187.2 344.69 186.576 345.25C186.264 345.458 186.036 345.686 185.89 345.977C185.308 346.683 184.871 347.534 184.518 348.573C183.167 352.746 180.61 356.38 178.551 360.221C177.907 361.384 177.013 362.422 175.994 363.315C175.62 363.647 175.246 363.938 174.851 364.208L170.153 363.211C172.398 362.318 174.435 360.927 176.306 359.12C176.951 358.498 177.387 357.688 177.699 356.836C178.136 355.591 178.344 354.366 177.304 353.265C176.285 352.185 175.059 352.248 173.812 352.663C171.857 353.327 170.132 354.345 169.072 356.255C168.718 356.899 168.219 357.459 167.429 356.961C166.66 356.483 166.868 355.757 167.242 355.113C167.616 354.428 168.095 353.826 168.635 353.265C169.113 352.746 169.716 352.289 170.049 351.583C169.383 351.293 168.988 351.604 168.573 352.061C166.431 354.449 163.791 355.923 160.569 356.193C160.195 356.234 159.862 356.255 159.633 356.65C158.843 357.978 158.781 359.536 159.28 360.927L153.313 359.681H153.293C152.357 358.331 151.609 356.836 151.068 355.196C150.777 354.345 150.382 353.639 149.675 353.078C148.054 351.832 146.952 350.192 146.245 348.261C145.933 347.451 145.705 346.621 145.434 345.811C145.226 345.126 144.811 344.794 144.104 344.794C143.542 344.794 142.96 344.835 142.399 344.773C138.823 344.503 135.414 343.569 132.483 341.451Z" fill="#352313"/>
<path d="M127.327 319.898L129.697 316.784C129.24 318.05 128.429 319.151 127.327 319.898Z" fill="#352313"/>
<path d="M127.285 319.94L127.098 320.189C127.098 320.189 127.057 320.147 127.015 320.127C127.119 320.064 127.202 320.002 127.285 319.94Z" fill="#352313"/>
<path d="M132.587 293.923C126.62 298.159 124.708 306.921 127.701 313.482C127.722 313.628 127.701 313.752 127.701 313.897C126.891 314.354 126.703 313.711 126.516 313.171C125.685 310.762 125.643 308.271 125.789 305.779C126.08 300.692 128.491 296.747 132.337 293.632C135.476 291.078 138.179 291.577 140.404 295.252C142.462 298.657 142.773 302.394 142.046 306.277C141.235 310.638 138.761 313.877 135.373 316.493C134.562 317.116 133.751 317.76 132.878 318.258C130.071 319.877 129.136 322.452 128.969 325.567C128.512 333.872 133.502 339.312 141.006 340.786C143.875 341.347 146.64 340.662 149.26 339.374C150.653 338.689 152.025 338.004 153.459 337.402C154.81 336.841 156.099 336.987 157.555 337.485C163.791 339.665 169.966 342.198 176.743 341.928C182.73 341.679 188.489 340.516 193.665 337.256C195.786 335.928 197.408 334.142 198.509 331.879C198.863 331.152 198.946 330.695 197.948 330.529C197.033 330.405 196.306 329.844 195.724 329.138C195.412 328.743 195.287 328.328 195.536 327.871C195.765 327.435 196.202 327.145 196.638 327.269C199.486 328.1 202.064 326.999 204.663 326.106C205.931 325.691 206.513 326.086 206.596 327.352C206.243 327.186 205.91 326.999 205.536 326.895C204.892 326.709 204.226 326.812 203.582 326.916C201.066 327.332 198.551 327.747 196.056 328.162C195.495 329.532 198.509 329.657 198.904 331.069C199.029 331.526 198.821 332.024 198.592 332.439C196.368 336.634 191.836 339.146 187.283 340.537C179.009 343.091 169.841 342.655 161.837 339.354C159.717 338.482 157.555 337.381 155.268 337.485C152.586 337.63 150.299 339.354 147.804 340.329C143.439 342.011 138.221 341.222 134.458 338.419C130.695 335.637 128.45 330.944 128.491 326.273C128.491 324.425 128.886 322.535 129.863 320.957C131.381 318.528 134.104 317.178 136.287 315.309C141.194 311.136 143.252 303.931 141.277 297.806C140.404 295.127 138.241 292.386 135.456 292.656C134.395 292.781 133.439 293.3 132.587 293.923Z" fill="#352313"/>
<path d="M125.56 288.234C125.705 288.068 125.851 287.922 125.996 287.798L125.56 288.234Z" fill="#905B20"/>
<path d="M125.456 331.09C124.375 327.29 125.165 323.615 127.098 320.189C127.285 320.583 127.057 320.895 126.911 321.227C123.855 328.515 126.1 336.862 132.483 341.451C135.414 343.569 138.823 344.503 142.399 344.773C142.96 344.835 143.543 344.794 144.104 344.794C144.811 344.794 145.226 345.126 145.434 345.811C145.705 346.621 145.933 347.451 146.245 348.261C146.952 350.192 148.054 351.832 149.675 353.078C150.382 353.639 150.777 354.345 151.068 355.196C151.609 356.836 152.357 358.331 153.293 359.681L152.877 359.598C152.004 358.228 151.297 356.733 150.694 355.155C150.424 354.428 150.112 353.847 149.509 353.39C147.16 351.583 145.912 349.071 145.268 346.268C145.06 345.292 144.665 345.147 143.75 345.126C133.876 344.918 128.055 340.122 125.456 331.09Z" fill="#352313"/>
<path d="M125.165 288.691C125.29 288.524 125.415 288.379 125.56 288.234L125.997 287.798C126.288 287.486 126.6 287.175 126.932 286.884C126.995 286.822 127.036 286.78 127.099 286.739C127.535 286.344 128.013 285.971 128.491 285.618C128.72 285.451 128.928 285.285 129.178 285.14C129.344 284.995 129.51 284.891 129.676 284.787C129.843 284.642 130.03 284.538 130.217 284.434C130.487 284.247 130.737 284.102 131.007 283.956C131.859 283.437 132.753 282.96 133.647 282.545C141.734 278.766 150.881 277.997 159.8 278.08C180.568 278.267 201.212 282.731 220.567 290.289C220.546 290.352 220.525 290.414 220.525 290.476C219.174 290.372 218.031 289.646 216.804 289.189C209.112 286.282 201.191 284.123 193.187 282.337C187.886 281.174 182.564 280.323 177.201 279.617C170.319 278.683 163.438 278.143 156.515 278.454C150.507 278.703 144.499 279.077 138.678 280.821C133.71 282.316 129.448 284.932 125.789 288.607C125.103 289.293 124.396 289.936 123.71 290.601C124.001 290.165 124.313 289.729 124.645 289.313C124.812 289.085 124.978 288.877 125.165 288.691Z" fill="#905B20"/>
<path d="M124.645 289.313C124.791 289.106 124.957 288.898 125.165 288.691C124.978 288.877 124.811 289.085 124.645 289.313Z" fill="#905B20"/>
<path d="M123.585 290.725C124.77 287.839 126.433 285.265 128.304 282.794C129.759 280.863 131.443 279.409 133.668 278.599C135.58 277.894 137.514 277.374 139.53 277.167C143.792 276.71 148.075 276.357 152.357 276.461C157.7 276.606 163.043 276.876 168.386 277.021C171.774 277.125 175.184 277.146 178.552 277.644C182.107 278.205 185.641 278.786 189.216 279.222C195.973 280.032 202.501 281.922 209.091 283.583C212.687 284.496 216.222 285.659 219.693 287.05C221.668 287.86 221.835 288.545 220.712 290.497C220.65 290.497 220.587 290.497 220.525 290.476C220.525 290.414 220.525 290.352 220.567 290.289C201.212 282.731 180.568 278.267 159.8 278.08C150.881 277.997 141.734 278.766 133.647 282.545C132.753 282.96 131.859 283.437 131.007 283.956C130.736 284.102 130.487 284.247 130.217 284.434C130.03 284.538 129.843 284.642 129.676 284.787C129.51 284.87 129.364 284.995 129.177 285.14C128.949 285.265 128.72 285.431 128.491 285.618C128.429 285.659 128.346 285.701 128.283 285.763C127.888 286.074 127.473 286.386 127.098 286.739C127.036 286.78 126.994 286.822 126.932 286.884C126.599 287.175 126.288 287.486 125.997 287.798C125.851 287.922 125.705 288.068 125.56 288.234C125.414 288.379 125.29 288.524 125.165 288.691C124.957 288.898 124.791 289.106 124.645 289.313C124.292 289.749 123.959 290.186 123.647 290.663L123.585 290.725Z" fill="#905B20"/>
<path d="M123.71 290.601L123.647 290.663C123.959 290.186 124.292 289.75 124.645 289.313C124.313 289.729 124.001 290.165 123.71 290.601Z" fill="#905B20"/>
<path d="M123.71 290.622C123.439 291.037 123.169 291.452 122.94 291.888C123.148 291.473 123.398 291.058 123.647 290.663C123.647 290.642 123.689 290.622 123.71 290.622Z" fill="#CA8C48"/>
<path d="M118.2 352.289C124.063 360.719 133.127 366.886 142.877 370.437C154.644 374.693 167.388 375.461 179.903 375.088C189.133 374.818 198.53 373.883 207.261 371.018L208.01 371.184C202.709 373.074 197.179 373.842 191.607 374.61C185.557 375.461 179.508 375.856 173.417 375.586C168.074 375.337 162.752 375.005 157.45 374.236C152.357 373.51 147.389 372.534 142.586 370.727C132.42 366.948 124.063 360.719 117.494 352.144L118.2 352.289Z" fill="#F7F3E7"/>
<path d="M114.604 320.853C115.124 320.417 115.664 320.002 116.205 319.628C119.157 317.573 124.479 317.884 127.015 320.127C126.994 320.127 126.974 320.127 126.953 320.168C123.169 318.029 118.159 318.403 114.604 320.853Z" fill="#F7F3E7"/>
<path d="M122.899 363.066C119.385 359.702 116.433 355.736 114.146 351.438L117.473 352.144H117.494C124.063 360.719 132.42 366.948 142.586 370.727C147.388 372.534 152.357 373.51 157.45 374.236C162.752 375.005 168.074 375.337 173.416 375.586C179.508 375.856 185.557 375.461 191.607 374.61C197.179 373.842 202.708 373.074 208.01 371.184L213.353 372.305C211.357 373.094 209.319 373.821 207.261 374.444C201.835 376.147 196.264 377.372 190.63 378.098C186.992 378.576 183.333 378.846 179.674 379.116C176.389 379.344 173.105 379.593 169.799 379.573C161.047 379.552 152.378 377.745 144.145 374.839C136.453 372.098 128.865 368.776 122.899 363.066Z" fill="#CA8C48"/>
<path d="M114.292 321.102C113.98 321.352 113.668 321.622 113.356 321.871C113.647 321.559 113.959 321.31 114.292 321.102Z" fill="#352313"/>
<path d="M116.912 351.397C115.248 349.175 114.313 346.6 113.357 344.025C113.19 343.548 113.045 343.07 112.878 342.614C113.71 343.901 114.313 345.354 114.957 346.745C115.872 348.697 116.953 350.545 118.2 352.289L117.494 352.144H117.473L116.912 351.397Z" fill="#F7F3E7"/>
<path d="M112.629 322.473L113.315 321.912C113.128 322.058 112.941 322.244 112.774 322.431C112.733 322.452 112.67 322.473 112.629 322.473Z" fill="#F7F3E7"/>
<path d="M230.504 297.827C230.234 299.28 230.67 300.464 231.585 301.626C232.416 302.706 233.56 302.685 234.62 303.017C234.287 303.62 233.768 304.263 234.475 304.886C235.161 305.53 235.826 305.052 236.47 304.658C236.595 304.575 236.72 304.471 236.845 304.346C238.591 302.747 239.36 299.986 238.404 297.827C237.447 295.667 235.431 294.92 233.269 294.629C232.312 294.504 231.315 294.608 230.483 295.231C229.444 296.02 229.444 296.954 230.504 297.827ZM191.441 301.834C188.406 304.492 186.888 307.835 187.366 311.904C187.72 315.04 188.801 317.946 191.42 319.836C194.081 321.746 197.054 323.013 200.484 322.514C202.064 323.345 203.561 322.556 205.099 322.307C208.384 321.725 210.858 319.877 212.729 317.157C213.29 317.801 213.789 317.676 214.143 316.971C214.351 316.534 214.496 316.057 214.621 315.579C215.577 311.738 215.182 307.959 213.893 304.263C209.735 292.366 196.971 292.843 191.171 298.283C190.692 298.74 189.653 299.031 190.048 299.944C190.401 300.754 191.275 300.214 191.919 300.339C191.732 300.816 191.025 301.128 191.441 301.834ZM147.16 312.133C145.538 313.378 145.227 314.334 145.975 316.348C147.181 319.566 148.927 322.452 151.401 324.84C152.815 326.21 154.457 327.29 156.515 327.415C159.924 327.581 162.253 325.753 163.874 322.93C165.163 320.687 165.891 318.216 166.515 315.704C166.889 314.209 166.556 313.046 165.247 312.216C165.621 311.676 165.143 311.385 164.872 311.094C164.207 310.409 163.375 309.952 162.502 309.62C157.555 307.772 152.815 308.312 148.241 310.887C147.742 311.157 147.285 311.489 147.16 312.133ZM112.629 322.473C110.945 322.992 109.136 321.227 109.136 319.441C109.116 317.573 110.405 315.974 111.881 314.832C113.336 313.69 115.02 312.859 116.371 311.593C121.111 307.087 119.822 299.259 122.317 293.217C122.504 292.76 122.712 292.324 122.941 291.888C123.169 291.452 123.439 291.037 123.71 290.622C124.396 289.936 125.103 289.293 125.789 288.608C129.448 284.932 133.709 282.316 138.678 280.821C144.499 279.077 150.507 278.703 156.515 278.454C163.438 278.143 170.319 278.683 177.2 279.617C182.564 280.323 187.886 281.174 193.187 282.337C201.191 284.123 209.112 286.282 216.804 289.189C218.03 289.646 219.174 290.372 220.525 290.476C220.483 290.559 220.463 290.642 220.463 290.725C220.421 290.808 220.421 290.912 220.421 290.995C220.359 291.348 220.359 291.701 220.4 292.034V292.096C220.421 292.241 220.463 292.386 220.504 292.511C220.567 292.698 220.65 292.864 220.754 293.009C220.962 293.238 221.232 293.362 221.606 293.3C222.084 293.238 222.417 292.823 222.729 292.449C226.554 287.694 233.456 285.265 239.111 287.59C244.578 289.833 247.821 296.435 246.262 302.125C244.682 307.814 238.508 311.842 232.666 310.97C233.539 313.046 235.867 314.001 237.801 315.185C239.36 316.161 240.753 317.386 241.917 318.818C245.202 322.867 246.699 328.411 245.534 333.519C243.747 332.605 242.104 331.463 240.67 330.093C239.776 331.007 240.108 332.481 240.503 333.706C242.229 338.98 243.934 345.001 241.21 349.86C240.587 350.96 239.755 351.936 238.923 352.912C236.096 356.255 233.248 359.598 229.963 362.484C225.099 366.741 219.382 369.918 213.373 372.305H213.353L208.01 371.184C209.361 370.707 210.712 370.146 212.022 369.482C215.951 367.53 219.984 365.869 223.456 363.066C226.471 360.636 229.028 357.875 230.629 354.262C230.816 353.847 231.024 353.431 231.231 353.016C231.231 353.016 231.231 352.975 231.252 352.975C231.71 352.248 232.146 351.5 232.583 350.774C233.206 349.694 233.83 348.614 234.35 347.472C234.599 347.306 234.89 347.327 235.306 347.618C235.68 347.908 235.784 347.68 235.847 347.348C235.909 346.849 235.992 346.372 236.034 345.894C236.304 343.112 235.493 340.558 234.62 337.983C233.102 333.561 230.317 330.259 226.367 327.913C221.107 324.778 215.619 324.155 209.922 326.418C208.945 326.792 208.01 327.207 207.033 327.518C206.887 327.477 206.742 327.415 206.596 327.352C206.513 326.086 205.931 325.691 204.663 326.106C202.064 326.999 199.486 328.1 196.638 327.269C196.202 327.145 195.765 327.435 195.536 327.871C195.287 328.328 195.412 328.743 195.723 329.138C196.306 329.844 197.033 330.405 197.948 330.529C198.946 330.695 198.863 331.152 198.509 331.879C197.407 334.142 195.786 335.928 193.665 337.257C188.489 340.516 182.73 341.679 176.743 341.928C169.966 342.198 163.791 339.665 157.555 337.485C156.099 336.987 154.81 336.841 153.459 337.402C152.025 338.004 150.653 338.689 149.26 339.374C146.64 340.662 143.875 341.347 141.006 340.786C133.501 339.312 128.512 333.872 128.969 325.567C129.136 322.452 130.071 319.877 132.878 318.258C133.751 317.76 134.562 317.116 135.372 316.493C138.761 313.877 141.235 310.638 142.046 306.277C142.773 302.395 142.462 298.657 140.403 295.252C138.179 291.577 135.476 291.078 132.337 293.632C128.491 296.747 126.08 300.692 125.789 305.779C125.643 308.271 125.685 310.762 126.516 313.171C126.703 313.711 126.89 314.354 127.701 313.898C128.159 314.645 128.574 315.413 129.198 316.015C129.198 316.036 129.219 316.057 129.24 316.057C129.385 316.285 129.551 316.493 129.739 316.701C129.739 316.721 129.718 316.763 129.697 316.784L127.327 319.898L127.285 319.94C127.285 319.94 127.119 320.064 127.015 320.127C124.479 317.884 119.157 317.573 116.205 319.628C115.664 320.002 115.124 320.417 114.604 320.853L114.292 321.102C113.96 321.31 113.648 321.559 113.357 321.871L113.315 321.912L112.629 322.473Z" fill="#CA8C48"/>
<path d="M111.652 341.098C112.109 341.077 112.421 341.513 112.608 341.949C112.691 342.136 112.774 342.344 112.837 342.551C112.567 342.157 112.276 341.783 111.943 341.409C111.839 341.305 111.756 341.202 111.652 341.098Z" fill="#352313"/>
<path d="M111.59 278.62C112.006 279.305 112.609 279.264 113.274 278.89C114.209 278.371 115.228 278.101 116.267 277.914C117.619 277.665 117.951 277.893 118.097 279.222C118.222 280.157 118.305 281.091 118.388 282.025C118.45 282.918 117.972 283.313 117.141 283.064C114.687 282.275 112.629 280.987 111.153 278.952L111.59 278.62Z" fill="#F3B62C"/>
<path d="M111.153 278.952C110.841 278.558 110.592 278.143 110.342 277.707C109.698 276.565 109.76 275.589 110.613 274.571C112.421 272.433 114.895 271.561 117.411 270.73C124.354 268.467 131.423 267.221 138.761 266.93C145.829 266.681 152.856 266.287 159.925 266.66C165.101 266.93 170.319 266.847 175.454 267.616C190.027 269.796 204.455 272.599 218.217 278.184C221.689 279.596 224.953 281.382 228.425 283.271C226.783 284.226 225.265 284.932 223.581 285.244C223.228 285.327 222.957 285.119 222.666 285.015C220.109 284.206 217.677 283.043 215.286 281.859C210.92 279.742 206.264 278.6 201.607 277.582C193.832 275.879 186.036 274.218 178.115 273.284C167.201 271.976 156.224 271.374 145.227 271.748C140.216 271.914 135.206 272.184 130.217 272.806C125.061 273.471 119.885 274.239 114.874 275.776C113.939 276.066 113.066 276.482 112.255 277.063C111.735 277.458 111.091 277.831 111.59 278.62L111.153 278.952Z" fill="#F3B62C"/>
<path d="M110.654 339.665C110.841 340.205 111.257 340.662 111.652 341.098C111.569 341.098 111.486 341.119 111.402 341.16C110.197 341.617 110.259 340.828 110.217 340.06C110.03 337.132 110.987 334.35 111.257 331.339C111.257 331.339 111.402 331.256 111.486 331.214C111.195 333.415 110.903 335.637 110.612 337.859C110.529 338.461 110.467 339.104 110.654 339.665Z" fill="#F7F3E7"/>
<path d="M108.076 343.465C107.702 340.911 107.515 337.962 108.18 335.512C109.136 334.142 109.677 332.439 111.195 331.36H111.215C111.215 331.36 111.236 331.318 111.257 331.339C110.987 334.35 110.03 337.132 110.218 340.06C110.259 340.828 110.197 341.617 111.403 341.16C111.486 341.119 111.569 341.098 111.652 341.098C111.756 341.202 111.839 341.305 111.943 341.409C112.276 341.783 112.567 342.157 112.837 342.551C112.858 342.572 112.858 342.593 112.879 342.613C113.045 343.07 113.19 343.548 113.357 344.025C114.313 346.6 115.249 349.175 116.912 351.396L117.473 352.144L114.147 351.438C113.627 350.504 113.149 349.528 112.712 348.552C112.255 347.534 111.756 346.392 110.716 345.915C110.072 345.624 109.282 345.624 108.741 345.147C108.284 344.731 108.18 344.088 108.076 343.465Z" fill="#CA8C48"/>
<path d="M111.194 331.36C109.677 332.439 109.136 334.142 108.18 335.512C108.658 333.747 109.573 332.232 111.194 331.36Z" fill="#F7F3E7"/>
<path d="M108.18 335.512C108.076 335.678 107.951 335.845 107.827 335.99C108.055 332.46 108.845 329.076 110.238 325.816C110.758 324.591 112.005 323.926 112.421 322.639C112.483 322.577 112.567 322.535 112.629 322.473C112.671 322.473 112.733 322.452 112.774 322.431C112.941 322.244 113.128 322.058 113.315 321.912L113.357 321.871C113.668 321.622 113.98 321.352 114.292 321.102L114.604 320.853C118.159 318.403 123.169 318.029 126.953 320.168C126.974 320.147 126.994 320.147 127.015 320.127C127.057 320.127 127.077 320.168 127.098 320.189C125.165 323.615 124.375 327.29 125.456 331.09C128.055 340.122 133.876 344.918 143.75 345.126C144.665 345.147 145.06 345.292 145.268 346.268C145.912 349.071 147.16 351.583 149.509 353.39C150.112 353.847 150.424 354.428 150.694 355.155C151.297 356.733 152.004 358.228 152.877 359.598L118.2 352.289C116.953 350.545 115.872 348.697 114.957 346.745C114.313 345.354 113.71 343.901 112.878 342.613C112.858 342.593 112.858 342.572 112.837 342.551C112.774 342.344 112.691 342.136 112.608 341.949C112.421 341.513 112.109 341.077 111.652 341.098C111.257 340.662 110.841 340.205 110.654 339.665C110.467 339.104 110.529 338.461 110.612 337.859C110.903 335.637 111.195 333.415 111.486 331.214C111.402 331.256 111.319 331.297 111.257 331.318C111.257 331.318 111.236 331.339 111.215 331.36H111.195C109.573 332.232 108.658 333.747 108.18 335.512Z" fill="#F7F3E7"/>
<path d="M183.894 380.818C183.894 380.818 183.998 380.735 184.061 380.694C183.957 380.694 183.832 380.694 183.728 380.735C183.79 380.735 183.853 380.777 183.894 380.818ZM178.302 264.086C178.115 265.041 178.302 265.518 179.466 265.643C184.123 266.224 188.8 266.723 193.395 267.699C204.912 270.128 215.93 274.094 226.678 278.849C229.547 280.115 232.395 281.506 235.472 282.233C236.158 282.399 236.47 282.316 236.429 281.548C236.345 280.53 236.408 279.472 236.221 278.475C235.14 272.516 233.726 266.66 230.711 261.303C227.905 256.32 224.641 251.69 219.984 248.305C215.452 245.004 210.629 242.305 204.309 242.471C200.775 242.45 196.887 243.052 193.312 244.879C187.2 248.015 183.042 252.998 180.131 259.165C179.383 260.743 178.655 262.342 178.302 264.086ZM150.902 246.686C146.91 251.462 144.873 257.358 143.147 263.318C142.96 264.023 143.21 264.127 143.854 264.107C146.328 264.023 148.802 264.023 151.276 263.94C158.615 263.754 165.932 264.418 173.25 264.958C175.641 265.145 175.059 265.249 175.849 263.234C178.551 256.403 181.961 250.05 187.803 245.399C193.062 241.225 198.966 239.045 205.744 239.668C207.594 239.855 209.423 240.145 211.274 240.478C207.095 236.844 202.272 234.83 196.804 234.352C193 234.041 189.195 234.29 185.474 235.121C178.926 236.574 172.855 239.003 168.219 244.194C167.803 244.651 167.284 245.232 166.702 244.713C166.057 244.153 166.598 243.509 167.013 243.032C168.261 241.557 169.633 240.228 171.171 239.086C175.184 236.076 179.612 233.896 184.539 232.816C184.185 232.421 183.769 232.421 183.374 232.359C181.15 232.068 178.946 231.965 176.701 232.131C165.808 232.837 157.658 238.609 150.902 246.686ZM130.487 261.324C129.905 262.196 129.343 263.131 129.406 264.273C129.447 264.896 129.655 265.269 130.383 265.186C133.148 264.833 135.934 264.646 138.719 264.563C139.738 264.522 140.216 264.023 140.466 263.068C141.027 261.013 141.734 258.999 142.274 256.943C143.792 251.358 145.933 246.146 150.361 242.18C148.324 242.637 146.661 243.779 145.018 244.963C138.948 249.323 134.541 255.178 130.487 261.324ZM110.342 277.707C110.592 278.143 110.841 278.558 111.153 278.952C112.629 280.987 114.687 282.275 117.14 283.064C117.972 283.313 118.45 282.918 118.387 282.025C118.304 281.091 118.221 280.157 118.096 279.222C117.951 277.894 117.618 277.665 116.267 277.914C115.228 278.101 114.209 278.371 113.273 278.89C112.608 279.264 112.005 279.305 111.589 278.62C111.09 277.831 111.735 277.457 112.255 277.063C113.065 276.482 113.939 276.066 114.874 275.776C119.884 274.239 125.061 273.471 130.217 272.806C135.206 272.184 140.216 271.914 145.226 271.748C156.224 271.374 167.2 271.976 178.115 273.284C186.036 274.218 193.831 275.879 201.607 277.582C206.263 278.599 210.92 279.741 215.286 281.859C217.677 283.043 220.109 284.206 222.666 285.015C222.957 285.119 223.227 285.327 223.581 285.244C225.265 284.932 226.782 284.226 228.425 283.271C224.953 281.382 221.689 279.596 218.217 278.184C204.455 272.599 190.027 269.796 175.454 267.616C170.319 266.847 165.101 266.93 159.924 266.66C152.856 266.287 145.829 266.66 138.761 266.93C131.422 267.221 124.354 268.467 117.41 270.73C114.895 271.561 112.421 272.433 110.612 274.571C109.76 275.589 109.698 276.565 110.342 277.707ZM112.047 284.496C109.303 282.856 107.307 280.551 106.766 277.229C106.288 274.281 107.889 272.329 109.989 270.792C113.149 268.467 116.974 267.636 120.695 266.619C122.067 266.245 123.439 265.934 124.811 265.581C125.206 265.498 125.435 265.332 125.601 264.916C129.073 256.424 134.187 249.219 141.692 243.8C145.559 241.038 149.654 239.107 154.29 238.297C154.893 238.194 155.309 237.861 155.746 237.488C162.939 231.445 171.15 228.456 180.526 228.705C183.603 228.788 186.327 229.784 188.884 231.383C189.466 231.757 190.006 231.819 190.692 231.778C201.108 231.072 210.234 233.646 216.97 242.326C218.55 244.34 220.857 245.544 222.77 247.163C226.408 250.257 229.734 253.683 232.728 257.421C235.867 261.345 237.281 266.017 238.403 270.855C239.318 274.779 240.025 278.683 240.025 282.731C240.025 283.23 240.191 283.541 240.711 283.707C246.49 285.784 249.235 290.372 250.212 296.082C251.023 300.816 249.796 305.26 247.114 309.267C245.971 310.991 245.056 311.634 241.875 313.295C247.26 317.635 248.736 323.781 249.567 330.238C249.775 331.816 249.713 333.291 248.86 334.723C248.133 335.948 247.114 336.426 245.825 336.281C244.911 336.156 244.848 336.364 245.035 337.194C246.283 342.904 246.012 348.448 243.247 353.701C242.603 354.926 241.979 356.193 240.961 357.148C240.607 357.48 240.191 357.999 239.796 357.999C238.383 358.02 237.905 359.1 237.343 360.034C233.664 366.097 227.947 369.668 221.959 372.866C221.377 373.177 220.816 373.468 220.234 373.759C220.234 373.759 208.592 381.317 177.2 383.227C177.2 383.227 129.551 387.421 111.839 355.217C111.777 355.092 111.714 354.989 111.631 354.864C111.402 354.469 111.194 354.054 110.987 353.639C110.862 353.39 110.737 353.141 110.612 352.871C110.571 352.829 110.55 352.767 110.529 352.705C110.176 351.978 109.843 351.23 109.531 350.462C109.344 350.047 109.178 349.694 108.658 349.569C105.353 348.739 104.292 346.123 104.147 343.465C103.856 337.9 104.438 332.419 106.163 327.103C106.371 326.48 106.434 326.169 105.664 325.816C104.209 325.193 103.482 323.324 103.752 321.393C104.272 317.593 106.08 314.541 109.136 312.278C110.841 311.011 112.525 309.745 114.23 308.478C114.916 307.98 115.186 307.378 115.124 306.485C114.936 303.142 115.955 300.007 116.87 296.871C117.577 294.401 118.491 291.992 118.408 289.313C118.367 288.13 117.743 287.445 116.849 287.092C115.165 286.386 113.606 285.431 112.047 284.496ZM108.18 335.512C107.515 337.962 107.702 340.911 108.076 343.465C108.18 344.088 108.284 344.731 108.741 345.147C109.282 345.624 110.072 345.624 110.716 345.915C111.756 346.392 112.255 347.534 112.712 348.552C113.149 349.528 113.627 350.504 114.146 351.438C116.433 355.736 119.385 359.702 122.899 363.066C128.865 368.776 136.453 372.098 144.145 374.839C152.378 377.745 161.047 379.552 169.799 379.573C173.105 379.593 176.389 379.344 179.674 379.116C183.333 378.846 186.992 378.576 190.63 378.098C196.264 377.372 201.835 376.147 207.261 374.444C209.319 373.821 211.357 373.094 213.353 372.305H213.373C219.381 369.918 225.098 366.741 229.963 362.484C233.248 359.598 236.096 356.255 238.923 352.912C239.755 351.936 240.586 350.96 241.21 349.86C243.933 345.001 242.229 338.98 240.503 333.706C240.108 332.481 239.776 331.007 240.669 330.093C242.104 331.463 243.746 332.605 245.534 333.519C246.698 328.411 245.202 322.867 241.917 318.818C240.753 317.386 239.36 316.161 237.801 315.185C235.867 314.001 233.539 313.046 232.666 310.97C238.507 311.842 244.682 307.814 246.262 302.125C247.821 296.435 244.578 289.833 239.11 287.59C233.456 285.265 226.554 287.694 222.728 292.449C222.417 292.823 222.084 293.238 221.606 293.3C221.232 293.362 220.961 293.238 220.753 293.009C220.65 292.864 220.566 292.698 220.504 292.511C220.462 292.386 220.421 292.241 220.4 292.096V292.034C220.358 291.701 220.358 291.348 220.421 290.995C220.421 290.912 220.442 290.808 220.462 290.725C220.462 290.642 220.483 290.559 220.525 290.476C220.587 290.497 220.65 290.497 220.712 290.497C221.835 288.545 221.668 287.86 219.693 287.05C216.221 285.659 212.687 284.496 209.091 283.583C202.501 281.922 195.973 280.032 189.216 279.222C185.641 278.786 182.106 278.205 178.551 277.644C175.184 277.146 171.774 277.125 168.385 277.021C163.043 276.876 157.7 276.606 152.357 276.461C148.074 276.357 143.792 276.71 139.53 277.167C137.514 277.374 135.58 277.894 133.668 278.599C131.443 279.409 129.759 280.863 128.304 282.794C126.433 285.265 124.77 287.839 123.585 290.725L123.647 290.663C123.398 291.058 123.148 291.473 122.94 291.888C122.712 292.324 122.504 292.76 122.317 293.217C119.822 299.259 121.111 307.087 116.371 311.593C115.02 312.859 113.336 313.69 111.88 314.832C110.404 315.974 109.115 317.573 109.136 319.441C109.136 321.227 110.945 322.992 112.629 322.473C112.566 322.535 112.483 322.577 112.421 322.639C112.005 323.926 110.758 324.591 110.238 325.816C108.845 329.076 108.055 332.46 107.827 335.99C107.951 335.845 108.076 335.678 108.18 335.512Z" fill="#352313"/>
</g>
<g filter="url(#filter0_f_151_5221)">
<circle cx="30.7529" cy="163.684" r="8.92819" fill="url(#paint0_radial_151_5221)" fill-opacity="0.23"/>
</g>
<circle cx="30.7526" cy="163.684" r="4.72669" fill="#F1AB0E"/>
<g filter="url(#filter1_f_151_5221)">
<circle cx="8.92819" cy="8.92819" r="8.92819" transform="matrix(-1 0 0 1 354.151 220.229)" fill="url(#paint1_radial_151_5221)" fill-opacity="0.23"/>
</g>
<circle cx="4.72669" cy="4.72669" r="4.72669" transform="matrix(-1 0 0 1 349.95 224.43)" fill="#F1AB0E"/>
<g filter="url(#filter2_f_151_5221)">
<circle cx="133.923" cy="199.396" r="8.92819" fill="url(#paint2_radial_151_5221)" fill-opacity="0.23"/>
</g>
<circle cx="133.923" cy="199.396" r="4.72669" fill="#F1AB0E"/>
<g filter="url(#filter3_f_151_5221)">
<circle cx="171.62" cy="419.625" r="8.92819" fill="url(#paint3_radial_151_5221)" fill-opacity="0.23"/>
</g>
<circle cx="171.62" cy="419.625" r="4.72669" fill="#F1AB0E"/>
<g filter="url(#filter4_f_151_5221)">
<circle cx="239.077" cy="113.09" r="8.92819" fill="url(#paint4_radial_151_5221)" fill-opacity="0.23"/>
</g>
<circle cx="239.077" cy="113.091" r="4.72669" fill="#F1AB0E"/>
<circle cx="197.413" cy="478.154" r="14.8803" fill="#F1AB0E"/>
<path d="M194.734 478.154L196.519 479.94L200.537 475.922M202.681 471.903C202.865 472.348 203.218 472.701 203.662 472.886L205.22 473.531C205.665 473.715 206.018 474.069 206.202 474.513C206.386 474.958 206.386 475.458 206.202 475.902L205.557 477.459C205.373 477.904 205.373 478.404 205.558 478.849L206.202 480.406C206.293 480.626 206.34 480.862 206.34 481.1C206.34 481.339 206.293 481.575 206.202 481.795C206.111 482.016 205.977 482.216 205.808 482.384C205.64 482.553 205.439 482.686 205.219 482.778L203.662 483.423C203.217 483.606 202.864 483.959 202.68 484.404L202.034 485.962C201.85 486.407 201.497 486.76 201.052 486.944C200.607 487.128 200.108 487.128 199.663 486.944L198.106 486.299C197.661 486.115 197.162 486.116 196.718 486.3L195.159 486.945C194.715 487.128 194.216 487.128 193.771 486.944C193.327 486.76 192.974 486.407 192.79 485.963L192.144 484.404C191.96 483.96 191.607 483.606 191.163 483.422L189.605 482.776C189.16 482.592 188.807 482.239 188.623 481.795C188.439 481.35 188.439 480.851 188.622 480.406L189.267 478.849C189.451 478.405 189.451 477.905 189.266 477.461L188.622 475.901C188.531 475.681 188.484 475.445 188.484 475.207C188.484 474.968 188.531 474.732 188.622 474.512C188.713 474.292 188.847 474.091 189.016 473.923C189.184 473.754 189.384 473.621 189.605 473.529L191.162 472.885C191.606 472.701 191.959 472.348 192.144 471.905L192.789 470.346C192.973 469.902 193.327 469.548 193.771 469.364C194.216 469.18 194.716 469.18 195.16 469.364L196.717 470.009C197.162 470.193 197.661 470.192 198.106 470.008L199.665 469.365C200.109 469.181 200.609 469.181 201.053 469.365C201.498 469.549 201.851 469.903 202.035 470.347L202.681 471.906L202.681 471.903Z" stroke="#FDF5E2" stroke-width="1.98404" stroke-linecap="round" stroke-linejoin="round"/>
<defs>
<filter id="filter0_f_151_5221" x="17.8566" y="150.787" width="25.7926" height="25.7926" filterUnits="userSpaceOnUse" color-interpolation-filters="sRGB">
<feFlood flood-opacity="0" result="BackgroundImageFix"/>
<feBlend mode="normal" in="SourceGraphic" in2="BackgroundImageFix" result="shape"/>
<feGaussianBlur stdDeviation="1.98404" result="effect1_foregroundBlur_151_5221"/>
</filter>
<filter id="filter1_f_151_5221" x="332.327" y="216.261" width="25.7926" height="25.7926" filterUnits="userSpaceOnUse" color-interpolation-filters="sRGB">
<feFlood flood-opacity="0" result="BackgroundImageFix"/>
<feBlend mode="normal" in="SourceGraphic" in2="BackgroundImageFix" result="shape"/>
<feGaussianBlur stdDeviation="1.98404" result="effect1_foregroundBlur_151_5221"/>
</filter>
<filter id="filter2_f_151_5221" x="121.027" y="186.5" width="25.7926" height="25.7926" filterUnits="userSpaceOnUse" color-interpolation-filters="sRGB">
<feFlood flood-opacity="0" result="BackgroundImageFix"/>
<feBlend mode="normal" in="SourceGraphic" in2="BackgroundImageFix" result="shape"/>
<feGaussianBlur stdDeviation="1.98404" result="effect1_foregroundBlur_151_5221"/>
</filter>
<filter id="filter3_f_151_5221" x="158.723" y="406.729" width="25.7926" height="25.7926" filterUnits="userSpaceOnUse" color-interpolation-filters="sRGB">
<feFlood flood-opacity="0" result="BackgroundImageFix"/>
<feBlend mode="normal" in="SourceGraphic" in2="BackgroundImageFix" result="shape"/>
<feGaussianBlur stdDeviation="1.98404" result="effect1_foregroundBlur_151_5221"/>
</filter>
<filter id="filter4_f_151_5221" x="226.181" y="100.194" width="25.7926" height="25.7926" filterUnits="userSpaceOnUse" color-interpolation-filters="sRGB">
<feFlood flood-opacity="0" result="BackgroundImageFix"/>
<feBlend mode="normal" in="SourceGraphic" in2="BackgroundImageFix" result="shape"/>
<feGaussianBlur stdDeviation="1.98404" result="effect1_foregroundBlur_151_5221"/>
</filter>
<radialGradient id="paint0_radial_151_5221" cx="0" cy="0" r="1" gradientUnits="userSpaceOnUse" gradientTransform="translate(30.7529 163.684) rotate(90) scale(8.92819)">
<stop stop-color="#F1AB0E"/>
<stop offset="1" stop-color="#F1AB0E" stop-opacity="0.64"/>
</radialGradient>
<radialGradient id="paint1_radial_151_5221" cx="0" cy="0" r="1" gradientUnits="userSpaceOnUse" gradientTransform="translate(8.92819 8.92819) rotate(90) scale(8.92819)">
<stop stop-color="#F1AB0E"/>
<stop offset="1" stop-color="#F1AB0E" stop-opacity="0.64"/>
</radialGradient>
<radialGradient id="paint2_radial_151_5221" cx="0" cy="0" r="1" gradientUnits="userSpaceOnUse" gradientTransform="translate(133.923 199.396) rotate(90) scale(8.92819)">
<stop stop-color="#F1AB0E"/>
<stop offset="1" stop-color="#F1AB0E" stop-opacity="0.64"/>
</radialGradient>
<radialGradient id="paint3_radial_151_5221" cx="0" cy="0" r="1" gradientUnits="userSpaceOnUse" gradientTransform="translate(171.62 419.625) rotate(90) scale(8.92819)">
<stop stop-color="#F1AB0E"/>
<stop offset="1" stop-color="#F1AB0E" stop-opacity="0.64"/>
</radialGradient>
<radialGradient id="paint4_radial_151_5221" cx="0" cy="0" r="1" gradientUnits="userSpaceOnUse" gradientTransform="translate(239.077 113.09) rotate(90) scale(8.92819)">
<stop stop-color="#F1AB0E"/>
<stop offset="1" stop-color="#F1AB0E" stop-opacity="0.64"/>
</radialGradient>
<clipPath id="clip0_151_5221">
<rect width="147.811" height="155.747" fill="white" transform="translate(103.17 228.165)"/>
</clipPath>
</defs>
</svg>
